<?xml version="1.0" encoding="utf-8" standalone="no"?>
<!DOCTYPE svg PUBLIC "-//W3C//DTD SVG 1.1//EN"
  "http://www.w3.org/Graphics/SVG/1.1/DTD/svg11.dtd">
<svg xmlns:xlink="http://www.w3.org/1999/xlink" width="836.59925pt" height="599.688719pt" viewBox="0 0 836.59925 599.688719" xmlns="http://www.w3.org/2000/svg" version="1.1">
 <metadata>
  <rdf:RDF xmlns:dc="http://purl.org/dc/elements/1.1/" xmlns:cc="http://creativecommons.org/ns#" xmlns:rdf="http://www.w3.org/1999/02/22-rdf-syntax-ns#">
   <cc:Work>
    <dc:type rdf:resource="http://purl.org/dc/dcmitype/StillImage"/>
    <dc:date>2022-07-08T12:58:49.452392</dc:date>
    <dc:format>image/svg+xml</dc:format>
    <dc:creator>
     <cc:Agent>
      <dc:title>Matplotlib v3.5.0, https://matplotlib.org/</dc:title>
     </cc:Agent>
    </dc:creator>
   </cc:Work>
  </rdf:RDF>
 </metadata>
 <defs>
  <style type="text/css">*{stroke-linejoin: round; stroke-linecap: butt}</style>
 </defs>
 <g id="figure_1">
  <g id="patch_1">
   <path d="M 0 599.688719 
L 836.59925 599.688719 
L 836.59925 0 
L 0 0 
z
" style="fill: #ffffff"/>
  </g>
  <g id="axes_1">
   <g id="patch_2">
    <path d="M 130.4045 517.861594 
L 800.0045 517.861594 
L 800.0045 18.901594 
L 130.4045 18.901594 
z
" style="fill: #ffffff"/>
   </g>
   <g id="matplotlib.axis_1">
    <g id="xtick_1">
     <g id="line2d_1">
      <path d="M 130.4045 517.861594 
L 130.4045 18.901594 
" clip-path="url(#p69c7cd8ac6)" style="fill: none; stroke: #cccccc; stroke-width: 0.8; stroke-linecap: round"/>
     </g>
     <g id="text_1">
      <!-- 0 -->
      <g style="fill: #262626" transform="translate(120.60625 549.564781)scale(0.308 -0.308)">
       <defs>
        <path id="DejaVuSans-30" d="M 2034 4250 
Q 1547 4250 1301 3770 
Q 1056 3291 1056 2328 
Q 1056 1369 1301 889 
Q 1547 409 2034 409 
Q 2525 409 2770 889 
Q 3016 1369 3016 2328 
Q 3016 3291 2770 3770 
Q 2525 4250 2034 4250 
z
M 2034 4750 
Q 2819 4750 3233 4129 
Q 3647 3509 3647 2328 
Q 3647 1150 3233 529 
Q 2819 -91 2034 -91 
Q 1250 -91 836 529 
Q 422 1150 422 2328 
Q 422 3509 836 4129 
Q 1250 4750 2034 4750 
z
" transform="scale(0.015625)"/>
       </defs>
       <use xlink:href="#DejaVuSans-30"/>
      </g>
     </g>
    </g>
    <g id="xtick_2">
     <g id="line2d_2">
      <path d="M 353.6045 517.861594 
L 353.6045 18.901594 
" clip-path="url(#p69c7cd8ac6)" style="fill: none; stroke: #cccccc; stroke-width: 0.8; stroke-linecap: round"/>
     </g>
     <g id="text_2">
      <!-- 100 -->
      <g style="fill: #262626" transform="translate(324.20975 549.564781)scale(0.308 -0.308)">
       <defs>
        <path id="DejaVuSans-31" d="M 794 531 
L 1825 531 
L 1825 4091 
L 703 3866 
L 703 4441 
L 1819 4666 
L 2450 4666 
L 2450 531 
L 3481 531 
L 3481 0 
L 794 0 
L 794 531 
z
" transform="scale(0.015625)"/>
       </defs>
       <use xlink:href="#DejaVuSans-31"/>
       <use xlink:href="#DejaVuSans-30" x="63.623047"/>
       <use xlink:href="#DejaVuSans-30" x="127.246094"/>
      </g>
     </g>
    </g>
    <g id="xtick_3">
     <g id="line2d_3">
      <path d="M 576.8045 517.861594 
L 576.8045 18.901594 
" clip-path="url(#p69c7cd8ac6)" style="fill: none; stroke: #cccccc; stroke-width: 0.8; stroke-linecap: round"/>
     </g>
     <g id="text_3">
      <!-- 200 -->
      <g style="fill: #262626" transform="translate(547.40975 549.564781)scale(0.308 -0.308)">
       <defs>
        <path id="DejaVuSans-32" d="M 1228 531 
L 3431 531 
L 3431 0 
L 469 0 
L 469 531 
Q 828 903 1448 1529 
Q 2069 2156 2228 2338 
Q 2531 2678 2651 2914 
Q 2772 3150 2772 3378 
Q 2772 3750 2511 3984 
Q 2250 4219 1831 4219 
Q 1534 4219 1204 4116 
Q 875 4013 500 3803 
L 500 4441 
Q 881 4594 1212 4672 
Q 1544 4750 1819 4750 
Q 2544 4750 2975 4387 
Q 3406 4025 3406 3419 
Q 3406 3131 3298 2873 
Q 3191 2616 2906 2266 
Q 2828 2175 2409 1742 
Q 1991 1309 1228 531 
z
" transform="scale(0.015625)"/>
       </defs>
       <use xlink:href="#DejaVuSans-32"/>
       <use xlink:href="#DejaVuSans-30" x="63.623047"/>
       <use xlink:href="#DejaVuSans-30" x="127.246094"/>
      </g>
     </g>
    </g>
    <g id="xtick_4">
     <g id="line2d_4">
      <path d="M 800.0045 517.861594 
L 800.0045 18.901594 
" clip-path="url(#p69c7cd8ac6)" style="fill: none; stroke: #cccccc; stroke-width: 0.8; stroke-linecap: round"/>
     </g>
     <g id="text_4">
      <!-- 300 -->
      <g style="fill: #262626" transform="translate(770.60975 549.564781)scale(0.308 -0.308)">
       <defs>
        <path id="DejaVuSans-33" d="M 2597 2516 
Q 3050 2419 3304 2112 
Q 3559 1806 3559 1356 
Q 3559 666 3084 287 
Q 2609 -91 1734 -91 
Q 1441 -91 1130 -33 
Q 819 25 488 141 
L 488 750 
Q 750 597 1062 519 
Q 1375 441 1716 441 
Q 2309 441 2620 675 
Q 2931 909 2931 1356 
Q 2931 1769 2642 2001 
Q 2353 2234 1838 2234 
L 1294 2234 
L 1294 2753 
L 1863 2753 
Q 2328 2753 2575 2939 
Q 2822 3125 2822 3475 
Q 2822 3834 2567 4026 
Q 2313 4219 1838 4219 
Q 1578 4219 1281 4162 
Q 984 4106 628 3988 
L 628 4550 
Q 988 4650 1302 4700 
Q 1616 4750 1894 4750 
Q 2613 4750 3031 4423 
Q 3450 4097 3450 3541 
Q 3450 3153 3228 2886 
Q 3006 2619 2597 2516 
z
" transform="scale(0.015625)"/>
       </defs>
       <use xlink:href="#DejaVuSans-33"/>
       <use xlink:href="#DejaVuSans-30" x="63.623047"/>
       <use xlink:href="#DejaVuSans-30" x="127.246094"/>
      </g>
     </g>
    </g>
    <g id="text_5">
     <!-- Time cutoff (s) -->
     <g style="fill: #262626" transform="translate(342.981875 585.500969)scale(0.336 -0.336)">
      <defs>
       <path id="DejaVuSans-54" d="M -19 4666 
L 3928 4666 
L 3928 4134 
L 2272 4134 
L 2272 0 
L 1638 0 
L 1638 4134 
L -19 4134 
L -19 4666 
z
" transform="scale(0.015625)"/>
       <path id="DejaVuSans-69" d="M 603 3500 
L 1178 3500 
L 1178 0 
L 603 0 
L 603 3500 
z
M 603 4863 
L 1178 4863 
L 1178 4134 
L 603 4134 
L 603 4863 
z
" transform="scale(0.015625)"/>
       <path id="DejaVuSans-6d" d="M 3328 2828 
Q 3544 3216 3844 3400 
Q 4144 3584 4550 3584 
Q 5097 3584 5394 3201 
Q 5691 2819 5691 2113 
L 5691 0 
L 5113 0 
L 5113 2094 
Q 5113 2597 4934 2840 
Q 4756 3084 4391 3084 
Q 3944 3084 3684 2787 
Q 3425 2491 3425 1978 
L 3425 0 
L 2847 0 
L 2847 2094 
Q 2847 2600 2669 2842 
Q 2491 3084 2119 3084 
Q 1678 3084 1418 2786 
Q 1159 2488 1159 1978 
L 1159 0 
L 581 0 
L 581 3500 
L 1159 3500 
L 1159 2956 
Q 1356 3278 1631 3431 
Q 1906 3584 2284 3584 
Q 2666 3584 2933 3390 
Q 3200 3197 3328 2828 
z
" transform="scale(0.015625)"/>
       <path id="DejaVuSans-65" d="M 3597 1894 
L 3597 1613 
L 953 1613 
Q 991 1019 1311 708 
Q 1631 397 2203 397 
Q 2534 397 2845 478 
Q 3156 559 3463 722 
L 3463 178 
Q 3153 47 2828 -22 
Q 2503 -91 2169 -91 
Q 1331 -91 842 396 
Q 353 884 353 1716 
Q 353 2575 817 3079 
Q 1281 3584 2069 3584 
Q 2775 3584 3186 3129 
Q 3597 2675 3597 1894 
z
M 3022 2063 
Q 3016 2534 2758 2815 
Q 2500 3097 2075 3097 
Q 1594 3097 1305 2825 
Q 1016 2553 972 2059 
L 3022 2063 
z
" transform="scale(0.015625)"/>
       <path id="DejaVuSans-20" transform="scale(0.015625)"/>
       <path id="DejaVuSans-63" d="M 3122 3366 
L 3122 2828 
Q 2878 2963 2633 3030 
Q 2388 3097 2138 3097 
Q 1578 3097 1268 2742 
Q 959 2388 959 1747 
Q 959 1106 1268 751 
Q 1578 397 2138 397 
Q 2388 397 2633 464 
Q 2878 531 3122 666 
L 3122 134 
Q 2881 22 2623 -34 
Q 2366 -91 2075 -91 
Q 1284 -91 818 406 
Q 353 903 353 1747 
Q 353 2603 823 3093 
Q 1294 3584 2113 3584 
Q 2378 3584 2631 3529 
Q 2884 3475 3122 3366 
z
" transform="scale(0.015625)"/>
       <path id="DejaVuSans-75" d="M 544 1381 
L 544 3500 
L 1119 3500 
L 1119 1403 
Q 1119 906 1312 657 
Q 1506 409 1894 409 
Q 2359 409 2629 706 
Q 2900 1003 2900 1516 
L 2900 3500 
L 3475 3500 
L 3475 0 
L 2900 0 
L 2900 538 
Q 2691 219 2414 64 
Q 2138 -91 1772 -91 
Q 1169 -91 856 284 
Q 544 659 544 1381 
z
M 1991 3584 
L 1991 3584 
z
" transform="scale(0.015625)"/>
       <path id="DejaVuSans-74" d="M 1172 4494 
L 1172 3500 
L 2356 3500 
L 2356 3053 
L 1172 3053 
L 1172 1153 
Q 1172 725 1289 603 
Q 1406 481 1766 481 
L 2356 481 
L 2356 0 
L 1766 0 
Q 1100 0 847 248 
Q 594 497 594 1153 
L 594 3053 
L 172 3053 
L 172 3500 
L 594 3500 
L 594 4494 
L 1172 4494 
z
" transform="scale(0.015625)"/>
       <path id="DejaVuSans-6f" d="M 1959 3097 
Q 1497 3097 1228 2736 
Q 959 2375 959 1747 
Q 959 1119 1226 758 
Q 1494 397 1959 397 
Q 2419 397 2687 759 
Q 2956 1122 2956 1747 
Q 2956 2369 2687 2733 
Q 2419 3097 1959 3097 
z
M 1959 3584 
Q 2709 3584 3137 3096 
Q 3566 2609 3566 1747 
Q 3566 888 3137 398 
Q 2709 -91 1959 -91 
Q 1206 -91 779 398 
Q 353 888 353 1747 
Q 353 2609 779 3096 
Q 1206 3584 1959 3584 
z
" transform="scale(0.015625)"/>
       <path id="DejaVuSans-66" d="M 2375 4863 
L 2375 4384 
L 1825 4384 
Q 1516 4384 1395 4259 
Q 1275 4134 1275 3809 
L 1275 3500 
L 2222 3500 
L 2222 3053 
L 1275 3053 
L 1275 0 
L 697 0 
L 697 3053 
L 147 3053 
L 147 3500 
L 697 3500 
L 697 3744 
Q 697 4328 969 4595 
Q 1241 4863 1831 4863 
L 2375 4863 
z
" transform="scale(0.015625)"/>
       <path id="DejaVuSans-28" d="M 1984 4856 
Q 1566 4138 1362 3434 
Q 1159 2731 1159 2009 
Q 1159 1288 1364 580 
Q 1569 -128 1984 -844 
L 1484 -844 
Q 1016 -109 783 600 
Q 550 1309 550 2009 
Q 550 2706 781 3412 
Q 1013 4119 1484 4856 
L 1984 4856 
z
" transform="scale(0.015625)"/>
       <path id="DejaVuSans-73" d="M 2834 3397 
L 2834 2853 
Q 2591 2978 2328 3040 
Q 2066 3103 1784 3103 
Q 1356 3103 1142 2972 
Q 928 2841 928 2578 
Q 928 2378 1081 2264 
Q 1234 2150 1697 2047 
L 1894 2003 
Q 2506 1872 2764 1633 
Q 3022 1394 3022 966 
Q 3022 478 2636 193 
Q 2250 -91 1575 -91 
Q 1294 -91 989 -36 
Q 684 19 347 128 
L 347 722 
Q 666 556 975 473 
Q 1284 391 1588 391 
Q 1994 391 2212 530 
Q 2431 669 2431 922 
Q 2431 1156 2273 1281 
Q 2116 1406 1581 1522 
L 1381 1569 
Q 847 1681 609 1914 
Q 372 2147 372 2553 
Q 372 3047 722 3315 
Q 1072 3584 1716 3584 
Q 2034 3584 2315 3537 
Q 2597 3491 2834 3397 
z
" transform="scale(0.015625)"/>
       <path id="DejaVuSans-29" d="M 513 4856 
L 1013 4856 
Q 1481 4119 1714 3412 
Q 1947 2706 1947 2009 
Q 1947 1309 1714 600 
Q 1481 -109 1013 -844 
L 513 -844 
Q 928 -128 1133 580 
Q 1338 1288 1338 2009 
Q 1338 2731 1133 3434 
Q 928 4138 513 4856 
z
" transform="scale(0.015625)"/>
      </defs>
      <use xlink:href="#DejaVuSans-54"/>
      <use xlink:href="#DejaVuSans-69" x="57.958984"/>
      <use xlink:href="#DejaVuSans-6d" x="85.742188"/>
      <use xlink:href="#DejaVuSans-65" x="183.154297"/>
      <use xlink:href="#DejaVuSans-20" x="244.677734"/>
      <use xlink:href="#DejaVuSans-63" x="276.464844"/>
      <use xlink:href="#DejaVuSans-75" x="331.445312"/>
      <use xlink:href="#DejaVuSans-74" x="394.824219"/>
      <use xlink:href="#DejaVuSans-6f" x="434.033203"/>
      <use xlink:href="#DejaVuSans-66" x="495.214844"/>
      <use xlink:href="#DejaVuSans-66" x="530.419922"/>
      <use xlink:href="#DejaVuSans-20" x="565.625"/>
      <use xlink:href="#DejaVuSans-28" x="597.412109"/>
      <use xlink:href="#DejaVuSans-73" x="636.425781"/>
      <use xlink:href="#DejaVuSans-29" x="688.525391"/>
     </g>
    </g>
   </g>
   <g id="matplotlib.axis_2">
    <g id="ytick_1">
     <g id="line2d_5">
      <path d="M 130.4045 517.861594 
L 800.0045 517.861594 
" clip-path="url(#p69c7cd8ac6)" style="fill: none; stroke: #cccccc; stroke-width: 0.8; stroke-linecap: round"/>
     </g>
     <g id="text_6">
      <!-- 0 -->
      <g style="fill: #262626" transform="translate(102.508 529.563188)scale(0.308 -0.308)">
       <use xlink:href="#DejaVuSans-30"/>
      </g>
     </g>
    </g>
    <g id="ytick_2">
     <g id="line2d_6">
      <path d="M 130.4045 418.069594 
L 800.0045 418.069594 
" clip-path="url(#p69c7cd8ac6)" style="fill: none; stroke: #cccccc; stroke-width: 0.8; stroke-linecap: round"/>
     </g>
     <g id="text_7">
      <!-- 200 -->
      <g style="fill: #262626" transform="translate(63.315 429.771188)scale(0.308 -0.308)">
       <use xlink:href="#DejaVuSans-32"/>
       <use xlink:href="#DejaVuSans-30" x="63.623047"/>
       <use xlink:href="#DejaVuSans-30" x="127.246094"/>
      </g>
     </g>
    </g>
    <g id="ytick_3">
     <g id="line2d_7">
      <path d="M 130.4045 318.277594 
L 800.0045 318.277594 
" clip-path="url(#p69c7cd8ac6)" style="fill: none; stroke: #cccccc; stroke-width: 0.8; stroke-linecap: round"/>
     </g>
     <g id="text_8">
      <!-- 400 -->
      <g style="fill: #262626" transform="translate(63.315 329.979188)scale(0.308 -0.308)">
       <defs>
        <path id="DejaVuSans-34" d="M 2419 4116 
L 825 1625 
L 2419 1625 
L 2419 4116 
z
M 2253 4666 
L 3047 4666 
L 3047 1625 
L 3713 1625 
L 3713 1100 
L 3047 1100 
L 3047 0 
L 2419 0 
L 2419 1100 
L 313 1100 
L 313 1709 
L 2253 4666 
z
" transform="scale(0.015625)"/>
       </defs>
       <use xlink:href="#DejaVuSans-34"/>
       <use xlink:href="#DejaVuSans-30" x="63.623047"/>
       <use xlink:href="#DejaVuSans-30" x="127.246094"/>
      </g>
     </g>
    </g>
    <g id="ytick_4">
     <g id="line2d_8">
      <path d="M 130.4045 218.485594 
L 800.0045 218.485594 
" clip-path="url(#p69c7cd8ac6)" style="fill: none; stroke: #cccccc; stroke-width: 0.8; stroke-linecap: round"/>
     </g>
     <g id="text_9">
      <!-- 600 -->
      <g style="fill: #262626" transform="translate(63.315 230.187188)scale(0.308 -0.308)">
       <defs>
        <path id="DejaVuSans-36" d="M 2113 2584 
Q 1688 2584 1439 2293 
Q 1191 2003 1191 1497 
Q 1191 994 1439 701 
Q 1688 409 2113 409 
Q 2538 409 2786 701 
Q 3034 994 3034 1497 
Q 3034 2003 2786 2293 
Q 2538 2584 2113 2584 
z
M 3366 4563 
L 3366 3988 
Q 3128 4100 2886 4159 
Q 2644 4219 2406 4219 
Q 1781 4219 1451 3797 
Q 1122 3375 1075 2522 
Q 1259 2794 1537 2939 
Q 1816 3084 2150 3084 
Q 2853 3084 3261 2657 
Q 3669 2231 3669 1497 
Q 3669 778 3244 343 
Q 2819 -91 2113 -91 
Q 1303 -91 875 529 
Q 447 1150 447 2328 
Q 447 3434 972 4092 
Q 1497 4750 2381 4750 
Q 2619 4750 2861 4703 
Q 3103 4656 3366 4563 
z
" transform="scale(0.015625)"/>
       </defs>
       <use xlink:href="#DejaVuSans-36"/>
       <use xlink:href="#DejaVuSans-30" x="63.623047"/>
       <use xlink:href="#DejaVuSans-30" x="127.246094"/>
      </g>
     </g>
    </g>
    <g id="ytick_5">
     <g id="line2d_9">
      <path d="M 130.4045 118.693594 
L 800.0045 118.693594 
" clip-path="url(#p69c7cd8ac6)" style="fill: none; stroke: #cccccc; stroke-width: 0.8; stroke-linecap: round"/>
     </g>
     <g id="text_10">
      <!-- 800 -->
      <g style="fill: #262626" transform="translate(63.315 130.395188)scale(0.308 -0.308)">
       <defs>
        <path id="DejaVuSans-38" d="M 2034 2216 
Q 1584 2216 1326 1975 
Q 1069 1734 1069 1313 
Q 1069 891 1326 650 
Q 1584 409 2034 409 
Q 2484 409 2743 651 
Q 3003 894 3003 1313 
Q 3003 1734 2745 1975 
Q 2488 2216 2034 2216 
z
M 1403 2484 
Q 997 2584 770 2862 
Q 544 3141 544 3541 
Q 544 4100 942 4425 
Q 1341 4750 2034 4750 
Q 2731 4750 3128 4425 
Q 3525 4100 3525 3541 
Q 3525 3141 3298 2862 
Q 3072 2584 2669 2484 
Q 3125 2378 3379 2068 
Q 3634 1759 3634 1313 
Q 3634 634 3220 271 
Q 2806 -91 2034 -91 
Q 1263 -91 848 271 
Q 434 634 434 1313 
Q 434 1759 690 2068 
Q 947 2378 1403 2484 
z
M 1172 3481 
Q 1172 3119 1398 2916 
Q 1625 2713 2034 2713 
Q 2441 2713 2670 2916 
Q 2900 3119 2900 3481 
Q 2900 3844 2670 4047 
Q 2441 4250 2034 4250 
Q 1625 4250 1398 4047 
Q 1172 3844 1172 3481 
z
" transform="scale(0.015625)"/>
       </defs>
       <use xlink:href="#DejaVuSans-38"/>
       <use xlink:href="#DejaVuSans-30" x="63.623047"/>
       <use xlink:href="#DejaVuSans-30" x="127.246094"/>
      </g>
     </g>
    </g>
    <g id="ytick_6">
     <g id="line2d_10">
      <path d="M 130.4045 18.901594 
L 800.0045 18.901594 
" clip-path="url(#p69c7cd8ac6)" style="fill: none; stroke: #cccccc; stroke-width: 0.8; stroke-linecap: round"/>
     </g>
     <g id="text_11">
      <!-- 1000 -->
      <g style="fill: #262626" transform="translate(43.7185 30.603188)scale(0.308 -0.308)">
       <use xlink:href="#DejaVuSans-31"/>
       <use xlink:href="#DejaVuSans-30" x="63.623047"/>
       <use xlink:href="#DejaVuSans-30" x="127.246094"/>
       <use xlink:href="#DejaVuSans-30" x="190.869141"/>
      </g>
     </g>
    </g>
    <g id="text_12">
     <!-- Total # of instances solved -->
     <g style="fill: #262626" transform="translate(32.73075 493.808719)rotate(-90)scale(0.336 -0.336)">
      <defs>
       <path id="DejaVuSans-61" d="M 2194 1759 
Q 1497 1759 1228 1600 
Q 959 1441 959 1056 
Q 959 750 1161 570 
Q 1363 391 1709 391 
Q 2188 391 2477 730 
Q 2766 1069 2766 1631 
L 2766 1759 
L 2194 1759 
z
M 3341 1997 
L 3341 0 
L 2766 0 
L 2766 531 
Q 2569 213 2275 61 
Q 1981 -91 1556 -91 
Q 1019 -91 701 211 
Q 384 513 384 1019 
Q 384 1609 779 1909 
Q 1175 2209 1959 2209 
L 2766 2209 
L 2766 2266 
Q 2766 2663 2505 2880 
Q 2244 3097 1772 3097 
Q 1472 3097 1187 3025 
Q 903 2953 641 2809 
L 641 3341 
Q 956 3463 1253 3523 
Q 1550 3584 1831 3584 
Q 2591 3584 2966 3190 
Q 3341 2797 3341 1997 
z
" transform="scale(0.015625)"/>
       <path id="DejaVuSans-6c" d="M 603 4863 
L 1178 4863 
L 1178 0 
L 603 0 
L 603 4863 
z
" transform="scale(0.015625)"/>
       <path id="DejaVuSans-23" d="M 3272 2816 
L 2363 2816 
L 2100 1772 
L 3016 1772 
L 3272 2816 
z
M 2803 4594 
L 2478 3297 
L 3391 3297 
L 3719 4594 
L 4219 4594 
L 3897 3297 
L 4872 3297 
L 4872 2816 
L 3775 2816 
L 3519 1772 
L 4513 1772 
L 4513 1294 
L 3397 1294 
L 3072 0 
L 2572 0 
L 2894 1294 
L 1978 1294 
L 1656 0 
L 1153 0 
L 1478 1294 
L 494 1294 
L 494 1772 
L 1594 1772 
L 1856 2816 
L 850 2816 
L 850 3297 
L 1978 3297 
L 2297 4594 
L 2803 4594 
z
" transform="scale(0.015625)"/>
       <path id="DejaVuSans-6e" d="M 3513 2113 
L 3513 0 
L 2938 0 
L 2938 2094 
Q 2938 2591 2744 2837 
Q 2550 3084 2163 3084 
Q 1697 3084 1428 2787 
Q 1159 2491 1159 1978 
L 1159 0 
L 581 0 
L 581 3500 
L 1159 3500 
L 1159 2956 
Q 1366 3272 1645 3428 
Q 1925 3584 2291 3584 
Q 2894 3584 3203 3211 
Q 3513 2838 3513 2113 
z
" transform="scale(0.015625)"/>
       <path id="DejaVuSans-76" d="M 191 3500 
L 800 3500 
L 1894 563 
L 2988 3500 
L 3597 3500 
L 2284 0 
L 1503 0 
L 191 3500 
z
" transform="scale(0.015625)"/>
       <path id="DejaVuSans-64" d="M 2906 2969 
L 2906 4863 
L 3481 4863 
L 3481 0 
L 2906 0 
L 2906 525 
Q 2725 213 2448 61 
Q 2172 -91 1784 -91 
Q 1150 -91 751 415 
Q 353 922 353 1747 
Q 353 2572 751 3078 
Q 1150 3584 1784 3584 
Q 2172 3584 2448 3432 
Q 2725 3281 2906 2969 
z
M 947 1747 
Q 947 1113 1208 752 
Q 1469 391 1925 391 
Q 2381 391 2643 752 
Q 2906 1113 2906 1747 
Q 2906 2381 2643 2742 
Q 2381 3103 1925 3103 
Q 1469 3103 1208 2742 
Q 947 2381 947 1747 
z
" transform="scale(0.015625)"/>
      </defs>
      <use xlink:href="#DejaVuSans-54"/>
      <use xlink:href="#DejaVuSans-6f" x="44.083984"/>
      <use xlink:href="#DejaVuSans-74" x="105.265625"/>
      <use xlink:href="#DejaVuSans-61" x="144.474609"/>
      <use xlink:href="#DejaVuSans-6c" x="205.753906"/>
      <use xlink:href="#DejaVuSans-20" x="233.537109"/>
      <use xlink:href="#DejaVuSans-23" x="265.324219"/>
      <use xlink:href="#DejaVuSans-20" x="349.113281"/>
      <use xlink:href="#DejaVuSans-6f" x="380.900391"/>
      <use xlink:href="#DejaVuSans-66" x="442.082031"/>
      <use xlink:href="#DejaVuSans-20" x="477.287109"/>
      <use xlink:href="#DejaVuSans-69" x="509.074219"/>
      <use xlink:href="#DejaVuSans-6e" x="536.857422"/>
      <use xlink:href="#DejaVuSans-73" x="600.236328"/>
      <use xlink:href="#DejaVuSans-74" x="652.335938"/>
      <use xlink:href="#DejaVuSans-61" x="691.544922"/>
      <use xlink:href="#DejaVuSans-6e" x="752.824219"/>
      <use xlink:href="#DejaVuSans-63" x="816.203125"/>
      <use xlink:href="#DejaVuSans-65" x="871.183594"/>
      <use xlink:href="#DejaVuSans-73" x="932.707031"/>
      <use xlink:href="#DejaVuSans-20" x="984.806641"/>
      <use xlink:href="#DejaVuSans-73" x="1016.59375"/>
      <use xlink:href="#DejaVuSans-6f" x="1068.693359"/>
      <use xlink:href="#DejaVuSans-6c" x="1129.875"/>
      <use xlink:href="#DejaVuSans-76" x="1157.658203"/>
      <use xlink:href="#DejaVuSans-65" x="1216.837891"/>
      <use xlink:href="#DejaVuSans-64" x="1278.361328"/>
     </g>
    </g>
   </g>
   <g id="PolyCollection_1">
    <path d="M 130.4045 511.446394 
L 130.4045 514.155628 
L 130.6277 504.361954 
L 130.8509 497.005066 
L 131.0741 491.870314 
L 131.2973 487.524826 
L 131.5205 484.264954 
L 131.7437 480.689074 
L 131.9669 478.543546 
L 132.1901 476.447914 
L 132.4133 473.553946 
L 132.6365 468.852634 
L 132.8597 464.073706 
L 133.0829 458.235874 
L 133.3061 449.308829 
L 133.5293 438.970474 
L 133.7525 431.818714 
L 133.9757 427.050874 
L 134.1989 421.471594 
L 134.4221 416.786554 
L 134.6453 413.142364 
L 134.8685 409.032874 
L 135.0917 404.660044 
L 135.3149 401.021794 
L 135.5381 398.610154 
L 135.7613 397.362754 
L 135.9845 394.618474 
L 136.2077 391.042594 
L 136.4309 388.630954 
L 136.6541 386.884594 
L 136.8773 384.888754 
L 137.1005 382.892914 
L 137.3237 381.146554 
L 137.5469 379.749466 
L 137.7701 377.653834 
L 137.7701 376.655914 
L 137.7701 376.655914 
L 137.5469 378.551962 
L 137.3237 380.647594 
L 137.1005 381.894994 
L 136.8773 383.890834 
L 136.6541 385.886674 
L 136.4309 387.633034 
L 136.2077 389.709955 
L 135.9845 393.059224 
L 135.7613 396.364834 
L 135.5381 398.111194 
L 135.3149 399.691234 
L 135.0917 403.100794 
L 134.8685 407.258794 
L 134.6453 411.583114 
L 134.4221 415.360954 
L 134.1989 419.611834 
L 133.9757 425.100394 
L 133.7525 430.155514 
L 133.5293 436.530421 
L 133.3061 446.575395 
L 133.0829 456.168754 
L 132.8597 462.326098 
L 132.6365 467.078554 
L 132.4133 471.807586 
L 132.1901 475.449994 
L 131.9669 477.346042 
L 131.7437 479.691154 
L 131.5205 482.601754 
L 131.2973 486.327322 
L 131.0741 489.965194 
L 130.8509 495.308602 
L 130.6277 501.978034 
L 130.4045 511.446394 
z
" clip-path="url(#p69c7cd8ac6)" style="fill: #4c72b0; fill-opacity: 0.2; stroke: #4c72b0; stroke-opacity: 0.2; stroke-width: 0.8"/>
    <path d="M 138.2165 375.159034 
L 138.2165 375.657994 
L 138.4397 374.410594 
L 138.6629 371.728684 
L 138.8861 368.672554 
L 139.1093 367.425154 
L 139.3325 365.678794 
L 139.5557 364.431394 
L 139.7789 362.285866 
L 140.0021 360.190234 
L 140.2253 359.192314 
L 140.4485 358.194394 
L 140.4485 357.695434 
L 140.4485 357.695434 
L 140.2253 358.693354 
L 140.0021 359.691274 
L 139.7789 361.088362 
L 139.5557 363.433474 
L 139.3325 365.179834 
L 139.1093 366.427234 
L 138.8861 368.173594 
L 138.6629 370.105505 
L 138.4397 373.412674 
L 138.2165 375.159034 
z
" clip-path="url(#p69c7cd8ac6)" style="fill: #4c72b0; fill-opacity: 0.2; stroke: #4c72b0; stroke-opacity: 0.2; stroke-width: 0.8"/>
    <path d="M 140.8949 355.699594 
L 140.8949 356.697514 
L 141.1181 355.200634 
L 141.3413 354.202714 
L 141.5645 353.204794 
L 141.7877 351.957394 
L 142.0109 350.211034 
L 142.4573 348.714154 
L 142.4573 348.215194 
L 142.4573 348.215194 
L 142.0109 349.213114 
L 141.7877 350.959474 
L 141.5645 352.705834 
L 141.3413 353.703754 
L 141.1181 354.701674 
L 140.8949 355.699594 
z
" clip-path="url(#p69c7cd8ac6)" style="fill: #4c72b0; fill-opacity: 0.2; stroke: #4c72b0; stroke-opacity: 0.2; stroke-width: 0.8"/>
    <path d="M 142.9037 345.969874 
L 142.9037 346.967794 
L 142.9037 345.969874 
L 142.9037 345.969874 
z
" clip-path="url(#p69c7cd8ac6)" style="fill: #4c72b0; fill-opacity: 0.2; stroke: #4c72b0; stroke-opacity: 0.2; stroke-width: 0.8"/>
    <path d="M 143.5733 344.223514 
L 143.5733 344.722474 
L 143.7965 343.724554 
L 143.7965 343.225594 
L 143.7965 343.225594 
L 143.5733 344.223514 
z
" clip-path="url(#p69c7cd8ac6)" style="fill: #4c72b0; fill-opacity: 0.2; stroke: #4c72b0; stroke-opacity: 0.2; stroke-width: 0.8"/>
    <path d="M 144.2429 341.728714 
L 144.2429 342.227674 
L 144.2429 341.728714 
L 144.2429 341.728714 
z
" clip-path="url(#p69c7cd8ac6)" style="fill: #4c72b0; fill-opacity: 0.2; stroke: #4c72b0; stroke-opacity: 0.2; stroke-width: 0.8"/>
    <path d="M 144.9125 339.233914 
L 144.9125 340.231834 
L 144.9125 339.233914 
L 144.9125 339.233914 
z
" clip-path="url(#p69c7cd8ac6)" style="fill: #4c72b0; fill-opacity: 0.2; stroke: #4c72b0; stroke-opacity: 0.2; stroke-width: 0.8"/>
    <path d="M 146.6981 336.240154 
L 146.6981 336.739114 
L 146.9213 335.741194 
L 147.3677 334.743274 
L 147.3677 333.745354 
L 147.3677 333.745354 
L 146.9213 335.242234 
L 146.6981 336.240154 
z
" clip-path="url(#p69c7cd8ac6)" style="fill: #4c72b0; fill-opacity: 0.2; stroke: #4c72b0; stroke-opacity: 0.2; stroke-width: 0.8"/>
    <path d="M 148.9301 331.749514 
L 148.9301 332.747434 
L 148.9301 331.749514 
L 148.9301 331.749514 
z
" clip-path="url(#p69c7cd8ac6)" style="fill: #4c72b0; fill-opacity: 0.2; stroke: #4c72b0; stroke-opacity: 0.2; stroke-width: 0.8"/>
    <path d="M 150.0461 329.005234 
L 150.0461 330.003154 
L 150.0461 329.005234 
L 150.0461 329.005234 
z
" clip-path="url(#p69c7cd8ac6)" style="fill: #4c72b0; fill-opacity: 0.2; stroke: #4c72b0; stroke-opacity: 0.2; stroke-width: 0.8"/>
    <path d="M 150.4925 327.258874 
L 150.4925 327.757834 
L 150.7157 326.759914 
L 150.7157 325.761994 
L 150.7157 325.761994 
L 150.4925 327.258874 
z
" clip-path="url(#p69c7cd8ac6)" style="fill: #4c72b0; fill-opacity: 0.2; stroke: #4c72b0; stroke-opacity: 0.2; stroke-width: 0.8"/>
    <path d="M 152.9477 324.265114 
L 152.9477 324.764074 
L 153.6173 323.766154 
L 154.0637 322.768234 
L 154.0637 322.269274 
L 154.0637 322.269274 
L 153.6173 323.267194 
L 152.9477 324.265114 
z
" clip-path="url(#p69c7cd8ac6)" style="fill: #4c72b0; fill-opacity: 0.2; stroke: #4c72b0; stroke-opacity: 0.2; stroke-width: 0.8"/>
    <path d="M 154.9565 320.273434 
L 154.9565 320.772394 
L 154.9565 320.273434 
L 154.9565 320.273434 
z
" clip-path="url(#p69c7cd8ac6)" style="fill: #4c72b0; fill-opacity: 0.2; stroke: #4c72b0; stroke-opacity: 0.2; stroke-width: 0.8"/>
    <path d="M 159.4205 315.283834 
L 159.4205 315.782794 
L 159.4205 315.283834 
L 159.4205 315.283834 
z
" clip-path="url(#p69c7cd8ac6)" style="fill: #4c72b0; fill-opacity: 0.2; stroke: #4c72b0; stroke-opacity: 0.2; stroke-width: 0.8"/>
    <path d="M 160.3133 313.287994 
L 160.3133 313.786954 
L 160.3133 313.287994 
L 160.3133 313.287994 
z
" clip-path="url(#p69c7cd8ac6)" style="fill: #4c72b0; fill-opacity: 0.2; stroke: #4c72b0; stroke-opacity: 0.2; stroke-width: 0.8"/>
    <path d="M 162.7685 310.294234 
L 162.7685 310.793194 
L 162.7685 310.294234 
L 162.7685 310.294234 
z
" clip-path="url(#p69c7cd8ac6)" style="fill: #4c72b0; fill-opacity: 0.2; stroke: #4c72b0; stroke-opacity: 0.2; stroke-width: 0.8"/>
    <path d="M 168.1253 307.300474 
L 168.1253 308.298394 
L 168.1253 307.300474 
L 168.1253 307.300474 
z
" clip-path="url(#p69c7cd8ac6)" style="fill: #4c72b0; fill-opacity: 0.2; stroke: #4c72b0; stroke-opacity: 0.2; stroke-width: 0.8"/>
    <path d="M 172.8125 303.308794 
L 172.8125 303.807754 
L 172.8125 303.308794 
L 172.8125 303.308794 
z
" clip-path="url(#p69c7cd8ac6)" style="fill: #4c72b0; fill-opacity: 0.2; stroke: #4c72b0; stroke-opacity: 0.2; stroke-width: 0.8"/>
    <path d="M 178.1693 297.820234 
L 178.1693 298.319194 
L 178.1693 297.820234 
L 178.1693 297.820234 
z
" clip-path="url(#p69c7cd8ac6)" style="fill: #4c72b0; fill-opacity: 0.2; stroke: #4c72b0; stroke-opacity: 0.2; stroke-width: 0.8"/>
    <path d="M 182.4101 295.325434 
L 182.4101 295.824394 
L 182.4101 295.325434 
L 182.4101 295.325434 
z
" clip-path="url(#p69c7cd8ac6)" style="fill: #4c72b0; fill-opacity: 0.2; stroke: #4c72b0; stroke-opacity: 0.2; stroke-width: 0.8"/>
    <path d="M 184.8653 293.828554 
L 184.8653 294.327514 
L 185.3117 293.329594 
L 185.3117 292.830634 
L 185.3117 292.830634 
L 184.8653 293.828554 
z
" clip-path="url(#p69c7cd8ac6)" style="fill: #4c72b0; fill-opacity: 0.2; stroke: #4c72b0; stroke-opacity: 0.2; stroke-width: 0.8"/>
    <path d="M 191.7845 290.834794 
L 191.7845 291.333754 
L 191.7845 290.834794 
L 191.7845 290.834794 
z
" clip-path="url(#p69c7cd8ac6)" style="fill: #4c72b0; fill-opacity: 0.2; stroke: #4c72b0; stroke-opacity: 0.2; stroke-width: 0.8"/>
    <path d="M 195.1325 287.841034 
L 195.1325 288.339994 
L 196.0253 287.342074 
L 196.0253 286.843114 
L 196.0253 286.843114 
L 195.1325 287.841034 
z
" clip-path="url(#p69c7cd8ac6)" style="fill: #4c72b0; fill-opacity: 0.2; stroke: #4c72b0; stroke-opacity: 0.2; stroke-width: 0.8"/>
    <path d="M 208.0781 279.857674 
L 208.0781 280.356634 
L 208.0781 279.857674 
L 208.0781 279.857674 
z
" clip-path="url(#p69c7cd8ac6)" style="fill: #4c72b0; fill-opacity: 0.2; stroke: #4c72b0; stroke-opacity: 0.2; stroke-width: 0.8"/>
    <path d="M 216.1133 275.865994 
L 216.1133 276.364954 
L 216.1133 275.865994 
L 216.1133 275.865994 
z
" clip-path="url(#p69c7cd8ac6)" style="fill: #4c72b0; fill-opacity: 0.2; stroke: #4c72b0; stroke-opacity: 0.2; stroke-width: 0.8"/>
    <path d="M 240.6653 268.880554 
L 240.6653 269.379514 
L 241.5581 268.381594 
L 243.3437 267.383674 
L 243.3437 266.884714 
L 243.3437 266.884714 
L 241.5581 267.882634 
L 240.6653 268.880554 
z
" clip-path="url(#p69c7cd8ac6)" style="fill: #4c72b0; fill-opacity: 0.2; stroke: #4c72b0; stroke-opacity: 0.2; stroke-width: 0.8"/>
    <path d="M 283.7429 256.406554 
L 283.7429 256.905514 
L 283.7429 256.406554 
L 283.7429 256.406554 
z
" clip-path="url(#p69c7cd8ac6)" style="fill: #4c72b0; fill-opacity: 0.2; stroke: #4c72b0; stroke-opacity: 0.2; stroke-width: 0.8"/>
    <path d="M 291.1085 253.412794 
L 291.1085 253.911754 
L 291.1085 253.412794 
L 291.1085 253.412794 
z
" clip-path="url(#p69c7cd8ac6)" style="fill: #4c72b0; fill-opacity: 0.2; stroke: #4c72b0; stroke-opacity: 0.2; stroke-width: 0.8"/>
    <path d="M 300.7061 250.917994 
L 300.7061 251.416954 
L 300.7061 250.917994 
L 300.7061 250.917994 
z
" clip-path="url(#p69c7cd8ac6)" style="fill: #4c72b0; fill-opacity: 0.2; stroke: #4c72b0; stroke-opacity: 0.2; stroke-width: 0.8"/>
    <path d="M 316.3301 244.930474 
L 316.3301 245.429434 
L 316.3301 244.930474 
L 316.3301 244.930474 
z
" clip-path="url(#p69c7cd8ac6)" style="fill: #4c72b0; fill-opacity: 0.2; stroke: #4c72b0; stroke-opacity: 0.2; stroke-width: 0.8"/>
    <path d="M 329.0525 241.437754 
L 329.0525 241.936714 
L 329.0525 241.437754 
L 329.0525 241.437754 
z
" clip-path="url(#p69c7cd8ac6)" style="fill: #4c72b0; fill-opacity: 0.2; stroke: #4c72b0; stroke-opacity: 0.2; stroke-width: 0.8"/>
    <path d="M 355.3901 235.450234 
L 355.3901 235.949194 
L 355.3901 235.450234 
L 355.3901 235.450234 
z
" clip-path="url(#p69c7cd8ac6)" style="fill: #4c72b0; fill-opacity: 0.2; stroke: #4c72b0; stroke-opacity: 0.2; stroke-width: 0.8"/>
    <path d="M 377.7101 227.466874 
L 377.7101 227.965834 
L 377.7101 227.466874 
L 377.7101 227.466874 
z
" clip-path="url(#p69c7cd8ac6)" style="fill: #4c72b0; fill-opacity: 0.2; stroke: #4c72b0; stroke-opacity: 0.2; stroke-width: 0.8"/>
    <path d="M 451.1429 206.510554 
L 451.1429 207.009514 
L 451.1429 206.510554 
L 451.1429 206.510554 
z
" clip-path="url(#p69c7cd8ac6)" style="fill: #4c72b0; fill-opacity: 0.2; stroke: #4c72b0; stroke-opacity: 0.2; stroke-width: 0.8"/>
    <path d="M 456.0533 203.017834 
L 456.0533 203.516794 
L 456.0533 203.017834 
L 456.0533 203.017834 
z
" clip-path="url(#p69c7cd8ac6)" style="fill: #4c72b0; fill-opacity: 0.2; stroke: #4c72b0; stroke-opacity: 0.2; stroke-width: 0.8"/>
    <path d="M 508.0589 191.541754 
L 508.0589 192.040714 
L 508.0589 191.541754 
L 508.0589 191.541754 
z
" clip-path="url(#p69c7cd8ac6)" style="fill: #4c72b0; fill-opacity: 0.2; stroke: #4c72b0; stroke-opacity: 0.2; stroke-width: 0.8"/>
    <path d="M 521.0045 187.550074 
L 521.0045 188.049034 
L 521.0045 187.550074 
L 521.0045 187.550074 
z
" clip-path="url(#p69c7cd8ac6)" style="fill: #4c72b0; fill-opacity: 0.2; stroke: #4c72b0; stroke-opacity: 0.2; stroke-width: 0.8"/>
    <path d="M 544.6637 182.560474 
L 544.6637 183.059434 
L 544.6637 182.560474 
L 544.6637 182.560474 
z
" clip-path="url(#p69c7cd8ac6)" style="fill: #4c72b0; fill-opacity: 0.2; stroke: #4c72b0; stroke-opacity: 0.2; stroke-width: 0.8"/>
    <path d="M 578.1437 173.080234 
L 578.1437 173.579194 
L 578.1437 173.080234 
L 578.1437 173.080234 
z
" clip-path="url(#p69c7cd8ac6)" style="fill: #4c72b0; fill-opacity: 0.2; stroke: #4c72b0; stroke-opacity: 0.2; stroke-width: 0.8"/>
    <path d="M 580.5989 171.583354 
L 580.5989 172.082314 
L 580.5989 171.583354 
L 580.5989 171.583354 
z
" clip-path="url(#p69c7cd8ac6)" style="fill: #4c72b0; fill-opacity: 0.2; stroke: #4c72b0; stroke-opacity: 0.2; stroke-width: 0.8"/>
    <path d="M 584.8397 169.587514 
L 584.8397 170.086474 
L 584.8397 169.587514 
L 584.8397 169.587514 
z
" clip-path="url(#p69c7cd8ac6)" style="fill: #4c72b0; fill-opacity: 0.2; stroke: #4c72b0; stroke-opacity: 0.2; stroke-width: 0.8"/>
    <path d="M 687.9581 147.134314 
L 687.9581 147.633274 
L 687.9581 147.134314 
L 687.9581 147.134314 
z
" clip-path="url(#p69c7cd8ac6)" style="fill: #4c72b0; fill-opacity: 0.2; stroke: #4c72b0; stroke-opacity: 0.2; stroke-width: 0.8"/>
    <path d="M 707.1533 144.639514 
L 707.1533 145.138474 
L 707.1533 144.639514 
L 707.1533 144.639514 
z
" clip-path="url(#p69c7cd8ac6)" style="fill: #4c72b0; fill-opacity: 0.2; stroke: #4c72b0; stroke-opacity: 0.2; stroke-width: 0.8"/>
    <path d="M 776.5685 131.666554 
L 776.5685 132.165514 
L 776.5685 131.666554 
L 776.5685 131.666554 
z
" clip-path="url(#p69c7cd8ac6)" style="fill: #4c72b0; fill-opacity: 0.2; stroke: #4c72b0; stroke-opacity: 0.2; stroke-width: 0.8"/>
   </g>
   <g id="PolyCollection_2">
    <path d="M 130.4045 513.869914 
L 130.4045 515.827372 
L 130.6277 508.557457 
L 130.8509 501.728554 
L 131.0741 498.402154 
L 131.2973 496.406314 
L 131.5205 493.828354 
L 131.7437 491.291974 
L 131.9669 489.420874 
L 132.1901 487.674514 
L 132.1901 486.551854 
L 132.1901 486.551854 
L 131.9669 488.422954 
L 131.7437 490.169314 
L 131.5205 492.497794 
L 131.2973 495.308602 
L 131.0741 497.404234 
L 130.8509 500.065354 
L 130.6277 506.121358 
L 130.4045 513.869914 
z
" clip-path="url(#p69c7cd8ac6)" style="fill: #dd8452; fill-opacity: 0.2; stroke: #dd8452; stroke-opacity: 0.2; stroke-width: 0.8"/>
    <path d="M 132.6365 484.181794 
L 132.6365 485.179714 
L 132.6365 484.181794 
L 132.6365 484.181794 
z
" clip-path="url(#p69c7cd8ac6)" style="fill: #dd8452; fill-opacity: 0.2; stroke: #dd8452; stroke-opacity: 0.2; stroke-width: 0.8"/>
    <path d="M 133.0829 481.337722 
L 133.0829 482.535226 
L 133.3061 480.439594 
L 133.3061 479.441674 
L 133.3061 479.441674 
L 133.0829 481.337722 
z
" clip-path="url(#p69c7cd8ac6)" style="fill: #dd8452; fill-opacity: 0.2; stroke: #dd8452; stroke-opacity: 0.2; stroke-width: 0.8"/>
    <path d="M 133.7525 477.944794 
L 133.7525 478.443754 
L 133.9757 477.445834 
L 134.1989 476.281594 
L 134.4221 474.951034 
L 134.4221 474.452074 
L 134.4221 474.452074 
L 134.1989 475.449994 
L 133.9757 476.946874 
L 133.7525 477.944794 
z
" clip-path="url(#p69c7cd8ac6)" style="fill: #dd8452; fill-opacity: 0.2; stroke: #dd8452; stroke-opacity: 0.2; stroke-width: 0.8"/>
    <path d="M 135.3149 472.955194 
L 135.3149 473.454154 
L 135.7613 472.456234 
L 135.9845 471.458314 
L 135.9845 470.959354 
L 135.9845 470.959354 
L 135.7613 471.957274 
L 135.3149 472.955194 
z
" clip-path="url(#p69c7cd8ac6)" style="fill: #dd8452; fill-opacity: 0.2; stroke: #dd8452; stroke-opacity: 0.2; stroke-width: 0.8"/>
    <path d="M 136.6541 469.462474 
L 136.6541 469.961434 
L 136.8773 468.714034 
L 137.1005 466.967674 
L 137.1005 466.468714 
L 137.1005 466.468714 
L 136.8773 467.716114 
L 136.6541 469.462474 
z
" clip-path="url(#p69c7cd8ac6)" style="fill: #dd8452; fill-opacity: 0.2; stroke: #dd8452; stroke-opacity: 0.2; stroke-width: 0.8"/>
    <path d="M 138.4397 463.724434 
L 138.4397 464.722354 
L 138.4397 463.724434 
L 138.4397 463.724434 
z
" clip-path="url(#p69c7cd8ac6)" style="fill: #dd8452; fill-opacity: 0.2; stroke: #dd8452; stroke-opacity: 0.2; stroke-width: 0.8"/>
    <path d="M 139.1093 461.978074 
L 139.1093 462.477034 
L 139.1093 461.978074 
L 139.1093 461.978074 
z
" clip-path="url(#p69c7cd8ac6)" style="fill: #dd8452; fill-opacity: 0.2; stroke: #dd8452; stroke-opacity: 0.2; stroke-width: 0.8"/>
    <path d="M 140.0021 459.982234 
L 140.0021 460.481194 
L 140.0021 459.982234 
L 140.0021 459.982234 
z
" clip-path="url(#p69c7cd8ac6)" style="fill: #dd8452; fill-opacity: 0.2; stroke: #dd8452; stroke-opacity: 0.2; stroke-width: 0.8"/>
    <path d="M 140.8949 458.485354 
L 140.8949 458.984314 
L 140.8949 458.485354 
L 140.8949 458.485354 
z
" clip-path="url(#p69c7cd8ac6)" style="fill: #dd8452; fill-opacity: 0.2; stroke: #dd8452; stroke-opacity: 0.2; stroke-width: 0.8"/>
    <path d="M 142.2341 455.491594 
L 142.2341 455.990554 
L 142.4573 454.992634 
L 142.4573 454.493674 
L 142.4573 454.493674 
L 142.2341 455.491594 
z
" clip-path="url(#p69c7cd8ac6)" style="fill: #dd8452; fill-opacity: 0.2; stroke: #dd8452; stroke-opacity: 0.2; stroke-width: 0.8"/>
    <path d="M 144.6893 451.499914 
L 144.6893 451.998874 
L 144.6893 451.499914 
L 144.6893 451.499914 
z
" clip-path="url(#p69c7cd8ac6)" style="fill: #dd8452; fill-opacity: 0.2; stroke: #dd8452; stroke-opacity: 0.2; stroke-width: 0.8"/>
    <path d="M 146.9213 448.506154 
L 146.9213 449.005114 
L 146.9213 448.506154 
L 146.9213 448.506154 
z
" clip-path="url(#p69c7cd8ac6)" style="fill: #dd8452; fill-opacity: 0.2; stroke: #dd8452; stroke-opacity: 0.2; stroke-width: 0.8"/>
    <path d="M 148.0373 446.510314 
L 148.0373 447.009274 
L 148.0373 446.510314 
L 148.0373 446.510314 
z
" clip-path="url(#p69c7cd8ac6)" style="fill: #dd8452; fill-opacity: 0.2; stroke: #dd8452; stroke-opacity: 0.2; stroke-width: 0.8"/>
    <path d="M 148.7069 445.013434 
L 148.7069 445.512394 
L 148.7069 445.013434 
L 148.7069 445.013434 
z
" clip-path="url(#p69c7cd8ac6)" style="fill: #dd8452; fill-opacity: 0.2; stroke: #dd8452; stroke-opacity: 0.2; stroke-width: 0.8"/>
    <path d="M 152.2781 442.019674 
L 152.2781 443.017594 
L 152.2781 442.019674 
L 152.2781 442.019674 
z
" clip-path="url(#p69c7cd8ac6)" style="fill: #dd8452; fill-opacity: 0.2; stroke: #dd8452; stroke-opacity: 0.2; stroke-width: 0.8"/>
    <path d="M 153.1709 440.522794 
L 153.1709 441.021754 
L 153.1709 440.522794 
L 153.1709 440.522794 
z
" clip-path="url(#p69c7cd8ac6)" style="fill: #dd8452; fill-opacity: 0.2; stroke: #dd8452; stroke-opacity: 0.2; stroke-width: 0.8"/>
    <path d="M 154.5101 438.526954 
L 154.5101 439.025914 
L 154.5101 438.526954 
L 154.5101 438.526954 
z
" clip-path="url(#p69c7cd8ac6)" style="fill: #dd8452; fill-opacity: 0.2; stroke: #dd8452; stroke-opacity: 0.2; stroke-width: 0.8"/>
    <path d="M 156.9653 436.032154 
L 156.9653 436.531114 
L 156.9653 436.032154 
L 156.9653 436.032154 
z
" clip-path="url(#p69c7cd8ac6)" style="fill: #dd8452; fill-opacity: 0.2; stroke: #dd8452; stroke-opacity: 0.2; stroke-width: 0.8"/>
    <path d="M 158.0813 434.036314 
L 158.0813 434.535274 
L 158.3045 433.537354 
L 158.3045 433.038394 
L 158.3045 433.038394 
L 158.0813 434.036314 
z
" clip-path="url(#p69c7cd8ac6)" style="fill: #dd8452; fill-opacity: 0.2; stroke: #dd8452; stroke-opacity: 0.2; stroke-width: 0.8"/>
    <path d="M 159.4205 431.541514 
L 159.4205 432.040474 
L 159.4205 431.541514 
L 159.4205 431.541514 
z
" clip-path="url(#p69c7cd8ac6)" style="fill: #dd8452; fill-opacity: 0.2; stroke: #dd8452; stroke-opacity: 0.2; stroke-width: 0.8"/>
    <path d="M 165.4469 427.050874 
L 165.4469 427.549834 
L 165.4469 427.050874 
L 165.4469 427.050874 
z
" clip-path="url(#p69c7cd8ac6)" style="fill: #dd8452; fill-opacity: 0.2; stroke: #dd8452; stroke-opacity: 0.2; stroke-width: 0.8"/>
    <path d="M 169.9109 423.059194 
L 169.9109 423.558154 
L 169.9109 423.059194 
L 169.9109 423.059194 
z
" clip-path="url(#p69c7cd8ac6)" style="fill: #dd8452; fill-opacity: 0.2; stroke: #dd8452; stroke-opacity: 0.2; stroke-width: 0.8"/>
    <path d="M 183.3029 415.574794 
L 183.3029 416.073754 
L 183.3029 415.574794 
L 183.3029 415.574794 
z
" clip-path="url(#p69c7cd8ac6)" style="fill: #dd8452; fill-opacity: 0.2; stroke: #dd8452; stroke-opacity: 0.2; stroke-width: 0.8"/>
    <path d="M 194.2397 409.587274 
L 194.2397 410.086234 
L 194.2397 409.587274 
L 194.2397 409.587274 
z
" clip-path="url(#p69c7cd8ac6)" style="fill: #dd8452; fill-opacity: 0.2; stroke: #dd8452; stroke-opacity: 0.2; stroke-width: 0.8"/>
    <path d="M 195.3557 407.092474 
L 195.3557 407.591434 
L 195.3557 407.092474 
L 195.3557 407.092474 
z
" clip-path="url(#p69c7cd8ac6)" style="fill: #dd8452; fill-opacity: 0.2; stroke: #dd8452; stroke-opacity: 0.2; stroke-width: 0.8"/>
    <path d="M 198.2573 405.096634 
L 198.2573 405.595594 
L 198.2573 405.096634 
L 198.2573 405.096634 
z
" clip-path="url(#p69c7cd8ac6)" style="fill: #dd8452; fill-opacity: 0.2; stroke: #dd8452; stroke-opacity: 0.2; stroke-width: 0.8"/>
    <path d="M 214.5509 398.610154 
L 214.5509 399.109114 
L 214.5509 398.610154 
L 214.5509 398.610154 
z
" clip-path="url(#p69c7cd8ac6)" style="fill: #dd8452; fill-opacity: 0.2; stroke: #dd8452; stroke-opacity: 0.2; stroke-width: 0.8"/>
    <path d="M 240.2189 389.129914 
L 240.2189 389.628874 
L 240.6653 388.630954 
L 240.6653 388.131994 
L 240.6653 388.131994 
L 240.2189 389.129914 
z
" clip-path="url(#p69c7cd8ac6)" style="fill: #dd8452; fill-opacity: 0.2; stroke: #dd8452; stroke-opacity: 0.2; stroke-width: 0.8"/>
    <path d="M 256.0661 383.142394 
L 256.0661 383.641354 
L 256.0661 383.142394 
L 256.0661 383.142394 
z
" clip-path="url(#p69c7cd8ac6)" style="fill: #dd8452; fill-opacity: 0.2; stroke: #dd8452; stroke-opacity: 0.2; stroke-width: 0.8"/>
    <path d="M 259.6373 380.148634 
L 259.6373 380.647594 
L 259.6373 380.148634 
L 259.6373 380.148634 
z
" clip-path="url(#p69c7cd8ac6)" style="fill: #dd8452; fill-opacity: 0.2; stroke: #dd8452; stroke-opacity: 0.2; stroke-width: 0.8"/>
    <path d="M 267.0029 378.152794 
L 267.0029 378.651754 
L 267.0029 378.152794 
L 267.0029 378.152794 
z
" clip-path="url(#p69c7cd8ac6)" style="fill: #dd8452; fill-opacity: 0.2; stroke: #dd8452; stroke-opacity: 0.2; stroke-width: 0.8"/>
    <path d="M 288.6533 374.660074 
L 288.6533 375.159034 
L 288.6533 374.660074 
L 288.6533 374.660074 
z
" clip-path="url(#p69c7cd8ac6)" style="fill: #dd8452; fill-opacity: 0.2; stroke: #dd8452; stroke-opacity: 0.2; stroke-width: 0.8"/>
    <path d="M 306.7325 369.670474 
L 306.7325 370.169434 
L 306.7325 369.670474 
L 306.7325 369.670474 
z
" clip-path="url(#p69c7cd8ac6)" style="fill: #dd8452; fill-opacity: 0.2; stroke: #dd8452; stroke-opacity: 0.2; stroke-width: 0.8"/>
    <path d="M 429.7157 351.707914 
L 429.7157 352.206874 
L 429.7157 351.707914 
L 429.7157 351.707914 
z
" clip-path="url(#p69c7cd8ac6)" style="fill: #dd8452; fill-opacity: 0.2; stroke: #dd8452; stroke-opacity: 0.2; stroke-width: 0.8"/>
    <path d="M 585.5093 334.743274 
L 585.5093 335.242234 
L 585.5093 334.743274 
L 585.5093 334.743274 
z
" clip-path="url(#p69c7cd8ac6)" style="fill: #dd8452; fill-opacity: 0.2; stroke: #dd8452; stroke-opacity: 0.2; stroke-width: 0.8"/>
    <path d="M 679.2533 327.258874 
L 679.2533 327.757834 
L 679.2533 327.258874 
L 679.2533 327.258874 
z
" clip-path="url(#p69c7cd8ac6)" style="fill: #dd8452; fill-opacity: 0.2; stroke: #dd8452; stroke-opacity: 0.2; stroke-width: 0.8"/>
   </g>
   <g id="line2d_11">
    <path d="M 130.4045 512.871994 
L 130.8509 496.156834 
L 131.2973 486.926074 
L 131.9669 477.944794 
L 132.1901 475.948954 
L 132.6365 467.965594 
L 133.0829 457.237954 
L 133.7525 431.042554 
L 134.8685 408.090394 
L 135.3149 400.356514 
L 135.9845 393.870034 
L 136.4309 388.131994 
L 137.9933 376.156954 
L 138.2165 375.408514 
L 138.4397 373.911634 
L 138.8861 368.423074 
L 139.7789 361.687114 
L 140.2253 358.942834 
L 141.7877 351.458434 
L 142.0109 349.712074 
L 142.6805 347.716234 
L 143.1269 345.221434 
L 143.5733 344.472994 
L 144.2429 341.978194 
L 145.1357 338.734954 
L 145.5821 338.235994 
L 145.8053 337.737034 
L 146.2517 337.238074 
L 146.6981 336.489634 
L 146.9213 335.491714 
L 147.3677 334.244314 
L 148.7069 333.246394 
L 149.1533 331.250554 
L 149.5997 330.751594 
L 150.0461 329.504194 
L 150.7157 326.260954 
L 151.1621 325.263034 
L 152.9477 324.514594 
L 153.6173 323.516674 
L 155.4029 319.774474 
L 156.9653 319.275514 
L 157.1885 318.776554 
L 158.0813 317.778634 
L 158.3045 317.279674 
L 158.9741 316.780714 
L 160.7597 312.789034 
L 161.6525 311.791114 
L 161.8757 311.292154 
L 162.7685 310.543714 
L 165.0005 309.795274 
L 165.2237 309.296314 
L 168.1253 307.799434 
L 168.3485 306.801514 
L 169.2413 306.302554 
L 169.4645 305.803594 
L 170.1341 305.304634 
L 170.3573 304.805674 
L 171.0269 304.306714 
L 172.8125 303.558274 
L 173.0357 302.809834 
L 174.8213 301.811914 
L 176.3837 301.312954 
L 176.6069 300.813994 
L 177.0533 300.315034 
L 177.4997 299.317114 
L 177.9461 298.818154 
L 178.1693 298.069714 
L 179.0621 297.321274 
L 179.9549 296.822314 
L 182.1869 296.323354 
L 182.4101 295.574914 
L 184.1957 294.826474 
L 184.8653 294.078034 
L 185.3117 293.080114 
L 189.3293 292.331674 
L 189.5525 291.832714 
L 191.7845 291.084274 
L 193.5701 290.335834 
L 193.7933 289.836874 
L 194.6861 289.337914 
L 195.1325 288.090514 
L 196.0253 287.092594 
L 199.1501 286.344154 
L 200.2661 285.845194 
L 200.4893 285.346234 
L 203.3909 284.348314 
L 203.6141 283.849354 
L 204.5069 283.350394 
L 204.9533 282.851434 
L 205.1765 282.352474 
L 205.8461 281.853514 
L 207.8549 280.855594 
L 208.0781 280.107154 
L 208.9709 279.358714 
L 210.5333 278.859754 
L 212.5421 278.360794 
L 213.4349 277.861834 
L 214.9973 277.362874 
L 216.1133 276.115474 
L 218.7917 275.367034 
L 221.9165 274.868074 
L 222.8093 274.369114 
L 223.7021 273.371194 
L 225.2645 272.872234 
L 227.7197 271.874314 
L 234.8621 270.876394 
L 235.5317 270.377434 
L 240.6653 269.130034 
L 241.5581 268.132114 
L 244.9061 266.385754 
L 251.1557 265.886794 
L 254.7269 265.387834 
L 254.9501 264.888874 
L 257.6285 264.389914 
L 257.8517 263.890954 
L 259.6373 262.893034 
L 259.8605 262.394074 
L 260.7533 261.895114 
L 262.0925 261.396154 
L 264.1013 260.398234 
L 266.5565 259.899274 
L 270.1277 259.400314 
L 275.2613 258.402394 
L 277.4933 257.903434 
L 280.8413 257.404474 
L 283.7429 256.656034 
L 285.0821 255.907594 
L 287.3141 255.408634 
L 287.5373 254.909674 
L 290.8853 254.410714 
L 291.1085 253.662274 
L 297.1349 252.414874 
L 297.3581 251.915914 
L 300.7061 251.167474 
L 302.0453 250.419034 
L 303.6077 249.920074 
L 303.8309 249.421114 
L 307.6253 248.922154 
L 308.7413 248.423194 
L 310.7501 246.926314 
L 311.1965 246.427354 
L 312.7589 245.928394 
L 316.3301 245.179954 
L 317.6693 244.431514 
L 320.3477 243.433594 
L 323.9189 242.934634 
L 324.3653 242.435674 
L 329.0525 241.687234 
L 329.9453 240.938794 
L 332.4005 240.439834 
L 334.8557 239.441914 
L 336.8645 238.942954 
L 342.8909 238.443994 
L 345.7925 237.945034 
L 350.2565 237.446074 
L 351.8189 236.947114 
L 352.2653 236.448154 
L 355.3901 235.699714 
L 355.8365 234.951274 
L 358.2917 234.452314 
L 359.6309 233.953354 
L 360.5237 233.454394 
L 360.7469 232.955434 
L 362.3093 232.456474 
L 363.4253 231.957514 
L 365.2109 231.458554 
L 371.0141 230.460634 
L 371.4605 229.961674 
L 373.6925 229.462714 
L 373.9157 228.963754 
L 375.7013 228.464794 
L 377.7101 227.716354 
L 378.8261 226.967914 
L 384.8525 226.468954 
L 387.3077 225.471034 
L 392.2181 224.972074 
L 394.2269 224.473114 
L 394.4501 223.974154 
L 395.3429 223.475194 
L 395.5661 222.976234 
L 396.9053 222.477274 
L 397.7981 221.978314 
L 400.6997 221.479354 
L 404.0477 220.481434 
L 404.4941 219.982474 
L 405.1637 219.483514 
L 410.5205 217.986634 
L 413.6453 217.487674 
L 423.9125 216.988714 
L 424.3589 216.489754 
L 424.8053 215.491834 
L 426.1445 214.992874 
L 427.0373 214.493914 
L 427.2605 213.994954 
L 429.0461 213.495994 
L 429.7157 212.997034 
L 429.9389 212.498074 
L 440.8757 211.999114 
L 441.7685 211.500154 
L 441.9917 211.001194 
L 444.2237 210.003274 
L 444.8933 209.504314 
L 447.1253 209.005354 
L 447.5717 208.506394 
L 450.2501 208.007434 
L 450.6965 207.508474 
L 451.1429 206.760034 
L 451.5893 205.512634 
L 454.9373 204.514714 
L 455.1605 204.015754 
L 456.0533 203.267314 
L 458.2853 202.518874 
L 460.5173 202.019914 
L 462.3029 201.021994 
L 464.9813 200.523034 
L 474.8021 200.024074 
L 475.6949 199.525114 
L 479.0429 198.527194 
L 480.1589 198.028234 
L 487.0781 197.030314 
L 491.7653 196.531354 
L 492.4349 196.032394 
L 496.6757 195.533434 
L 497.7917 195.034474 
L 498.2381 194.535514 
L 501.1397 193.537594 
L 503.8181 193.038634 
L 508.0589 191.791234 
L 508.2821 191.042794 
L 510.5141 190.543834 
L 511.6301 190.044874 
L 512.0765 189.545914 
L 520.5581 188.547994 
L 521.0045 187.799554 
L 527.0309 186.552154 
L 532.6109 186.053194 
L 533.2805 185.554234 
L 536.6285 185.055274 
L 537.9677 184.556314 
L 538.1909 184.057354 
L 544.4405 183.558394 
L 544.6637 182.809954 
L 550.4669 182.061514 
L 550.6901 181.562554 
L 554.2613 181.063594 
L 556.4933 180.564634 
L 559.3949 180.065674 
L 560.7341 179.566714 
L 561.6269 179.067754 
L 562.0733 178.568794 
L 566.0909 178.069834 
L 566.3141 177.570874 
L 566.9837 177.071914 
L 567.4301 176.572954 
L 568.7693 176.073994 
L 568.9925 175.575034 
L 571.0013 174.577114 
L 575.6885 174.078154 
L 578.1437 173.329714 
L 578.8133 172.581274 
L 580.5989 171.832834 
L 584.1701 171.084394 
L 585.0629 169.088554 
L 587.7413 168.589594 
L 589.7501 168.090634 
L 595.1069 167.092714 
L 599.3477 166.094794 
L 600.2405 165.595834 
L 602.0261 165.096874 
L 607.1597 164.098954 
L 610.2845 163.599994 
L 610.7309 163.101034 
L 611.4005 162.602074 
L 614.7485 162.103114 
L 616.3109 161.604154 
L 621.4445 161.105194 
L 623.0069 160.606234 
L 624.1229 160.107274 
L 625.6853 159.608314 
L 627.9173 159.109354 
L 633.4973 158.610394 
L 633.9437 158.111434 
L 638.4077 157.113514 
L 643.0949 156.614554 
L 645.3269 155.616634 
L 650.0141 154.618714 
L 650.4605 154.119754 
L 652.9157 153.620794 
L 666.0845 152.123914 
L 672.3341 151.125994 
L 672.5573 150.627034 
L 674.1197 150.128074 
L 674.3429 149.629114 
L 684.1637 148.631194 
L 685.2797 148.132234 
L 690.8597 146.635354 
L 703.1357 146.136394 
L 704.9213 145.637434 
L 707.1533 144.888994 
L 715.6349 144.140554 
L 723.8933 143.142634 
L 725.2325 142.643674 
L 728.1341 142.144714 
L 729.6965 141.645754 
L 737.9549 141.146794 
L 738.4013 140.148874 
L 739.0709 139.649914 
L 740.6333 139.150954 
L 741.3029 138.651994 
L 744.4277 138.153034 
L 745.5437 137.654074 
L 745.7669 137.155114 
L 750.2309 136.656154 
L 755.5877 135.658234 
L 767.1941 134.660314 
L 767.8637 134.161354 
L 770.5421 133.662394 
L 770.9885 133.163434 
L 774.1133 132.664474 
L 776.5685 131.916034 
L 795.9869 130.169674 
L 798.2189 129.171754 
L 798.2189 129.171754 
" clip-path="url(#p69c7cd8ac6)" style="fill: none; stroke: #4c72b0; stroke-width: 2.5; stroke-linecap: round"/>
   </g>
   <g id="line2d_12">
    <path d="M 130.4045 514.867834 
L 130.8509 500.896954 
L 131.5205 493.163074 
L 131.9669 488.921914 
L 132.4133 485.928154 
L 133.0829 481.936474 
L 133.5293 478.942714 
L 133.9757 477.196354 
L 134.6453 473.953114 
L 135.3149 473.204674 
L 135.7613 472.206754 
L 135.9845 471.208834 
L 136.4309 470.460394 
L 136.6541 469.711954 
L 137.3237 465.969754 
L 138.2165 465.470794 
L 138.4397 464.223394 
L 139.5557 460.980154 
L 140.0021 460.231714 
L 140.6717 459.483274 
L 140.8949 458.734834 
L 141.5645 457.487434 
L 142.2341 455.741074 
L 142.4573 454.743154 
L 143.1269 453.994714 
L 144.0197 453.495754 
L 145.1357 451.000954 
L 146.0285 450.501994 
L 146.2517 450.003034 
L 146.6981 449.504074 
L 147.3677 447.508234 
L 148.0373 446.759794 
L 148.4837 446.011354 
L 148.7069 445.262914 
L 149.3765 444.514474 
L 151.3853 443.516554 
L 152.2781 442.518634 
L 153.3941 440.023834 
L 154.0637 439.524874 
L 154.5101 438.776434 
L 154.7333 438.027994 
L 155.4029 437.529034 
L 155.6261 437.030074 
L 156.9653 436.281634 
L 157.4117 435.533194 
L 157.8581 435.034234 
L 158.3045 433.287874 
L 158.7509 432.539434 
L 160.0901 431.042554 
L 162.0989 430.044634 
L 162.3221 429.545674 
L 163.4381 429.046714 
L 163.6613 428.547754 
L 165.2237 428.048794 
L 165.4469 427.300354 
L 166.3397 426.551914 
L 167.9021 426.052954 
L 168.3485 425.055034 
L 169.2413 424.556074 
L 169.6877 424.057114 
L 169.9109 423.308674 
L 171.4733 422.560234 
L 171.9197 422.061274 
L 172.5893 421.562314 
L 173.9285 421.063354 
L 174.1517 420.564394 
L 175.0445 420.065434 
L 176.3837 418.568554 
L 180.4013 417.570634 
L 180.8477 417.071674 
L 181.0709 416.572714 
L 183.3029 415.824274 
L 183.5261 415.075834 
L 184.8653 414.576874 
L 185.5349 414.077914 
L 186.6509 413.578954 
L 186.8741 413.079994 
L 187.9901 412.581034 
L 192.2309 412.082074 
L 192.6773 411.084154 
L 193.1237 410.585194 
L 194.2397 409.836754 
L 194.9093 408.589354 
L 195.3557 407.341954 
L 197.3645 406.593514 
L 197.8109 406.094554 
L 198.2573 405.346114 
L 199.3733 404.597674 
L 199.5965 404.098714 
L 203.3909 403.100794 
L 204.9533 402.601834 
L 206.0693 402.102874 
L 206.2925 401.603914 
L 208.0781 401.104954 
L 210.5333 400.605994 
L 210.9797 400.107034 
L 214.3277 399.608074 
L 214.7741 398.111194 
L 218.1221 397.612234 
L 219.9077 397.113274 
L 220.3541 396.614314 
L 222.5861 396.115354 
L 223.7021 395.616394 
L 226.3805 395.117434 
L 227.0501 394.618474 
L 227.4965 394.119514 
L 230.8445 393.620554 
L 231.2909 393.121594 
L 235.0853 392.622634 
L 237.3173 392.123674 
L 237.7637 391.624714 
L 237.9869 391.125754 
L 238.8797 390.626794 
L 239.3261 390.127834 
L 240.2189 389.379394 
L 240.6653 388.381474 
L 242.4509 387.633034 
L 242.6741 387.134074 
L 246.9149 384.639274 
L 256.0661 383.391874 
L 256.5125 382.643434 
L 256.9589 382.144474 
L 258.9677 381.146554 
L 259.6373 380.398114 
L 260.9765 379.649674 
L 264.7709 379.150714 
L 267.0029 378.402274 
L 272.8061 377.653834 
L 283.5197 377.154874 
L 284.8589 376.655914 
L 285.3053 376.156954 
L 288.2069 375.657994 
L 288.6533 374.909554 
L 289.9925 374.161114 
L 290.2157 373.662154 
L 291.1085 373.163194 
L 292.6709 372.664234 
L 296.0189 372.165274 
L 296.4653 371.666314 
L 300.9293 370.668394 
L 306.7325 369.919954 
L 307.1789 369.171514 
L 310.0805 368.672554 
L 316.5533 366.676714 
L 321.9101 365.678794 
L 322.1333 365.179834 
L 325.9277 364.680874 
L 327.0437 364.181914 
L 327.7133 363.682954 
L 328.8293 363.183994 
L 329.0525 362.685034 
L 336.1949 362.186074 
L 337.7573 361.687114 
L 344.4533 361.188154 
L 348.2477 360.689194 
L 356.0597 360.190234 
L 359.8541 359.691274 
L 368.1125 359.192314 
L 369.4517 358.693354 
L 381.7277 358.194394 
L 383.2901 357.695434 
L 384.4061 357.196474 
L 386.4149 356.697514 
L 391.5485 356.198554 
L 392.6645 355.699594 
L 393.1109 355.200634 
L 398.4677 354.701674 
L 399.5837 354.202714 
L 404.4941 353.703754 
L 406.9493 353.204794 
L 408.0653 352.705834 
L 429.7157 351.957394 
L 434.6261 351.208954 
L 444.2237 350.709994 
L 447.3485 350.211034 
L 447.7949 349.712074 
L 450.2501 349.213114 
L 450.6965 348.714154 
L 454.7141 347.716234 
L 461.4101 346.718314 
L 463.4189 346.219354 
L 463.6421 345.720394 
L 483.2837 344.722474 
L 489.5333 344.223514 
L 492.6581 343.225594 
L 509.1749 342.227674 
L 520.5581 341.728714 
L 525.4685 341.229754 
L 535.9589 340.730794 
L 540.6461 340.231834 
L 548.2349 339.732874 
L 549.7973 338.734954 
L 558.9485 337.737034 
L 563.6357 337.238074 
L 569.6621 336.739114 
L 572.5637 336.240154 
L 580.5989 335.741194 
L 585.5093 334.992754 
L 601.8029 334.244314 
L 609.3917 333.745354 
L 610.2845 333.246394 
L 610.7309 332.747434 
L 613.1861 332.248474 
L 656.2637 331.250554 
L 658.9421 330.751594 
L 660.5045 330.252634 
L 664.7453 329.753674 
L 665.8613 329.254714 
L 671.2181 328.755754 
L 673.2269 328.256794 
L 679.2533 327.508354 
L 682.1549 326.759914 
L 702.6893 326.260954 
L 709.1621 325.761994 
L 711.8405 325.263034 
L 745.3205 323.766154 
L 762.5069 323.267194 
L 789.0677 322.768234 
L 789.0677 322.768234 
" clip-path="url(#p69c7cd8ac6)" style="fill: none; stroke: #dd8452; stroke-width: 2.5; stroke-linecap: round"/>
   </g>
   <g id="patch_3">
    <path d="M 130.4045 517.861594 
L 130.4045 18.901594 
" style="fill: none; stroke: #cccccc; stroke-linejoin: miter; stroke-linecap: square"/>
   </g>
   <g id="patch_4">
    <path d="M 800.0045 517.861594 
L 800.0045 18.901594 
" style="fill: none; stroke: #cccccc; stroke-linejoin: miter; stroke-linecap: square"/>
   </g>
   <g id="patch_5">
    <path d="M 130.4045 517.861594 
L 800.0045 517.861594 
" style="fill: none; stroke: #cccccc; stroke-linejoin: miter; stroke-linecap: square"/>
   </g>
   <g id="patch_6">
    <path d="M 130.4045 18.901594 
L 800.0045 18.901594 
" style="fill: none; stroke: #cccccc; stroke-linejoin: miter; stroke-linecap: square"/>
   </g>
  </g>
 </g>
 <defs>
  <clipPath id="p69c7cd8ac6">
   <rect x="130.4045" y="18.901594" width="669.6" height="498.96"/>
  </clipPath>
 </defs>
</svg>
