<?xml version="1.0" encoding="utf-8" standalone="no"?>
<!DOCTYPE svg PUBLIC "-//W3C//DTD SVG 1.1//EN"
  "http://www.w3.org/Graphics/SVG/1.1/DTD/svg11.dtd">
<svg xmlns:xlink="http://www.w3.org/1999/xlink" width="837.68075pt" height="599.688719pt" viewBox="0 0 837.68075 599.688719" xmlns="http://www.w3.org/2000/svg" version="1.1">
 <metadata>
  <rdf:RDF xmlns:dc="http://purl.org/dc/elements/1.1/" xmlns:cc="http://creativecommons.org/ns#" xmlns:rdf="http://www.w3.org/1999/02/22-rdf-syntax-ns#">
   <cc:Work>
    <dc:type rdf:resource="http://purl.org/dc/dcmitype/StillImage"/>
    <dc:date>2022-07-08T12:58:52.067855</dc:date>
    <dc:format>image/svg+xml</dc:format>
    <dc:creator>
     <cc:Agent>
      <dc:title>Matplotlib v3.5.0, https://matplotlib.org/</dc:title>
     </cc:Agent>
    </dc:creator>
   </cc:Work>
  </rdf:RDF>
 </metadata>
 <defs>
  <style type="text/css">*{stroke-linejoin: round; stroke-linecap: butt}</style>
 </defs>
 <g id="figure_1">
  <g id="patch_1">
   <path d="M 0 599.688719 
L 837.68075 599.688719 
L 837.68075 0 
L 0 0 
z
" style="fill: #ffffff"/>
  </g>
  <g id="axes_1">
   <g id="patch_2">
    <path d="M 131.486 517.861594 
L 801.086 517.861594 
L 801.086 18.901594 
L 131.486 18.901594 
z
" style="fill: #ffffff"/>
   </g>
   <g id="matplotlib.axis_1">
    <g id="xtick_1">
     <g id="line2d_1">
      <path d="M 131.486 517.861594 
L 131.486 18.901594 
" clip-path="url(#p2a4942657e)" style="fill: none; stroke: #cccccc; stroke-width: 0.8; stroke-linecap: round"/>
     </g>
     <g id="text_1">
      <!-- 0 -->
      <g style="fill: #262626" transform="translate(121.68775 549.564781)scale(0.308 -0.308)">
       <defs>
        <path id="DejaVuSans-30" d="M 2034 4250 
Q 1547 4250 1301 3770 
Q 1056 3291 1056 2328 
Q 1056 1369 1301 889 
Q 1547 409 2034 409 
Q 2525 409 2770 889 
Q 3016 1369 3016 2328 
Q 3016 3291 2770 3770 
Q 2525 4250 2034 4250 
z
M 2034 4750 
Q 2819 4750 3233 4129 
Q 3647 3509 3647 2328 
Q 3647 1150 3233 529 
Q 2819 -91 2034 -91 
Q 1250 -91 836 529 
Q 422 1150 422 2328 
Q 422 3509 836 4129 
Q 1250 4750 2034 4750 
z
" transform="scale(0.015625)"/>
       </defs>
       <use xlink:href="#DejaVuSans-30"/>
      </g>
     </g>
    </g>
    <g id="xtick_2">
     <g id="line2d_2">
      <path d="M 354.686 517.861594 
L 354.686 18.901594 
" clip-path="url(#p2a4942657e)" style="fill: none; stroke: #cccccc; stroke-width: 0.8; stroke-linecap: round"/>
     </g>
     <g id="text_2">
      <!-- 100 -->
      <g style="fill: #262626" transform="translate(325.29125 549.564781)scale(0.308 -0.308)">
       <defs>
        <path id="DejaVuSans-31" d="M 794 531 
L 1825 531 
L 1825 4091 
L 703 3866 
L 703 4441 
L 1819 4666 
L 2450 4666 
L 2450 531 
L 3481 531 
L 3481 0 
L 794 0 
L 794 531 
z
" transform="scale(0.015625)"/>
       </defs>
       <use xlink:href="#DejaVuSans-31"/>
       <use xlink:href="#DejaVuSans-30" x="63.623047"/>
       <use xlink:href="#DejaVuSans-30" x="127.246094"/>
      </g>
     </g>
    </g>
    <g id="xtick_3">
     <g id="line2d_3">
      <path d="M 577.886 517.861594 
L 577.886 18.901594 
" clip-path="url(#p2a4942657e)" style="fill: none; stroke: #cccccc; stroke-width: 0.8; stroke-linecap: round"/>
     </g>
     <g id="text_3">
      <!-- 200 -->
      <g style="fill: #262626" transform="translate(548.49125 549.564781)scale(0.308 -0.308)">
       <defs>
        <path id="DejaVuSans-32" d="M 1228 531 
L 3431 531 
L 3431 0 
L 469 0 
L 469 531 
Q 828 903 1448 1529 
Q 2069 2156 2228 2338 
Q 2531 2678 2651 2914 
Q 2772 3150 2772 3378 
Q 2772 3750 2511 3984 
Q 2250 4219 1831 4219 
Q 1534 4219 1204 4116 
Q 875 4013 500 3803 
L 500 4441 
Q 881 4594 1212 4672 
Q 1544 4750 1819 4750 
Q 2544 4750 2975 4387 
Q 3406 4025 3406 3419 
Q 3406 3131 3298 2873 
Q 3191 2616 2906 2266 
Q 2828 2175 2409 1742 
Q 1991 1309 1228 531 
z
" transform="scale(0.015625)"/>
       </defs>
       <use xlink:href="#DejaVuSans-32"/>
       <use xlink:href="#DejaVuSans-30" x="63.623047"/>
       <use xlink:href="#DejaVuSans-30" x="127.246094"/>
      </g>
     </g>
    </g>
    <g id="xtick_4">
     <g id="line2d_4">
      <path d="M 801.086 517.861594 
L 801.086 18.901594 
" clip-path="url(#p2a4942657e)" style="fill: none; stroke: #cccccc; stroke-width: 0.8; stroke-linecap: round"/>
     </g>
     <g id="text_4">
      <!-- 300 -->
      <g style="fill: #262626" transform="translate(771.69125 549.564781)scale(0.308 -0.308)">
       <defs>
        <path id="DejaVuSans-33" d="M 2597 2516 
Q 3050 2419 3304 2112 
Q 3559 1806 3559 1356 
Q 3559 666 3084 287 
Q 2609 -91 1734 -91 
Q 1441 -91 1130 -33 
Q 819 25 488 141 
L 488 750 
Q 750 597 1062 519 
Q 1375 441 1716 441 
Q 2309 441 2620 675 
Q 2931 909 2931 1356 
Q 2931 1769 2642 2001 
Q 2353 2234 1838 2234 
L 1294 2234 
L 1294 2753 
L 1863 2753 
Q 2328 2753 2575 2939 
Q 2822 3125 2822 3475 
Q 2822 3834 2567 4026 
Q 2313 4219 1838 4219 
Q 1578 4219 1281 4162 
Q 984 4106 628 3988 
L 628 4550 
Q 988 4650 1302 4700 
Q 1616 4750 1894 4750 
Q 2613 4750 3031 4423 
Q 3450 4097 3450 3541 
Q 3450 3153 3228 2886 
Q 3006 2619 2597 2516 
z
" transform="scale(0.015625)"/>
       </defs>
       <use xlink:href="#DejaVuSans-33"/>
       <use xlink:href="#DejaVuSans-30" x="63.623047"/>
       <use xlink:href="#DejaVuSans-30" x="127.246094"/>
      </g>
     </g>
    </g>
    <g id="text_5">
     <!-- Time cutoff (s) -->
     <g style="fill: #262626" transform="translate(344.063375 585.500969)scale(0.336 -0.336)">
      <defs>
       <path id="DejaVuSans-54" d="M -19 4666 
L 3928 4666 
L 3928 4134 
L 2272 4134 
L 2272 0 
L 1638 0 
L 1638 4134 
L -19 4134 
L -19 4666 
z
" transform="scale(0.015625)"/>
       <path id="DejaVuSans-69" d="M 603 3500 
L 1178 3500 
L 1178 0 
L 603 0 
L 603 3500 
z
M 603 4863 
L 1178 4863 
L 1178 4134 
L 603 4134 
L 603 4863 
z
" transform="scale(0.015625)"/>
       <path id="DejaVuSans-6d" d="M 3328 2828 
Q 3544 3216 3844 3400 
Q 4144 3584 4550 3584 
Q 5097 3584 5394 3201 
Q 5691 2819 5691 2113 
L 5691 0 
L 5113 0 
L 5113 2094 
Q 5113 2597 4934 2840 
Q 4756 3084 4391 3084 
Q 3944 3084 3684 2787 
Q 3425 2491 3425 1978 
L 3425 0 
L 2847 0 
L 2847 2094 
Q 2847 2600 2669 2842 
Q 2491 3084 2119 3084 
Q 1678 3084 1418 2786 
Q 1159 2488 1159 1978 
L 1159 0 
L 581 0 
L 581 3500 
L 1159 3500 
L 1159 2956 
Q 1356 3278 1631 3431 
Q 1906 3584 2284 3584 
Q 2666 3584 2933 3390 
Q 3200 3197 3328 2828 
z
" transform="scale(0.015625)"/>
       <path id="DejaVuSans-65" d="M 3597 1894 
L 3597 1613 
L 953 1613 
Q 991 1019 1311 708 
Q 1631 397 2203 397 
Q 2534 397 2845 478 
Q 3156 559 3463 722 
L 3463 178 
Q 3153 47 2828 -22 
Q 2503 -91 2169 -91 
Q 1331 -91 842 396 
Q 353 884 353 1716 
Q 353 2575 817 3079 
Q 1281 3584 2069 3584 
Q 2775 3584 3186 3129 
Q 3597 2675 3597 1894 
z
M 3022 2063 
Q 3016 2534 2758 2815 
Q 2500 3097 2075 3097 
Q 1594 3097 1305 2825 
Q 1016 2553 972 2059 
L 3022 2063 
z
" transform="scale(0.015625)"/>
       <path id="DejaVuSans-20" transform="scale(0.015625)"/>
       <path id="DejaVuSans-63" d="M 3122 3366 
L 3122 2828 
Q 2878 2963 2633 3030 
Q 2388 3097 2138 3097 
Q 1578 3097 1268 2742 
Q 959 2388 959 1747 
Q 959 1106 1268 751 
Q 1578 397 2138 397 
Q 2388 397 2633 464 
Q 2878 531 3122 666 
L 3122 134 
Q 2881 22 2623 -34 
Q 2366 -91 2075 -91 
Q 1284 -91 818 406 
Q 353 903 353 1747 
Q 353 2603 823 3093 
Q 1294 3584 2113 3584 
Q 2378 3584 2631 3529 
Q 2884 3475 3122 3366 
z
" transform="scale(0.015625)"/>
       <path id="DejaVuSans-75" d="M 544 1381 
L 544 3500 
L 1119 3500 
L 1119 1403 
Q 1119 906 1312 657 
Q 1506 409 1894 409 
Q 2359 409 2629 706 
Q 2900 1003 2900 1516 
L 2900 3500 
L 3475 3500 
L 3475 0 
L 2900 0 
L 2900 538 
Q 2691 219 2414 64 
Q 2138 -91 1772 -91 
Q 1169 -91 856 284 
Q 544 659 544 1381 
z
M 1991 3584 
L 1991 3584 
z
" transform="scale(0.015625)"/>
       <path id="DejaVuSans-74" d="M 1172 4494 
L 1172 3500 
L 2356 3500 
L 2356 3053 
L 1172 3053 
L 1172 1153 
Q 1172 725 1289 603 
Q 1406 481 1766 481 
L 2356 481 
L 2356 0 
L 1766 0 
Q 1100 0 847 248 
Q 594 497 594 1153 
L 594 3053 
L 172 3053 
L 172 3500 
L 594 3500 
L 594 4494 
L 1172 4494 
z
" transform="scale(0.015625)"/>
       <path id="DejaVuSans-6f" d="M 1959 3097 
Q 1497 3097 1228 2736 
Q 959 2375 959 1747 
Q 959 1119 1226 758 
Q 1494 397 1959 397 
Q 2419 397 2687 759 
Q 2956 1122 2956 1747 
Q 2956 2369 2687 2733 
Q 2419 3097 1959 3097 
z
M 1959 3584 
Q 2709 3584 3137 3096 
Q 3566 2609 3566 1747 
Q 3566 888 3137 398 
Q 2709 -91 1959 -91 
Q 1206 -91 779 398 
Q 353 888 353 1747 
Q 353 2609 779 3096 
Q 1206 3584 1959 3584 
z
" transform="scale(0.015625)"/>
       <path id="DejaVuSans-66" d="M 2375 4863 
L 2375 4384 
L 1825 4384 
Q 1516 4384 1395 4259 
Q 1275 4134 1275 3809 
L 1275 3500 
L 2222 3500 
L 2222 3053 
L 1275 3053 
L 1275 0 
L 697 0 
L 697 3053 
L 147 3053 
L 147 3500 
L 697 3500 
L 697 3744 
Q 697 4328 969 4595 
Q 1241 4863 1831 4863 
L 2375 4863 
z
" transform="scale(0.015625)"/>
       <path id="DejaVuSans-28" d="M 1984 4856 
Q 1566 4138 1362 3434 
Q 1159 2731 1159 2009 
Q 1159 1288 1364 580 
Q 1569 -128 1984 -844 
L 1484 -844 
Q 1016 -109 783 600 
Q 550 1309 550 2009 
Q 550 2706 781 3412 
Q 1013 4119 1484 4856 
L 1984 4856 
z
" transform="scale(0.015625)"/>
       <path id="DejaVuSans-73" d="M 2834 3397 
L 2834 2853 
Q 2591 2978 2328 3040 
Q 2066 3103 1784 3103 
Q 1356 3103 1142 2972 
Q 928 2841 928 2578 
Q 928 2378 1081 2264 
Q 1234 2150 1697 2047 
L 1894 2003 
Q 2506 1872 2764 1633 
Q 3022 1394 3022 966 
Q 3022 478 2636 193 
Q 2250 -91 1575 -91 
Q 1294 -91 989 -36 
Q 684 19 347 128 
L 347 722 
Q 666 556 975 473 
Q 1284 391 1588 391 
Q 1994 391 2212 530 
Q 2431 669 2431 922 
Q 2431 1156 2273 1281 
Q 2116 1406 1581 1522 
L 1381 1569 
Q 847 1681 609 1914 
Q 372 2147 372 2553 
Q 372 3047 722 3315 
Q 1072 3584 1716 3584 
Q 2034 3584 2315 3537 
Q 2597 3491 2834 3397 
z
" transform="scale(0.015625)"/>
       <path id="DejaVuSans-29" d="M 513 4856 
L 1013 4856 
Q 1481 4119 1714 3412 
Q 1947 2706 1947 2009 
Q 1947 1309 1714 600 
Q 1481 -109 1013 -844 
L 513 -844 
Q 928 -128 1133 580 
Q 1338 1288 1338 2009 
Q 1338 2731 1133 3434 
Q 928 4138 513 4856 
z
" transform="scale(0.015625)"/>
      </defs>
      <use xlink:href="#DejaVuSans-54"/>
      <use xlink:href="#DejaVuSans-69" x="57.958984"/>
      <use xlink:href="#DejaVuSans-6d" x="85.742188"/>
      <use xlink:href="#DejaVuSans-65" x="183.154297"/>
      <use xlink:href="#DejaVuSans-20" x="244.677734"/>
      <use xlink:href="#DejaVuSans-63" x="276.464844"/>
      <use xlink:href="#DejaVuSans-75" x="331.445312"/>
      <use xlink:href="#DejaVuSans-74" x="394.824219"/>
      <use xlink:href="#DejaVuSans-6f" x="434.033203"/>
      <use xlink:href="#DejaVuSans-66" x="495.214844"/>
      <use xlink:href="#DejaVuSans-66" x="530.419922"/>
      <use xlink:href="#DejaVuSans-20" x="565.625"/>
      <use xlink:href="#DejaVuSans-28" x="597.412109"/>
      <use xlink:href="#DejaVuSans-73" x="636.425781"/>
      <use xlink:href="#DejaVuSans-29" x="688.525391"/>
     </g>
    </g>
   </g>
   <g id="matplotlib.axis_2">
    <g id="ytick_1">
     <g id="line2d_5">
      <path d="M 131.486 517.861594 
L 801.086 517.861594 
" clip-path="url(#p2a4942657e)" style="fill: none; stroke: #cccccc; stroke-width: 0.8; stroke-linecap: round"/>
     </g>
     <g id="text_6">
      <!-- 0 -->
      <g style="fill: #262626" transform="translate(103.5895 529.563188)scale(0.308 -0.308)">
       <use xlink:href="#DejaVuSans-30"/>
      </g>
     </g>
    </g>
    <g id="ytick_2">
     <g id="line2d_6">
      <path d="M 131.486 418.069594 
L 801.086 418.069594 
" clip-path="url(#p2a4942657e)" style="fill: none; stroke: #cccccc; stroke-width: 0.8; stroke-linecap: round"/>
     </g>
     <g id="text_7">
      <!-- 200 -->
      <g style="fill: #262626" transform="translate(64.3965 429.771188)scale(0.308 -0.308)">
       <use xlink:href="#DejaVuSans-32"/>
       <use xlink:href="#DejaVuSans-30" x="63.623047"/>
       <use xlink:href="#DejaVuSans-30" x="127.246094"/>
      </g>
     </g>
    </g>
    <g id="ytick_3">
     <g id="line2d_7">
      <path d="M 131.486 318.277594 
L 801.086 318.277594 
" clip-path="url(#p2a4942657e)" style="fill: none; stroke: #cccccc; stroke-width: 0.8; stroke-linecap: round"/>
     </g>
     <g id="text_8">
      <!-- 400 -->
      <g style="fill: #262626" transform="translate(64.3965 329.979188)scale(0.308 -0.308)">
       <defs>
        <path id="DejaVuSans-34" d="M 2419 4116 
L 825 1625 
L 2419 1625 
L 2419 4116 
z
M 2253 4666 
L 3047 4666 
L 3047 1625 
L 3713 1625 
L 3713 1100 
L 3047 1100 
L 3047 0 
L 2419 0 
L 2419 1100 
L 313 1100 
L 313 1709 
L 2253 4666 
z
" transform="scale(0.015625)"/>
       </defs>
       <use xlink:href="#DejaVuSans-34"/>
       <use xlink:href="#DejaVuSans-30" x="63.623047"/>
       <use xlink:href="#DejaVuSans-30" x="127.246094"/>
      </g>
     </g>
    </g>
    <g id="ytick_4">
     <g id="line2d_8">
      <path d="M 131.486 218.485594 
L 801.086 218.485594 
" clip-path="url(#p2a4942657e)" style="fill: none; stroke: #cccccc; stroke-width: 0.8; stroke-linecap: round"/>
     </g>
     <g id="text_9">
      <!-- 600 -->
      <g style="fill: #262626" transform="translate(64.3965 230.187188)scale(0.308 -0.308)">
       <defs>
        <path id="DejaVuSans-36" d="M 2113 2584 
Q 1688 2584 1439 2293 
Q 1191 2003 1191 1497 
Q 1191 994 1439 701 
Q 1688 409 2113 409 
Q 2538 409 2786 701 
Q 3034 994 3034 1497 
Q 3034 2003 2786 2293 
Q 2538 2584 2113 2584 
z
M 3366 4563 
L 3366 3988 
Q 3128 4100 2886 4159 
Q 2644 4219 2406 4219 
Q 1781 4219 1451 3797 
Q 1122 3375 1075 2522 
Q 1259 2794 1537 2939 
Q 1816 3084 2150 3084 
Q 2853 3084 3261 2657 
Q 3669 2231 3669 1497 
Q 3669 778 3244 343 
Q 2819 -91 2113 -91 
Q 1303 -91 875 529 
Q 447 1150 447 2328 
Q 447 3434 972 4092 
Q 1497 4750 2381 4750 
Q 2619 4750 2861 4703 
Q 3103 4656 3366 4563 
z
" transform="scale(0.015625)"/>
       </defs>
       <use xlink:href="#DejaVuSans-36"/>
       <use xlink:href="#DejaVuSans-30" x="63.623047"/>
       <use xlink:href="#DejaVuSans-30" x="127.246094"/>
      </g>
     </g>
    </g>
    <g id="ytick_5">
     <g id="line2d_9">
      <path d="M 131.486 118.693594 
L 801.086 118.693594 
" clip-path="url(#p2a4942657e)" style="fill: none; stroke: #cccccc; stroke-width: 0.8; stroke-linecap: round"/>
     </g>
     <g id="text_10">
      <!-- 800 -->
      <g style="fill: #262626" transform="translate(64.3965 130.395188)scale(0.308 -0.308)">
       <defs>
        <path id="DejaVuSans-38" d="M 2034 2216 
Q 1584 2216 1326 1975 
Q 1069 1734 1069 1313 
Q 1069 891 1326 650 
Q 1584 409 2034 409 
Q 2484 409 2743 651 
Q 3003 894 3003 1313 
Q 3003 1734 2745 1975 
Q 2488 2216 2034 2216 
z
M 1403 2484 
Q 997 2584 770 2862 
Q 544 3141 544 3541 
Q 544 4100 942 4425 
Q 1341 4750 2034 4750 
Q 2731 4750 3128 4425 
Q 3525 4100 3525 3541 
Q 3525 3141 3298 2862 
Q 3072 2584 2669 2484 
Q 3125 2378 3379 2068 
Q 3634 1759 3634 1313 
Q 3634 634 3220 271 
Q 2806 -91 2034 -91 
Q 1263 -91 848 271 
Q 434 634 434 1313 
Q 434 1759 690 2068 
Q 947 2378 1403 2484 
z
M 1172 3481 
Q 1172 3119 1398 2916 
Q 1625 2713 2034 2713 
Q 2441 2713 2670 2916 
Q 2900 3119 2900 3481 
Q 2900 3844 2670 4047 
Q 2441 4250 2034 4250 
Q 1625 4250 1398 4047 
Q 1172 3844 1172 3481 
z
" transform="scale(0.015625)"/>
       </defs>
       <use xlink:href="#DejaVuSans-38"/>
       <use xlink:href="#DejaVuSans-30" x="63.623047"/>
       <use xlink:href="#DejaVuSans-30" x="127.246094"/>
      </g>
     </g>
    </g>
    <g id="ytick_6">
     <g id="line2d_10">
      <path d="M 131.486 18.901594 
L 801.086 18.901594 
" clip-path="url(#p2a4942657e)" style="fill: none; stroke: #cccccc; stroke-width: 0.8; stroke-linecap: round"/>
     </g>
     <g id="text_11">
      <!-- 1000 -->
      <g style="fill: #262626" transform="translate(44.8 30.603188)scale(0.308 -0.308)">
       <use xlink:href="#DejaVuSans-31"/>
       <use xlink:href="#DejaVuSans-30" x="63.623047"/>
       <use xlink:href="#DejaVuSans-30" x="127.246094"/>
       <use xlink:href="#DejaVuSans-30" x="190.869141"/>
      </g>
     </g>
    </g>
    <g id="text_12">
     <!-- |P| + |P'| -->
     <g style="fill: #262626" transform="translate(32.87775 340.653094)rotate(-90)scale(0.336 -0.336)">
      <defs>
       <path id="DejaVuSans-7c" d="M 1344 4891 
L 1344 -1509 
L 813 -1509 
L 813 4891 
L 1344 4891 
z
" transform="scale(0.015625)"/>
       <path id="DejaVuSans-50" d="M 1259 4147 
L 1259 2394 
L 2053 2394 
Q 2494 2394 2734 2622 
Q 2975 2850 2975 3272 
Q 2975 3691 2734 3919 
Q 2494 4147 2053 4147 
L 1259 4147 
z
M 628 4666 
L 2053 4666 
Q 2838 4666 3239 4311 
Q 3641 3956 3641 3272 
Q 3641 2581 3239 2228 
Q 2838 1875 2053 1875 
L 1259 1875 
L 1259 0 
L 628 0 
L 628 4666 
z
" transform="scale(0.015625)"/>
       <path id="DejaVuSans-2b" d="M 2944 4013 
L 2944 2272 
L 4684 2272 
L 4684 1741 
L 2944 1741 
L 2944 0 
L 2419 0 
L 2419 1741 
L 678 1741 
L 678 2272 
L 2419 2272 
L 2419 4013 
L 2944 4013 
z
" transform="scale(0.015625)"/>
       <path id="DejaVuSans-27" d="M 1147 4666 
L 1147 2931 
L 616 2931 
L 616 4666 
L 1147 4666 
z
" transform="scale(0.015625)"/>
      </defs>
      <use xlink:href="#DejaVuSans-7c"/>
      <use xlink:href="#DejaVuSans-50" x="33.691406"/>
      <use xlink:href="#DejaVuSans-7c" x="93.994141"/>
      <use xlink:href="#DejaVuSans-20" x="127.685547"/>
      <use xlink:href="#DejaVuSans-2b" x="159.472656"/>
      <use xlink:href="#DejaVuSans-20" x="243.261719"/>
      <use xlink:href="#DejaVuSans-7c" x="275.048828"/>
      <use xlink:href="#DejaVuSans-50" x="308.740234"/>
      <use xlink:href="#DejaVuSans-27" x="369.042969"/>
      <use xlink:href="#DejaVuSans-7c" x="396.533203"/>
     </g>
    </g>
   </g>
   <g id="PolyCollection_1">
    <path d="M 131.486 459.59851 
L 131.486 486.454438 
L 131.7092 391.458394 
L 131.9324 277.362874 
L 132.1556 172.309114 
L 132.3788 44.847514 
L 132.602 44.847514 
L 132.8252 44.847514 
L 133.0484 21.895354 
L 133.2716 -321.389126 
L 133.4948 -332.512192 
L 133.718 -432.657206 
L 133.9412 -459.102086 
L 134.1644 -518.478326 
L 134.3876 -538.393338 
L 134.6108 -596.316086 
L 134.834 -608.790086 
L 135.0572 -627.251606 
L 135.2804 -762.469766 
L 135.5036 -762.469766 
L 135.7268 -1132.698086 
L 135.95 -1163.633606 
L 136.1732 -1195.068086 
L 136.3964 -1217.521286 
L 136.6196 -1233.488006 
L 136.8428 -1233.488006 
L 137.066 -1317.313286 
L 137.2892 -1317.313286 
L 137.5124 -1317.313286 
L 137.7356 -1317.313286 
L 137.9588 -1317.313286 
L 138.182 -1317.313286 
L 138.4052 -1317.313286 
L 138.6284 -1317.313286 
L 138.8516 -1317.313286 
L 138.8516 -1609.703846 
L 138.8516 -1609.703846 
L 138.6284 -1317.313286 
L 138.4052 -1317.313286 
L 138.182 -1317.313286 
L 137.9588 -1317.313286 
L 137.7356 -1317.313286 
L 137.5124 -1317.313286 
L 137.2892 -1317.313286 
L 137.066 -1317.313286 
L 136.8428 -1304.090846 
L 136.6196 -1233.488006 
L 136.3964 -1226.419406 
L 136.1732 -1203.488036 
L 135.95 -1177.327286 
L 135.7268 -1144.298906 
L 135.5036 -921.139046 
L 135.2804 -762.469766 
L 135.0572 -668.801366 
L 134.834 -617.606432 
L 134.6108 -599.171246 
L 134.3876 -554.361143 
L 134.1644 -521.685926 
L 133.9412 -491.686669 
L 133.718 -441.693926 
L 133.4948 -384.709645 
L 133.2716 -321.389126 
L 133.0484 -184.075334 
L 132.8252 27.633394 
L 132.602 44.847514 
L 132.3788 44.847514 
L 132.1556 125.495326 
L 131.9324 228.961259 
L 131.7092 359.358634 
L 131.486 459.59851 
z
" clip-path="url(#p2a4942657e)" style="fill: #4c72b0; fill-opacity: 0.2; stroke: #4c72b0; stroke-opacity: 0.2; stroke-width: 0.8"/>
    <path d="M 139.298 -1609.703846 
L 139.298 -1609.703846 
L 139.5212 -1609.703846 
L 139.7444 -1609.703846 
L 139.9676 -1609.703846 
L 140.1908 -1609.703846 
L 140.414 -1976.938406 
L 140.6372 -1976.938406 
L 140.8604 -1976.938406 
L 141.0836 -2019.848966 
L 141.3068 -2019.848966 
L 141.53 -2019.848966 
L 141.53 -2019.848966 
L 141.53 -2019.848966 
L 141.3068 -2019.848966 
L 141.0836 -2019.848966 
L 140.8604 -2002.684742 
L 140.6372 -1976.938406 
L 140.414 -1976.938406 
L 140.1908 -1885.129766 
L 139.9676 -1609.703846 
L 139.7444 -1609.703846 
L 139.5212 -1609.703846 
L 139.298 -1609.703846 
z
" clip-path="url(#p2a4942657e)" style="fill: #4c72b0; fill-opacity: 0.2; stroke: #4c72b0; stroke-opacity: 0.2; stroke-width: 0.8"/>
    <path d="M 141.9764 -2019.848966 
L 141.9764 -2019.848966 
L 142.1996 -2019.848966 
L 142.4228 -2019.848966 
L 142.646 -2019.848966 
L 142.8692 -2019.848966 
L 143.0924 -2019.848966 
L 143.5388 -2019.848966 
L 143.5388 -2019.848966 
L 143.5388 -2019.848966 
L 143.0924 -2019.848966 
L 142.8692 -2019.848966 
L 142.646 -2019.848966 
L 142.4228 -2019.848966 
L 142.1996 -2019.848966 
L 141.9764 -2019.848966 
z
" clip-path="url(#p2a4942657e)" style="fill: #4c72b0; fill-opacity: 0.2; stroke: #4c72b0; stroke-opacity: 0.2; stroke-width: 0.8"/>
    <path d="M 143.9852 -2019.848966 
L 143.9852 -2019.848966 
L 143.9852 -2019.848966 
L 143.9852 -2019.848966 
z
" clip-path="url(#p2a4942657e)" style="fill: #4c72b0; fill-opacity: 0.2; stroke: #4c72b0; stroke-opacity: 0.2; stroke-width: 0.8"/>
    <path d="M 144.6548 -2019.848966 
L 144.6548 -2019.848966 
L 144.878 -2019.848966 
L 144.878 -2019.848966 
L 144.878 -2019.848966 
L 144.6548 -2019.848966 
z
" clip-path="url(#p2a4942657e)" style="fill: #4c72b0; fill-opacity: 0.2; stroke: #4c72b0; stroke-opacity: 0.2; stroke-width: 0.8"/>
    <path d="M 145.3244 -2019.848966 
L 145.3244 -2019.848966 
L 145.3244 -2019.848966 
L 145.3244 -2019.848966 
z
" clip-path="url(#p2a4942657e)" style="fill: #4c72b0; fill-opacity: 0.2; stroke: #4c72b0; stroke-opacity: 0.2; stroke-width: 0.8"/>
    <path d="M 145.994 -2019.848966 
L 145.994 -2019.848966 
L 145.994 -2019.848966 
L 145.994 -2019.848966 
z
" clip-path="url(#p2a4942657e)" style="fill: #4c72b0; fill-opacity: 0.2; stroke: #4c72b0; stroke-opacity: 0.2; stroke-width: 0.8"/>
    <path d="M 147.7796 -2019.848966 
L 147.7796 -2019.848966 
L 148.0028 -2019.848966 
L 148.4492 -2019.848966 
L 148.4492 -2019.848966 
L 148.4492 -2019.848966 
L 148.0028 -2019.848966 
L 147.7796 -2019.848966 
z
" clip-path="url(#p2a4942657e)" style="fill: #4c72b0; fill-opacity: 0.2; stroke: #4c72b0; stroke-opacity: 0.2; stroke-width: 0.8"/>
    <path d="M 150.0116 -2019.848966 
L 150.0116 -2019.848966 
L 150.0116 -2019.848966 
L 150.0116 -2019.848966 
z
" clip-path="url(#p2a4942657e)" style="fill: #4c72b0; fill-opacity: 0.2; stroke: #4c72b0; stroke-opacity: 0.2; stroke-width: 0.8"/>
    <path d="M 151.1276 -2019.848966 
L 151.1276 -2019.848966 
L 151.1276 -2019.848966 
L 151.1276 -2019.848966 
z
" clip-path="url(#p2a4942657e)" style="fill: #4c72b0; fill-opacity: 0.2; stroke: #4c72b0; stroke-opacity: 0.2; stroke-width: 0.8"/>
    <path d="M 151.574 -2019.848966 
L 151.574 -2019.848966 
L 151.7972 -2019.848966 
L 151.7972 -2019.848966 
L 151.7972 -2019.848966 
L 151.574 -2019.848966 
z
" clip-path="url(#p2a4942657e)" style="fill: #4c72b0; fill-opacity: 0.2; stroke: #4c72b0; stroke-opacity: 0.2; stroke-width: 0.8"/>
    <path d="M 154.0292 -2019.848966 
L 154.0292 -2019.848966 
L 154.6988 -2019.848966 
L 155.1452 -2019.848966 
L 155.1452 -2019.848966 
L 155.1452 -2019.848966 
L 154.6988 -2019.848966 
L 154.0292 -2019.848966 
z
" clip-path="url(#p2a4942657e)" style="fill: #4c72b0; fill-opacity: 0.2; stroke: #4c72b0; stroke-opacity: 0.2; stroke-width: 0.8"/>
    <path d="M 156.038 -2019.848966 
L 156.038 -2019.848966 
L 156.038 -2019.848966 
L 156.038 -2019.848966 
z
" clip-path="url(#p2a4942657e)" style="fill: #4c72b0; fill-opacity: 0.2; stroke: #4c72b0; stroke-opacity: 0.2; stroke-width: 0.8"/>
    <path d="M 160.502 -2136.605606 
L 160.502 -2136.605606 
L 160.502 -2136.605606 
L 160.502 -2136.605606 
z
" clip-path="url(#p2a4942657e)" style="fill: #4c72b0; fill-opacity: 0.2; stroke: #4c72b0; stroke-opacity: 0.2; stroke-width: 0.8"/>
    <path d="M 161.3948 -2136.605606 
L 161.3948 -2136.605606 
L 161.3948 -2136.605606 
L 161.3948 -2136.605606 
z
" clip-path="url(#p2a4942657e)" style="fill: #4c72b0; fill-opacity: 0.2; stroke: #4c72b0; stroke-opacity: 0.2; stroke-width: 0.8"/>
    <path d="M 163.85 -2136.605606 
L 163.85 -2136.605606 
L 163.85 -2136.605606 
L 163.85 -2136.605606 
z
" clip-path="url(#p2a4942657e)" style="fill: #4c72b0; fill-opacity: 0.2; stroke: #4c72b0; stroke-opacity: 0.2; stroke-width: 0.8"/>
    <path d="M 169.2068 -2136.605606 
L 169.2068 -2136.605606 
L 169.2068 -2136.605606 
L 169.2068 -2136.605606 
z
" clip-path="url(#p2a4942657e)" style="fill: #4c72b0; fill-opacity: 0.2; stroke: #4c72b0; stroke-opacity: 0.2; stroke-width: 0.8"/>
    <path d="M 173.894 -2136.605606 
L 173.894 -2136.605606 
L 173.894 -2136.605606 
L 173.894 -2136.605606 
z
" clip-path="url(#p2a4942657e)" style="fill: #4c72b0; fill-opacity: 0.2; stroke: #4c72b0; stroke-opacity: 0.2; stroke-width: 0.8"/>
    <path d="M 179.2508 -2136.605606 
L 179.2508 -2136.605606 
L 179.2508 -2136.605606 
L 179.2508 -2136.605606 
z
" clip-path="url(#p2a4942657e)" style="fill: #4c72b0; fill-opacity: 0.2; stroke: #4c72b0; stroke-opacity: 0.2; stroke-width: 0.8"/>
    <path d="M 183.4916 -2136.605606 
L 183.4916 -2136.605606 
L 183.4916 -2136.605606 
L 183.4916 -2136.605606 
z
" clip-path="url(#p2a4942657e)" style="fill: #4c72b0; fill-opacity: 0.2; stroke: #4c72b0; stroke-opacity: 0.2; stroke-width: 0.8"/>
    <path d="M 185.9468 -2136.605606 
L 185.9468 -2136.605606 
L 186.3932 -2136.605606 
L 186.3932 -2136.605606 
L 186.3932 -2136.605606 
L 185.9468 -2136.605606 
z
" clip-path="url(#p2a4942657e)" style="fill: #4c72b0; fill-opacity: 0.2; stroke: #4c72b0; stroke-opacity: 0.2; stroke-width: 0.8"/>
    <path d="M 192.866 -2136.605606 
L 192.866 -2136.605606 
L 192.866 -2136.605606 
L 192.866 -2136.605606 
z
" clip-path="url(#p2a4942657e)" style="fill: #4c72b0; fill-opacity: 0.2; stroke: #4c72b0; stroke-opacity: 0.2; stroke-width: 0.8"/>
    <path d="M 196.214 -2136.605606 
L 196.214 -2136.605606 
L 197.1068 -2136.605606 
L 197.1068 -2136.605606 
L 197.1068 -2136.605606 
L 196.214 -2136.605606 
z
" clip-path="url(#p2a4942657e)" style="fill: #4c72b0; fill-opacity: 0.2; stroke: #4c72b0; stroke-opacity: 0.2; stroke-width: 0.8"/>
    <path d="M 209.1596 -2136.605606 
L 209.1596 -2136.605606 
L 209.1596 -2136.605606 
L 209.1596 -2136.605606 
z
" clip-path="url(#p2a4942657e)" style="fill: #4c72b0; fill-opacity: 0.2; stroke: #4c72b0; stroke-opacity: 0.2; stroke-width: 0.8"/>
    <path d="M 217.1948 -2136.605606 
L 217.1948 -2136.605606 
L 217.1948 -2136.605606 
L 217.1948 -2136.605606 
z
" clip-path="url(#p2a4942657e)" style="fill: #4c72b0; fill-opacity: 0.2; stroke: #4c72b0; stroke-opacity: 0.2; stroke-width: 0.8"/>
    <path d="M 241.7468 -2136.605606 
L 241.7468 -2136.605606 
L 242.6396 -2136.605606 
L 244.4252 -2136.605606 
L 244.4252 -2136.605606 
L 244.4252 -2136.605606 
L 242.6396 -2136.605606 
L 241.7468 -2136.605606 
z
" clip-path="url(#p2a4942657e)" style="fill: #4c72b0; fill-opacity: 0.2; stroke: #4c72b0; stroke-opacity: 0.2; stroke-width: 0.8"/>
    <path d="M 284.8244 -2136.605606 
L 284.8244 -2136.605606 
L 284.8244 -2136.605606 
L 284.8244 -2136.605606 
z
" clip-path="url(#p2a4942657e)" style="fill: #4c72b0; fill-opacity: 0.2; stroke: #4c72b0; stroke-opacity: 0.2; stroke-width: 0.8"/>
    <path d="M 292.19 -2136.605606 
L 292.19 -2136.605606 
L 292.19 -2136.605606 
L 292.19 -2136.605606 
z
" clip-path="url(#p2a4942657e)" style="fill: #4c72b0; fill-opacity: 0.2; stroke: #4c72b0; stroke-opacity: 0.2; stroke-width: 0.8"/>
    <path d="M 301.7876 -2136.605606 
L 301.7876 -2136.605606 
L 301.7876 -2136.605606 
L 301.7876 -2136.605606 
z
" clip-path="url(#p2a4942657e)" style="fill: #4c72b0; fill-opacity: 0.2; stroke: #4c72b0; stroke-opacity: 0.2; stroke-width: 0.8"/>
    <path d="M 317.4116 -2136.605606 
L 317.4116 -2136.605606 
L 317.4116 -2136.605606 
L 317.4116 -2136.605606 
z
" clip-path="url(#p2a4942657e)" style="fill: #4c72b0; fill-opacity: 0.2; stroke: #4c72b0; stroke-opacity: 0.2; stroke-width: 0.8"/>
    <path d="M 330.134 -2136.605606 
L 330.134 -2136.605606 
L 330.134 -2136.605606 
L 330.134 -2136.605606 
z
" clip-path="url(#p2a4942657e)" style="fill: #4c72b0; fill-opacity: 0.2; stroke: #4c72b0; stroke-opacity: 0.2; stroke-width: 0.8"/>
    <path d="M 356.4716 -2136.605606 
L 356.4716 -2136.605606 
L 356.4716 -2136.605606 
L 356.4716 -2136.605606 
z
" clip-path="url(#p2a4942657e)" style="fill: #4c72b0; fill-opacity: 0.2; stroke: #4c72b0; stroke-opacity: 0.2; stroke-width: 0.8"/>
    <path d="M 378.7916 -2136.605606 
L 378.7916 -2136.605606 
L 378.7916 -2136.605606 
L 378.7916 -2136.605606 
z
" clip-path="url(#p2a4942657e)" style="fill: #4c72b0; fill-opacity: 0.2; stroke: #4c72b0; stroke-opacity: 0.2; stroke-width: 0.8"/>
    <path d="M 452.2244 -2136.605606 
L 452.2244 -2136.605606 
L 452.2244 -2136.605606 
L 452.2244 -2136.605606 
z
" clip-path="url(#p2a4942657e)" style="fill: #4c72b0; fill-opacity: 0.2; stroke: #4c72b0; stroke-opacity: 0.2; stroke-width: 0.8"/>
    <path d="M 457.1348 -2136.605606 
L 457.1348 -2136.605606 
L 457.1348 -2136.605606 
L 457.1348 -2136.605606 
z
" clip-path="url(#p2a4942657e)" style="fill: #4c72b0; fill-opacity: 0.2; stroke: #4c72b0; stroke-opacity: 0.2; stroke-width: 0.8"/>
    <path d="M 509.1404 -2136.605606 
L 509.1404 -2136.605606 
L 509.1404 -2136.605606 
L 509.1404 -2136.605606 
z
" clip-path="url(#p2a4942657e)" style="fill: #4c72b0; fill-opacity: 0.2; stroke: #4c72b0; stroke-opacity: 0.2; stroke-width: 0.8"/>
    <path d="M 522.086 -2136.605606 
L 522.086 -2136.605606 
L 522.086 -2136.605606 
L 522.086 -2136.605606 
z
" clip-path="url(#p2a4942657e)" style="fill: #4c72b0; fill-opacity: 0.2; stroke: #4c72b0; stroke-opacity: 0.2; stroke-width: 0.8"/>
    <path d="M 545.7452 -2136.605606 
L 545.7452 -2136.605606 
L 545.7452 -2136.605606 
L 545.7452 -2136.605606 
z
" clip-path="url(#p2a4942657e)" style="fill: #4c72b0; fill-opacity: 0.2; stroke: #4c72b0; stroke-opacity: 0.2; stroke-width: 0.8"/>
    <path d="M 579.2252 -2136.605606 
L 579.2252 -2136.605606 
L 579.2252 -2136.605606 
L 579.2252 -2136.605606 
z
" clip-path="url(#p2a4942657e)" style="fill: #4c72b0; fill-opacity: 0.2; stroke: #4c72b0; stroke-opacity: 0.2; stroke-width: 0.8"/>
    <path d="M 581.6804 -2136.605606 
L 581.6804 -2136.605606 
L 581.6804 -2136.605606 
L 581.6804 -2136.605606 
z
" clip-path="url(#p2a4942657e)" style="fill: #4c72b0; fill-opacity: 0.2; stroke: #4c72b0; stroke-opacity: 0.2; stroke-width: 0.8"/>
    <path d="M 585.9212 -2136.605606 
L 585.9212 -2136.605606 
L 585.9212 -2136.605606 
L 585.9212 -2136.605606 
z
" clip-path="url(#p2a4942657e)" style="fill: #4c72b0; fill-opacity: 0.2; stroke: #4c72b0; stroke-opacity: 0.2; stroke-width: 0.8"/>
    <path d="M 689.0396 -2136.605606 
L 689.0396 -2136.605606 
L 689.0396 -2136.605606 
L 689.0396 -2136.605606 
z
" clip-path="url(#p2a4942657e)" style="fill: #4c72b0; fill-opacity: 0.2; stroke: #4c72b0; stroke-opacity: 0.2; stroke-width: 0.8"/>
    <path d="M 708.2348 -2136.605606 
L 708.2348 -2136.605606 
L 708.2348 -2136.605606 
L 708.2348 -2136.605606 
z
" clip-path="url(#p2a4942657e)" style="fill: #4c72b0; fill-opacity: 0.2; stroke: #4c72b0; stroke-opacity: 0.2; stroke-width: 0.8"/>
    <path d="M 777.65 -2136.605606 
L 777.65 -2136.605606 
L 777.65 -2136.605606 
L 777.65 -2136.605606 
z
" clip-path="url(#p2a4942657e)" style="fill: #4c72b0; fill-opacity: 0.2; stroke: #4c72b0; stroke-opacity: 0.2; stroke-width: 0.8"/>
   </g>
   <g id="PolyCollection_2">
    <path d="M 131.486 477.866112 
L 131.486 496.444695 
L 131.7092 448.008661 
L 131.9324 381.146554 
L 132.1556 327.258874 
L 132.3788 307.300474 
L 132.602 286.344154 
L 132.8252 241.437754 
L 133.0484 217.487674 
L 133.2716 192.539674 
L 133.2716 173.080234 
L 133.2716 173.080234 
L 133.0484 192.539674 
L 132.8252 223.475194 
L 132.602 260.231914 
L 132.3788 294.726682 
L 132.1556 307.300474 
L 131.9324 355.530502 
L 131.7092 428.224897 
L 131.486 477.866112 
z
" clip-path="url(#p2a4942657e)" style="fill: #dd8452; fill-opacity: 0.2; stroke: #dd8452; stroke-opacity: 0.2; stroke-width: 0.8"/>
    <path d="M 133.718 146.385874 
L 133.718 166.593754 
L 133.718 146.385874 
L 133.718 146.385874 
z
" clip-path="url(#p2a4942657e)" style="fill: #dd8452; fill-opacity: 0.2; stroke: #dd8452; stroke-opacity: 0.2; stroke-width: 0.8"/>
    <path d="M 134.1644 122.884858 
L 134.1644 139.649914 
L 134.3876 111.708154 
L 134.3876 82.768474 
L 134.3876 82.768474 
L 134.1644 122.884858 
z
" clip-path="url(#p2a4942657e)" style="fill: #dd8452; fill-opacity: 0.2; stroke: #dd8452; stroke-opacity: 0.2; stroke-width: 0.8"/>
    <path d="M 134.834 52.830874 
L 134.834 82.768474 
L 135.0572 52.830874 
L 135.2804 21.895354 
L 135.5036 21.895354 
L 135.5036 21.895354 
L 135.5036 21.895354 
L 135.2804 21.895354 
L 135.0572 21.895354 
L 134.834 52.830874 
z
" clip-path="url(#p2a4942657e)" style="fill: #dd8452; fill-opacity: 0.2; stroke: #dd8452; stroke-opacity: 0.2; stroke-width: 0.8"/>
    <path d="M 136.3964 21.895354 
L 136.3964 21.895354 
L 136.8428 21.895354 
L 137.066 21.895354 
L 137.066 21.895354 
L 137.066 21.895354 
L 136.8428 21.895354 
L 136.3964 21.895354 
z
" clip-path="url(#p2a4942657e)" style="fill: #dd8452; fill-opacity: 0.2; stroke: #dd8452; stroke-opacity: 0.2; stroke-width: 0.8"/>
    <path d="M 137.7356 21.895354 
L 137.7356 21.895354 
L 137.9588 21.895354 
L 138.182 21.895354 
L 138.182 21.895354 
L 138.182 21.895354 
L 137.9588 21.895354 
L 137.7356 21.895354 
z
" clip-path="url(#p2a4942657e)" style="fill: #dd8452; fill-opacity: 0.2; stroke: #dd8452; stroke-opacity: 0.2; stroke-width: 0.8"/>
    <path d="M 139.5212 21.895354 
L 139.5212 21.895354 
L 139.5212 21.895354 
L 139.5212 21.895354 
z
" clip-path="url(#p2a4942657e)" style="fill: #dd8452; fill-opacity: 0.2; stroke: #dd8452; stroke-opacity: 0.2; stroke-width: 0.8"/>
    <path d="M 140.1908 21.895354 
L 140.1908 21.895354 
L 140.1908 21.895354 
L 140.1908 21.895354 
z
" clip-path="url(#p2a4942657e)" style="fill: #dd8452; fill-opacity: 0.2; stroke: #dd8452; stroke-opacity: 0.2; stroke-width: 0.8"/>
    <path d="M 141.0836 21.895354 
L 141.0836 21.895354 
L 141.0836 21.895354 
L 141.0836 21.895354 
z
" clip-path="url(#p2a4942657e)" style="fill: #dd8452; fill-opacity: 0.2; stroke: #dd8452; stroke-opacity: 0.2; stroke-width: 0.8"/>
    <path d="M 141.9764 21.895354 
L 141.9764 21.895354 
L 141.9764 21.895354 
L 141.9764 21.895354 
z
" clip-path="url(#p2a4942657e)" style="fill: #dd8452; fill-opacity: 0.2; stroke: #dd8452; stroke-opacity: 0.2; stroke-width: 0.8"/>
    <path d="M 143.3156 21.895354 
L 143.3156 21.895354 
L 143.5388 21.895354 
L 143.5388 21.895354 
L 143.5388 21.895354 
L 143.3156 21.895354 
z
" clip-path="url(#p2a4942657e)" style="fill: #dd8452; fill-opacity: 0.2; stroke: #dd8452; stroke-opacity: 0.2; stroke-width: 0.8"/>
    <path d="M 145.7708 21.895354 
L 145.7708 21.895354 
L 145.7708 21.895354 
L 145.7708 21.895354 
z
" clip-path="url(#p2a4942657e)" style="fill: #dd8452; fill-opacity: 0.2; stroke: #dd8452; stroke-opacity: 0.2; stroke-width: 0.8"/>
    <path d="M 148.0028 21.895354 
L 148.0028 21.895354 
L 148.0028 21.895354 
L 148.0028 21.895354 
z
" clip-path="url(#p2a4942657e)" style="fill: #dd8452; fill-opacity: 0.2; stroke: #dd8452; stroke-opacity: 0.2; stroke-width: 0.8"/>
    <path d="M 149.1188 21.895354 
L 149.1188 21.895354 
L 149.1188 21.895354 
L 149.1188 21.895354 
z
" clip-path="url(#p2a4942657e)" style="fill: #dd8452; fill-opacity: 0.2; stroke: #dd8452; stroke-opacity: 0.2; stroke-width: 0.8"/>
    <path d="M 149.7884 21.895354 
L 149.7884 21.895354 
L 149.7884 21.895354 
L 149.7884 21.895354 
z
" clip-path="url(#p2a4942657e)" style="fill: #dd8452; fill-opacity: 0.2; stroke: #dd8452; stroke-opacity: 0.2; stroke-width: 0.8"/>
    <path d="M 153.3596 21.895354 
L 153.3596 21.895354 
L 153.3596 21.895354 
L 153.3596 21.895354 
z
" clip-path="url(#p2a4942657e)" style="fill: #dd8452; fill-opacity: 0.2; stroke: #dd8452; stroke-opacity: 0.2; stroke-width: 0.8"/>
    <path d="M 154.2524 21.895354 
L 154.2524 21.895354 
L 154.2524 21.895354 
L 154.2524 21.895354 
z
" clip-path="url(#p2a4942657e)" style="fill: #dd8452; fill-opacity: 0.2; stroke: #dd8452; stroke-opacity: 0.2; stroke-width: 0.8"/>
    <path d="M 155.5916 21.895354 
L 155.5916 21.895354 
L 155.5916 21.895354 
L 155.5916 21.895354 
z
" clip-path="url(#p2a4942657e)" style="fill: #dd8452; fill-opacity: 0.2; stroke: #dd8452; stroke-opacity: 0.2; stroke-width: 0.8"/>
    <path d="M 158.0468 21.895354 
L 158.0468 21.895354 
L 158.0468 21.895354 
L 158.0468 21.895354 
z
" clip-path="url(#p2a4942657e)" style="fill: #dd8452; fill-opacity: 0.2; stroke: #dd8452; stroke-opacity: 0.2; stroke-width: 0.8"/>
    <path d="M 159.1628 18.901594 
L 159.1628 18.901594 
L 159.386 18.901594 
L 159.386 11.417194 
L 159.386 11.417194 
L 159.1628 18.901594 
z
" clip-path="url(#p2a4942657e)" style="fill: #dd8452; fill-opacity: 0.2; stroke: #dd8452; stroke-opacity: 0.2; stroke-width: 0.8"/>
    <path d="M 160.502 11.417194 
L 160.502 11.417194 
L 160.502 11.417194 
L 160.502 11.417194 
z
" clip-path="url(#p2a4942657e)" style="fill: #dd8452; fill-opacity: 0.2; stroke: #dd8452; stroke-opacity: 0.2; stroke-width: 0.8"/>
    <path d="M 166.5284 11.417194 
L 166.5284 11.417194 
L 166.5284 11.417194 
L 166.5284 11.417194 
z
" clip-path="url(#p2a4942657e)" style="fill: #dd8452; fill-opacity: 0.2; stroke: #dd8452; stroke-opacity: 0.2; stroke-width: 0.8"/>
    <path d="M 170.9924 11.417194 
L 170.9924 11.417194 
L 170.9924 11.417194 
L 170.9924 11.417194 
z
" clip-path="url(#p2a4942657e)" style="fill: #dd8452; fill-opacity: 0.2; stroke: #dd8452; stroke-opacity: 0.2; stroke-width: 0.8"/>
    <path d="M 184.3844 -101.347766 
L 184.3844 -101.347766 
L 184.3844 -101.347766 
L 184.3844 -101.347766 
z
" clip-path="url(#p2a4942657e)" style="fill: #dd8452; fill-opacity: 0.2; stroke: #dd8452; stroke-opacity: 0.2; stroke-width: 0.8"/>
    <path d="M 195.3212 -229.580486 
L 195.3212 -229.580486 
L 195.3212 -229.580486 
L 195.3212 -229.580486 
z
" clip-path="url(#p2a4942657e)" style="fill: #dd8452; fill-opacity: 0.2; stroke: #dd8452; stroke-opacity: 0.2; stroke-width: 0.8"/>
    <path d="M 196.4372 -229.580486 
L 196.4372 -229.580486 
L 196.4372 -229.580486 
L 196.4372 -229.580486 
z
" clip-path="url(#p2a4942657e)" style="fill: #dd8452; fill-opacity: 0.2; stroke: #dd8452; stroke-opacity: 0.2; stroke-width: 0.8"/>
    <path d="M 199.3388 -229.580486 
L 199.3388 -229.580486 
L 199.3388 -229.580486 
L 199.3388 -229.580486 
z
" clip-path="url(#p2a4942657e)" style="fill: #dd8452; fill-opacity: 0.2; stroke: #dd8452; stroke-opacity: 0.2; stroke-width: 0.8"/>
    <path d="M 215.6324 -229.580486 
L 215.6324 -229.580486 
L 215.6324 -229.580486 
L 215.6324 -229.580486 
z
" clip-path="url(#p2a4942657e)" style="fill: #dd8452; fill-opacity: 0.2; stroke: #dd8452; stroke-opacity: 0.2; stroke-width: 0.8"/>
    <path d="M 241.3004 -374.278886 
L 241.3004 -374.278886 
L 241.7468 -374.278886 
L 241.7468 -374.278886 
L 241.7468 -374.278886 
L 241.3004 -374.278886 
z
" clip-path="url(#p2a4942657e)" style="fill: #dd8452; fill-opacity: 0.2; stroke: #dd8452; stroke-opacity: 0.2; stroke-width: 0.8"/>
    <path d="M 257.1476 -536.440886 
L 257.1476 -374.278886 
L 257.1476 -536.440886 
L 257.1476 -536.440886 
z
" clip-path="url(#p2a4942657e)" style="fill: #dd8452; fill-opacity: 0.2; stroke: #dd8452; stroke-opacity: 0.2; stroke-width: 0.8"/>
    <path d="M 260.7188 -536.440886 
L 260.7188 -536.440886 
L 260.7188 -536.440886 
L 260.7188 -536.440886 
z
" clip-path="url(#p2a4942657e)" style="fill: #dd8452; fill-opacity: 0.2; stroke: #dd8452; stroke-opacity: 0.2; stroke-width: 0.8"/>
    <path d="M 268.0844 -536.440886 
L 268.0844 -536.440886 
L 268.0844 -536.440886 
L 268.0844 -536.440886 
z
" clip-path="url(#p2a4942657e)" style="fill: #dd8452; fill-opacity: 0.2; stroke: #dd8452; stroke-opacity: 0.2; stroke-width: 0.8"/>
    <path d="M 289.7348 -536.440886 
L 289.7348 -536.440886 
L 289.7348 -536.440886 
L 289.7348 -536.440886 
z
" clip-path="url(#p2a4942657e)" style="fill: #dd8452; fill-opacity: 0.2; stroke: #dd8452; stroke-opacity: 0.2; stroke-width: 0.8"/>
    <path d="M 307.814 -717.064406 
L 307.814 -536.440886 
L 307.814 -717.064406 
L 307.814 -717.064406 
z
" clip-path="url(#p2a4942657e)" style="fill: #dd8452; fill-opacity: 0.2; stroke: #dd8452; stroke-opacity: 0.2; stroke-width: 0.8"/>
    <path d="M 430.7972 -917.147366 
L 430.7972 -917.147366 
L 430.7972 -917.147366 
L 430.7972 -917.147366 
z
" clip-path="url(#p2a4942657e)" style="fill: #dd8452; fill-opacity: 0.2; stroke: #dd8452; stroke-opacity: 0.2; stroke-width: 0.8"/>
    <path d="M 586.5908 -1379.683286 
L 586.5908 -1379.683286 
L 586.5908 -1379.683286 
L 586.5908 -1379.683286 
z
" clip-path="url(#p2a4942657e)" style="fill: #dd8452; fill-opacity: 0.2; stroke: #dd8452; stroke-opacity: 0.2; stroke-width: 0.8"/>
    <path d="M 680.3348 -1644.132086 
L 680.3348 -1379.683286 
L 680.3348 -1644.132086 
L 680.3348 -1644.132086 
z
" clip-path="url(#p2a4942657e)" style="fill: #dd8452; fill-opacity: 0.2; stroke: #dd8452; stroke-opacity: 0.2; stroke-width: 0.8"/>
   </g>
   <g id="line2d_11">
    <path d="M 131.486 474.143194 
L 132.3788 44.847514 
L 132.602 44.847514 
L 132.8252 39.109474 
L 132.929454 -1 
L 132.929454 -1 
" clip-path="url(#p2a4942657e)" style="fill: none; stroke: #4c72b0; stroke-width: 2.5; stroke-linecap: round"/>
   </g>
   <g id="line2d_12">
    <path d="M 131.486 487.923994 
L 132.3788 303.10921 
L 133.4948 166.593754 
L 133.718 159.857794 
L 133.9412 139.649914 
L 134.1644 134.061562 
L 134.6108 82.768474 
L 134.834 67.799674 
L 135.2804 21.895354 
L 158.4932 21.895354 
L 158.9396 18.901594 
L 159.1628 18.901594 
L 159.386 15.159394 
L 159.8324 11.417194 
L 175.2332 11.417194 
L 175.331511 -1 
L 175.331511 -1 
" clip-path="url(#p2a4942657e)" style="fill: none; stroke: #dd8452; stroke-width: 2.5; stroke-linecap: round"/>
   </g>
   <g id="patch_3">
    <path d="M 131.486 517.861594 
L 131.486 18.901594 
" style="fill: none; stroke: #cccccc; stroke-linejoin: miter; stroke-linecap: square"/>
   </g>
   <g id="patch_4">
    <path d="M 801.086 517.861594 
L 801.086 18.901594 
" style="fill: none; stroke: #cccccc; stroke-linejoin: miter; stroke-linecap: square"/>
   </g>
   <g id="patch_5">
    <path d="M 131.486 517.861594 
L 801.086 517.861594 
" style="fill: none; stroke: #cccccc; stroke-linejoin: miter; stroke-linecap: square"/>
   </g>
   <g id="patch_6">
    <path d="M 131.486 18.901594 
L 801.086 18.901594 
" style="fill: none; stroke: #cccccc; stroke-linejoin: miter; stroke-linecap: square"/>
   </g>
  </g>
 </g>
 <defs>
  <clipPath id="p2a4942657e">
   <rect x="131.486" y="18.901594" width="669.6" height="498.96"/>
  </clipPath>
 </defs>
</svg>
