<?xml version="1.0" encoding="utf-8" standalone="no"?>
<!DOCTYPE svg PUBLIC "-//W3C//DTD SVG 1.1//EN"
  "http://www.w3.org/Graphics/SVG/1.1/DTD/svg11.dtd">
<svg xmlns:xlink="http://www.w3.org/1999/xlink" width="837.68075pt" height="599.688719pt" viewBox="0 0 837.68075 599.688719" xmlns="http://www.w3.org/2000/svg" version="1.1">
 <metadata>
  <rdf:RDF xmlns:dc="http://purl.org/dc/elements/1.1/" xmlns:cc="http://creativecommons.org/ns#" xmlns:rdf="http://www.w3.org/1999/02/22-rdf-syntax-ns#">
   <cc:Work>
    <dc:type rdf:resource="http://purl.org/dc/dcmitype/StillImage"/>
    <dc:date>2022-07-08T12:58:45.990585</dc:date>
    <dc:format>image/svg+xml</dc:format>
    <dc:creator>
     <cc:Agent>
      <dc:title>Matplotlib v3.5.0, https://matplotlib.org/</dc:title>
     </cc:Agent>
    </dc:creator>
   </cc:Work>
  </rdf:RDF>
 </metadata>
 <defs>
  <style type="text/css">*{stroke-linejoin: round; stroke-linecap: butt}</style>
 </defs>
 <g id="figure_1">
  <g id="patch_1">
   <path d="M 0 599.688719 
L 837.68075 599.688719 
L 837.68075 0 
L 0 0 
z
" style="fill: #ffffff"/>
  </g>
  <g id="axes_1">
   <g id="patch_2">
    <path d="M 131.486 517.861594 
L 801.086 517.861594 
L 801.086 18.901594 
L 131.486 18.901594 
z
" style="fill: #ffffff"/>
   </g>
   <g id="matplotlib.axis_1">
    <g id="xtick_1">
     <g id="line2d_1">
      <path d="M 131.486 517.861594 
L 131.486 18.901594 
" clip-path="url(#pe2a0048e5c)" style="fill: none; stroke: #cccccc; stroke-width: 0.8; stroke-linecap: round"/>
     </g>
     <g id="text_1">
      <!-- 0 -->
      <g style="fill: #262626" transform="translate(121.68775 549.564781)scale(0.308 -0.308)">
       <defs>
        <path id="DejaVuSans-30" d="M 2034 4250 
Q 1547 4250 1301 3770 
Q 1056 3291 1056 2328 
Q 1056 1369 1301 889 
Q 1547 409 2034 409 
Q 2525 409 2770 889 
Q 3016 1369 3016 2328 
Q 3016 3291 2770 3770 
Q 2525 4250 2034 4250 
z
M 2034 4750 
Q 2819 4750 3233 4129 
Q 3647 3509 3647 2328 
Q 3647 1150 3233 529 
Q 2819 -91 2034 -91 
Q 1250 -91 836 529 
Q 422 1150 422 2328 
Q 422 3509 836 4129 
Q 1250 4750 2034 4750 
z
" transform="scale(0.015625)"/>
       </defs>
       <use xlink:href="#DejaVuSans-30"/>
      </g>
     </g>
    </g>
    <g id="xtick_2">
     <g id="line2d_2">
      <path d="M 354.686 517.861594 
L 354.686 18.901594 
" clip-path="url(#pe2a0048e5c)" style="fill: none; stroke: #cccccc; stroke-width: 0.8; stroke-linecap: round"/>
     </g>
     <g id="text_2">
      <!-- 100 -->
      <g style="fill: #262626" transform="translate(325.29125 549.564781)scale(0.308 -0.308)">
       <defs>
        <path id="DejaVuSans-31" d="M 794 531 
L 1825 531 
L 1825 4091 
L 703 3866 
L 703 4441 
L 1819 4666 
L 2450 4666 
L 2450 531 
L 3481 531 
L 3481 0 
L 794 0 
L 794 531 
z
" transform="scale(0.015625)"/>
       </defs>
       <use xlink:href="#DejaVuSans-31"/>
       <use xlink:href="#DejaVuSans-30" x="63.623047"/>
       <use xlink:href="#DejaVuSans-30" x="127.246094"/>
      </g>
     </g>
    </g>
    <g id="xtick_3">
     <g id="line2d_3">
      <path d="M 577.886 517.861594 
L 577.886 18.901594 
" clip-path="url(#pe2a0048e5c)" style="fill: none; stroke: #cccccc; stroke-width: 0.8; stroke-linecap: round"/>
     </g>
     <g id="text_3">
      <!-- 200 -->
      <g style="fill: #262626" transform="translate(548.49125 549.564781)scale(0.308 -0.308)">
       <defs>
        <path id="DejaVuSans-32" d="M 1228 531 
L 3431 531 
L 3431 0 
L 469 0 
L 469 531 
Q 828 903 1448 1529 
Q 2069 2156 2228 2338 
Q 2531 2678 2651 2914 
Q 2772 3150 2772 3378 
Q 2772 3750 2511 3984 
Q 2250 4219 1831 4219 
Q 1534 4219 1204 4116 
Q 875 4013 500 3803 
L 500 4441 
Q 881 4594 1212 4672 
Q 1544 4750 1819 4750 
Q 2544 4750 2975 4387 
Q 3406 4025 3406 3419 
Q 3406 3131 3298 2873 
Q 3191 2616 2906 2266 
Q 2828 2175 2409 1742 
Q 1991 1309 1228 531 
z
" transform="scale(0.015625)"/>
       </defs>
       <use xlink:href="#DejaVuSans-32"/>
       <use xlink:href="#DejaVuSans-30" x="63.623047"/>
       <use xlink:href="#DejaVuSans-30" x="127.246094"/>
      </g>
     </g>
    </g>
    <g id="xtick_4">
     <g id="line2d_4">
      <path d="M 801.086 517.861594 
L 801.086 18.901594 
" clip-path="url(#pe2a0048e5c)" style="fill: none; stroke: #cccccc; stroke-width: 0.8; stroke-linecap: round"/>
     </g>
     <g id="text_4">
      <!-- 300 -->
      <g style="fill: #262626" transform="translate(771.69125 549.564781)scale(0.308 -0.308)">
       <defs>
        <path id="DejaVuSans-33" d="M 2597 2516 
Q 3050 2419 3304 2112 
Q 3559 1806 3559 1356 
Q 3559 666 3084 287 
Q 2609 -91 1734 -91 
Q 1441 -91 1130 -33 
Q 819 25 488 141 
L 488 750 
Q 750 597 1062 519 
Q 1375 441 1716 441 
Q 2309 441 2620 675 
Q 2931 909 2931 1356 
Q 2931 1769 2642 2001 
Q 2353 2234 1838 2234 
L 1294 2234 
L 1294 2753 
L 1863 2753 
Q 2328 2753 2575 2939 
Q 2822 3125 2822 3475 
Q 2822 3834 2567 4026 
Q 2313 4219 1838 4219 
Q 1578 4219 1281 4162 
Q 984 4106 628 3988 
L 628 4550 
Q 988 4650 1302 4700 
Q 1616 4750 1894 4750 
Q 2613 4750 3031 4423 
Q 3450 4097 3450 3541 
Q 3450 3153 3228 2886 
Q 3006 2619 2597 2516 
z
" transform="scale(0.015625)"/>
       </defs>
       <use xlink:href="#DejaVuSans-33"/>
       <use xlink:href="#DejaVuSans-30" x="63.623047"/>
       <use xlink:href="#DejaVuSans-30" x="127.246094"/>
      </g>
     </g>
    </g>
    <g id="text_5">
     <!-- Time cutoff (s) -->
     <g style="fill: #262626" transform="translate(344.063375 585.500969)scale(0.336 -0.336)">
      <defs>
       <path id="DejaVuSans-54" d="M -19 4666 
L 3928 4666 
L 3928 4134 
L 2272 4134 
L 2272 0 
L 1638 0 
L 1638 4134 
L -19 4134 
L -19 4666 
z
" transform="scale(0.015625)"/>
       <path id="DejaVuSans-69" d="M 603 3500 
L 1178 3500 
L 1178 0 
L 603 0 
L 603 3500 
z
M 603 4863 
L 1178 4863 
L 1178 4134 
L 603 4134 
L 603 4863 
z
" transform="scale(0.015625)"/>
       <path id="DejaVuSans-6d" d="M 3328 2828 
Q 3544 3216 3844 3400 
Q 4144 3584 4550 3584 
Q 5097 3584 5394 3201 
Q 5691 2819 5691 2113 
L 5691 0 
L 5113 0 
L 5113 2094 
Q 5113 2597 4934 2840 
Q 4756 3084 4391 3084 
Q 3944 3084 3684 2787 
Q 3425 2491 3425 1978 
L 3425 0 
L 2847 0 
L 2847 2094 
Q 2847 2600 2669 2842 
Q 2491 3084 2119 3084 
Q 1678 3084 1418 2786 
Q 1159 2488 1159 1978 
L 1159 0 
L 581 0 
L 581 3500 
L 1159 3500 
L 1159 2956 
Q 1356 3278 1631 3431 
Q 1906 3584 2284 3584 
Q 2666 3584 2933 3390 
Q 3200 3197 3328 2828 
z
" transform="scale(0.015625)"/>
       <path id="DejaVuSans-65" d="M 3597 1894 
L 3597 1613 
L 953 1613 
Q 991 1019 1311 708 
Q 1631 397 2203 397 
Q 2534 397 2845 478 
Q 3156 559 3463 722 
L 3463 178 
Q 3153 47 2828 -22 
Q 2503 -91 2169 -91 
Q 1331 -91 842 396 
Q 353 884 353 1716 
Q 353 2575 817 3079 
Q 1281 3584 2069 3584 
Q 2775 3584 3186 3129 
Q 3597 2675 3597 1894 
z
M 3022 2063 
Q 3016 2534 2758 2815 
Q 2500 3097 2075 3097 
Q 1594 3097 1305 2825 
Q 1016 2553 972 2059 
L 3022 2063 
z
" transform="scale(0.015625)"/>
       <path id="DejaVuSans-20" transform="scale(0.015625)"/>
       <path id="DejaVuSans-63" d="M 3122 3366 
L 3122 2828 
Q 2878 2963 2633 3030 
Q 2388 3097 2138 3097 
Q 1578 3097 1268 2742 
Q 959 2388 959 1747 
Q 959 1106 1268 751 
Q 1578 397 2138 397 
Q 2388 397 2633 464 
Q 2878 531 3122 666 
L 3122 134 
Q 2881 22 2623 -34 
Q 2366 -91 2075 -91 
Q 1284 -91 818 406 
Q 353 903 353 1747 
Q 353 2603 823 3093 
Q 1294 3584 2113 3584 
Q 2378 3584 2631 3529 
Q 2884 3475 3122 3366 
z
" transform="scale(0.015625)"/>
       <path id="DejaVuSans-75" d="M 544 1381 
L 544 3500 
L 1119 3500 
L 1119 1403 
Q 1119 906 1312 657 
Q 1506 409 1894 409 
Q 2359 409 2629 706 
Q 2900 1003 2900 1516 
L 2900 3500 
L 3475 3500 
L 3475 0 
L 2900 0 
L 2900 538 
Q 2691 219 2414 64 
Q 2138 -91 1772 -91 
Q 1169 -91 856 284 
Q 544 659 544 1381 
z
M 1991 3584 
L 1991 3584 
z
" transform="scale(0.015625)"/>
       <path id="DejaVuSans-74" d="M 1172 4494 
L 1172 3500 
L 2356 3500 
L 2356 3053 
L 1172 3053 
L 1172 1153 
Q 1172 725 1289 603 
Q 1406 481 1766 481 
L 2356 481 
L 2356 0 
L 1766 0 
Q 1100 0 847 248 
Q 594 497 594 1153 
L 594 3053 
L 172 3053 
L 172 3500 
L 594 3500 
L 594 4494 
L 1172 4494 
z
" transform="scale(0.015625)"/>
       <path id="DejaVuSans-6f" d="M 1959 3097 
Q 1497 3097 1228 2736 
Q 959 2375 959 1747 
Q 959 1119 1226 758 
Q 1494 397 1959 397 
Q 2419 397 2687 759 
Q 2956 1122 2956 1747 
Q 2956 2369 2687 2733 
Q 2419 3097 1959 3097 
z
M 1959 3584 
Q 2709 3584 3137 3096 
Q 3566 2609 3566 1747 
Q 3566 888 3137 398 
Q 2709 -91 1959 -91 
Q 1206 -91 779 398 
Q 353 888 353 1747 
Q 353 2609 779 3096 
Q 1206 3584 1959 3584 
z
" transform="scale(0.015625)"/>
       <path id="DejaVuSans-66" d="M 2375 4863 
L 2375 4384 
L 1825 4384 
Q 1516 4384 1395 4259 
Q 1275 4134 1275 3809 
L 1275 3500 
L 2222 3500 
L 2222 3053 
L 1275 3053 
L 1275 0 
L 697 0 
L 697 3053 
L 147 3053 
L 147 3500 
L 697 3500 
L 697 3744 
Q 697 4328 969 4595 
Q 1241 4863 1831 4863 
L 2375 4863 
z
" transform="scale(0.015625)"/>
       <path id="DejaVuSans-28" d="M 1984 4856 
Q 1566 4138 1362 3434 
Q 1159 2731 1159 2009 
Q 1159 1288 1364 580 
Q 1569 -128 1984 -844 
L 1484 -844 
Q 1016 -109 783 600 
Q 550 1309 550 2009 
Q 550 2706 781 3412 
Q 1013 4119 1484 4856 
L 1984 4856 
z
" transform="scale(0.015625)"/>
       <path id="DejaVuSans-73" d="M 2834 3397 
L 2834 2853 
Q 2591 2978 2328 3040 
Q 2066 3103 1784 3103 
Q 1356 3103 1142 2972 
Q 928 2841 928 2578 
Q 928 2378 1081 2264 
Q 1234 2150 1697 2047 
L 1894 2003 
Q 2506 1872 2764 1633 
Q 3022 1394 3022 966 
Q 3022 478 2636 193 
Q 2250 -91 1575 -91 
Q 1294 -91 989 -36 
Q 684 19 347 128 
L 347 722 
Q 666 556 975 473 
Q 1284 391 1588 391 
Q 1994 391 2212 530 
Q 2431 669 2431 922 
Q 2431 1156 2273 1281 
Q 2116 1406 1581 1522 
L 1381 1569 
Q 847 1681 609 1914 
Q 372 2147 372 2553 
Q 372 3047 722 3315 
Q 1072 3584 1716 3584 
Q 2034 3584 2315 3537 
Q 2597 3491 2834 3397 
z
" transform="scale(0.015625)"/>
       <path id="DejaVuSans-29" d="M 513 4856 
L 1013 4856 
Q 1481 4119 1714 3412 
Q 1947 2706 1947 2009 
Q 1947 1309 1714 600 
Q 1481 -109 1013 -844 
L 513 -844 
Q 928 -128 1133 580 
Q 1338 1288 1338 2009 
Q 1338 2731 1133 3434 
Q 928 4138 513 4856 
z
" transform="scale(0.015625)"/>
      </defs>
      <use xlink:href="#DejaVuSans-54"/>
      <use xlink:href="#DejaVuSans-69" x="57.958984"/>
      <use xlink:href="#DejaVuSans-6d" x="85.742188"/>
      <use xlink:href="#DejaVuSans-65" x="183.154297"/>
      <use xlink:href="#DejaVuSans-20" x="244.677734"/>
      <use xlink:href="#DejaVuSans-63" x="276.464844"/>
      <use xlink:href="#DejaVuSans-75" x="331.445312"/>
      <use xlink:href="#DejaVuSans-74" x="394.824219"/>
      <use xlink:href="#DejaVuSans-6f" x="434.033203"/>
      <use xlink:href="#DejaVuSans-66" x="495.214844"/>
      <use xlink:href="#DejaVuSans-66" x="530.419922"/>
      <use xlink:href="#DejaVuSans-20" x="565.625"/>
      <use xlink:href="#DejaVuSans-28" x="597.412109"/>
      <use xlink:href="#DejaVuSans-73" x="636.425781"/>
      <use xlink:href="#DejaVuSans-29" x="688.525391"/>
     </g>
    </g>
   </g>
   <g id="matplotlib.axis_2">
    <g id="ytick_1">
     <g id="line2d_5">
      <path d="M 131.486 517.861594 
L 801.086 517.861594 
" clip-path="url(#pe2a0048e5c)" style="fill: none; stroke: #cccccc; stroke-width: 0.8; stroke-linecap: round"/>
     </g>
     <g id="text_6">
      <!-- 0 -->
      <g style="fill: #262626" transform="translate(103.5895 529.563188)scale(0.308 -0.308)">
       <use xlink:href="#DejaVuSans-30"/>
      </g>
     </g>
    </g>
    <g id="ytick_2">
     <g id="line2d_6">
      <path d="M 131.486 418.069594 
L 801.086 418.069594 
" clip-path="url(#pe2a0048e5c)" style="fill: none; stroke: #cccccc; stroke-width: 0.8; stroke-linecap: round"/>
     </g>
     <g id="text_7">
      <!-- 200 -->
      <g style="fill: #262626" transform="translate(64.3965 429.771188)scale(0.308 -0.308)">
       <use xlink:href="#DejaVuSans-32"/>
       <use xlink:href="#DejaVuSans-30" x="63.623047"/>
       <use xlink:href="#DejaVuSans-30" x="127.246094"/>
      </g>
     </g>
    </g>
    <g id="ytick_3">
     <g id="line2d_7">
      <path d="M 131.486 318.277594 
L 801.086 318.277594 
" clip-path="url(#pe2a0048e5c)" style="fill: none; stroke: #cccccc; stroke-width: 0.8; stroke-linecap: round"/>
     </g>
     <g id="text_8">
      <!-- 400 -->
      <g style="fill: #262626" transform="translate(64.3965 329.979188)scale(0.308 -0.308)">
       <defs>
        <path id="DejaVuSans-34" d="M 2419 4116 
L 825 1625 
L 2419 1625 
L 2419 4116 
z
M 2253 4666 
L 3047 4666 
L 3047 1625 
L 3713 1625 
L 3713 1100 
L 3047 1100 
L 3047 0 
L 2419 0 
L 2419 1100 
L 313 1100 
L 313 1709 
L 2253 4666 
z
" transform="scale(0.015625)"/>
       </defs>
       <use xlink:href="#DejaVuSans-34"/>
       <use xlink:href="#DejaVuSans-30" x="63.623047"/>
       <use xlink:href="#DejaVuSans-30" x="127.246094"/>
      </g>
     </g>
    </g>
    <g id="ytick_4">
     <g id="line2d_8">
      <path d="M 131.486 218.485594 
L 801.086 218.485594 
" clip-path="url(#pe2a0048e5c)" style="fill: none; stroke: #cccccc; stroke-width: 0.8; stroke-linecap: round"/>
     </g>
     <g id="text_9">
      <!-- 600 -->
      <g style="fill: #262626" transform="translate(64.3965 230.187188)scale(0.308 -0.308)">
       <defs>
        <path id="DejaVuSans-36" d="M 2113 2584 
Q 1688 2584 1439 2293 
Q 1191 2003 1191 1497 
Q 1191 994 1439 701 
Q 1688 409 2113 409 
Q 2538 409 2786 701 
Q 3034 994 3034 1497 
Q 3034 2003 2786 2293 
Q 2538 2584 2113 2584 
z
M 3366 4563 
L 3366 3988 
Q 3128 4100 2886 4159 
Q 2644 4219 2406 4219 
Q 1781 4219 1451 3797 
Q 1122 3375 1075 2522 
Q 1259 2794 1537 2939 
Q 1816 3084 2150 3084 
Q 2853 3084 3261 2657 
Q 3669 2231 3669 1497 
Q 3669 778 3244 343 
Q 2819 -91 2113 -91 
Q 1303 -91 875 529 
Q 447 1150 447 2328 
Q 447 3434 972 4092 
Q 1497 4750 2381 4750 
Q 2619 4750 2861 4703 
Q 3103 4656 3366 4563 
z
" transform="scale(0.015625)"/>
       </defs>
       <use xlink:href="#DejaVuSans-36"/>
       <use xlink:href="#DejaVuSans-30" x="63.623047"/>
       <use xlink:href="#DejaVuSans-30" x="127.246094"/>
      </g>
     </g>
    </g>
    <g id="ytick_5">
     <g id="line2d_9">
      <path d="M 131.486 118.693594 
L 801.086 118.693594 
" clip-path="url(#pe2a0048e5c)" style="fill: none; stroke: #cccccc; stroke-width: 0.8; stroke-linecap: round"/>
     </g>
     <g id="text_10">
      <!-- 800 -->
      <g style="fill: #262626" transform="translate(64.3965 130.395188)scale(0.308 -0.308)">
       <defs>
        <path id="DejaVuSans-38" d="M 2034 2216 
Q 1584 2216 1326 1975 
Q 1069 1734 1069 1313 
Q 1069 891 1326 650 
Q 1584 409 2034 409 
Q 2484 409 2743 651 
Q 3003 894 3003 1313 
Q 3003 1734 2745 1975 
Q 2488 2216 2034 2216 
z
M 1403 2484 
Q 997 2584 770 2862 
Q 544 3141 544 3541 
Q 544 4100 942 4425 
Q 1341 4750 2034 4750 
Q 2731 4750 3128 4425 
Q 3525 4100 3525 3541 
Q 3525 3141 3298 2862 
Q 3072 2584 2669 2484 
Q 3125 2378 3379 2068 
Q 3634 1759 3634 1313 
Q 3634 634 3220 271 
Q 2806 -91 2034 -91 
Q 1263 -91 848 271 
Q 434 634 434 1313 
Q 434 1759 690 2068 
Q 947 2378 1403 2484 
z
M 1172 3481 
Q 1172 3119 1398 2916 
Q 1625 2713 2034 2713 
Q 2441 2713 2670 2916 
Q 2900 3119 2900 3481 
Q 2900 3844 2670 4047 
Q 2441 4250 2034 4250 
Q 1625 4250 1398 4047 
Q 1172 3844 1172 3481 
z
" transform="scale(0.015625)"/>
       </defs>
       <use xlink:href="#DejaVuSans-38"/>
       <use xlink:href="#DejaVuSans-30" x="63.623047"/>
       <use xlink:href="#DejaVuSans-30" x="127.246094"/>
      </g>
     </g>
    </g>
    <g id="ytick_6">
     <g id="line2d_10">
      <path d="M 131.486 18.901594 
L 801.086 18.901594 
" clip-path="url(#pe2a0048e5c)" style="fill: none; stroke: #cccccc; stroke-width: 0.8; stroke-linecap: round"/>
     </g>
     <g id="text_11">
      <!-- 1000 -->
      <g style="fill: #262626" transform="translate(44.8 30.603188)scale(0.308 -0.308)">
       <use xlink:href="#DejaVuSans-31"/>
       <use xlink:href="#DejaVuSans-30" x="63.623047"/>
       <use xlink:href="#DejaVuSans-30" x="127.246094"/>
       <use xlink:href="#DejaVuSans-30" x="190.869141"/>
      </g>
     </g>
    </g>
    <g id="text_12">
     <!-- |P| + |P'| -->
     <g style="fill: #262626" transform="translate(32.87775 340.653094)rotate(-90)scale(0.336 -0.336)">
      <defs>
       <path id="DejaVuSans-7c" d="M 1344 4891 
L 1344 -1509 
L 813 -1509 
L 813 4891 
L 1344 4891 
z
" transform="scale(0.015625)"/>
       <path id="DejaVuSans-50" d="M 1259 4147 
L 1259 2394 
L 2053 2394 
Q 2494 2394 2734 2622 
Q 2975 2850 2975 3272 
Q 2975 3691 2734 3919 
Q 2494 4147 2053 4147 
L 1259 4147 
z
M 628 4666 
L 2053 4666 
Q 2838 4666 3239 4311 
Q 3641 3956 3641 3272 
Q 3641 2581 3239 2228 
Q 2838 1875 2053 1875 
L 1259 1875 
L 1259 0 
L 628 0 
L 628 4666 
z
" transform="scale(0.015625)"/>
       <path id="DejaVuSans-2b" d="M 2944 4013 
L 2944 2272 
L 4684 2272 
L 4684 1741 
L 2944 1741 
L 2944 0 
L 2419 0 
L 2419 1741 
L 678 1741 
L 678 2272 
L 2419 2272 
L 2419 4013 
L 2944 4013 
z
" transform="scale(0.015625)"/>
       <path id="DejaVuSans-27" d="M 1147 4666 
L 1147 2931 
L 616 2931 
L 616 4666 
L 1147 4666 
z
" transform="scale(0.015625)"/>
      </defs>
      <use xlink:href="#DejaVuSans-7c"/>
      <use xlink:href="#DejaVuSans-50" x="33.691406"/>
      <use xlink:href="#DejaVuSans-7c" x="93.994141"/>
      <use xlink:href="#DejaVuSans-20" x="127.685547"/>
      <use xlink:href="#DejaVuSans-2b" x="159.472656"/>
      <use xlink:href="#DejaVuSans-20" x="243.261719"/>
      <use xlink:href="#DejaVuSans-7c" x="275.048828"/>
      <use xlink:href="#DejaVuSans-50" x="308.740234"/>
      <use xlink:href="#DejaVuSans-27" x="369.042969"/>
      <use xlink:href="#DejaVuSans-7c" x="396.533203"/>
     </g>
    </g>
   </g>
   <g id="PolyCollection_1">
    <path d="M 131.486 464.264974 
L 131.486 488.591353 
L 131.7092 392.266234 
L 131.9324 281.853514 
L 132.1556 192.539674 
L 132.3788 139.649914 
L 132.602 82.768474 
L 132.8252 21.895354 
L 133.0484 21.895354 
L 133.2716 21.895354 
L 133.4948 21.895354 
L 133.718 21.895354 
L 133.9412 21.895354 
L 134.1644 21.895354 
L 134.3876 21.895354 
L 134.6108 21.895354 
L 134.834 21.895354 
L 135.0572 21.895354 
L 135.2804 21.895354 
L 135.5036 21.895354 
L 135.7268 21.895354 
L 135.95 21.895354 
L 135.95 21.895354 
L 135.95 21.895354 
L 135.7268 21.895354 
L 135.5036 21.895354 
L 135.2804 21.895354 
L 135.0572 21.895354 
L 134.834 21.895354 
L 134.6108 21.895354 
L 134.3876 21.895354 
L 134.1644 21.895354 
L 133.9412 21.895354 
L 133.718 21.895354 
L 133.4948 21.895354 
L 133.2716 21.895354 
L 133.0484 21.895354 
L 132.8252 21.895354 
L 132.602 56.198854 
L 132.3788 114.826654 
L 132.1556 169.143994 
L 131.9324 241.899292 
L 131.7092 364.412386 
L 131.486 464.264974 
z
" clip-path="url(#pe2a0048e5c)" style="fill: #4c72b0; fill-opacity: 0.2; stroke: #4c72b0; stroke-opacity: 0.2; stroke-width: 0.8"/>
    <path d="M 136.3964 21.895354 
L 136.3964 21.895354 
L 136.6196 21.895354 
L 136.8428 21.895354 
L 137.066 21.895354 
L 137.2892 21.895354 
L 137.5124 21.895354 
L 137.5124 21.895354 
L 137.5124 21.895354 
L 137.2892 21.895354 
L 137.066 21.895354 
L 136.8428 21.895354 
L 136.6196 21.895354 
L 136.3964 21.895354 
z
" clip-path="url(#pe2a0048e5c)" style="fill: #4c72b0; fill-opacity: 0.2; stroke: #4c72b0; stroke-opacity: 0.2; stroke-width: 0.8"/>
    <path d="M 137.9588 21.895354 
L 137.9588 21.895354 
L 138.182 21.895354 
L 138.6284 21.895354 
L 139.0748 21.895354 
L 139.298 21.895354 
L 139.5212 21.895354 
L 139.5212 21.895354 
L 139.5212 21.895354 
L 139.298 21.895354 
L 139.0748 21.895354 
L 138.6284 21.895354 
L 138.182 21.895354 
L 137.9588 21.895354 
z
" clip-path="url(#pe2a0048e5c)" style="fill: #4c72b0; fill-opacity: 0.2; stroke: #4c72b0; stroke-opacity: 0.2; stroke-width: 0.8"/>
    <path d="M 139.9676 21.895354 
L 139.9676 21.895354 
L 139.9676 21.895354 
L 139.9676 21.895354 
z
" clip-path="url(#pe2a0048e5c)" style="fill: #4c72b0; fill-opacity: 0.2; stroke: #4c72b0; stroke-opacity: 0.2; stroke-width: 0.8"/>
    <path d="M 141.0836 21.895354 
L 141.0836 21.895354 
L 141.3068 21.895354 
L 141.53 21.895354 
L 141.7532 21.895354 
L 141.7532 21.895354 
L 141.7532 21.895354 
L 141.53 21.895354 
L 141.3068 21.895354 
L 141.0836 21.895354 
z
" clip-path="url(#pe2a0048e5c)" style="fill: #4c72b0; fill-opacity: 0.2; stroke: #4c72b0; stroke-opacity: 0.2; stroke-width: 0.8"/>
    <path d="M 142.1996 21.895354 
L 142.1996 21.895354 
L 142.1996 21.895354 
L 142.1996 21.895354 
z
" clip-path="url(#pe2a0048e5c)" style="fill: #4c72b0; fill-opacity: 0.2; stroke: #4c72b0; stroke-opacity: 0.2; stroke-width: 0.8"/>
    <path d="M 143.762 21.895354 
L 143.762 21.895354 
L 144.2084 21.895354 
L 144.4316 21.895354 
L 144.4316 21.895354 
L 144.4316 21.895354 
L 144.2084 21.895354 
L 143.762 21.895354 
z
" clip-path="url(#pe2a0048e5c)" style="fill: #4c72b0; fill-opacity: 0.2; stroke: #4c72b0; stroke-opacity: 0.2; stroke-width: 0.8"/>
    <path d="M 145.1012 21.895354 
L 145.1012 21.895354 
L 145.3244 21.895354 
L 145.3244 21.895354 
L 145.3244 21.895354 
L 145.1012 21.895354 
z
" clip-path="url(#pe2a0048e5c)" style="fill: #4c72b0; fill-opacity: 0.2; stroke: #4c72b0; stroke-opacity: 0.2; stroke-width: 0.8"/>
    <path d="M 145.7708 21.895354 
L 145.7708 21.895354 
L 145.7708 21.895354 
L 145.7708 21.895354 
z
" clip-path="url(#pe2a0048e5c)" style="fill: #4c72b0; fill-opacity: 0.2; stroke: #4c72b0; stroke-opacity: 0.2; stroke-width: 0.8"/>
    <path d="M 146.4404 21.895354 
L 146.4404 21.895354 
L 146.6636 21.895354 
L 146.6636 18.901594 
L 146.6636 18.901594 
L 146.4404 21.895354 
z
" clip-path="url(#pe2a0048e5c)" style="fill: #4c72b0; fill-opacity: 0.2; stroke: #4c72b0; stroke-opacity: 0.2; stroke-width: 0.8"/>
    <path d="M 148.0028 18.901594 
L 148.0028 18.901594 
L 148.226 18.901594 
L 148.4492 18.901594 
L 148.4492 18.901594 
L 148.4492 18.901594 
L 148.226 18.901594 
L 148.0028 18.901594 
z
" clip-path="url(#pe2a0048e5c)" style="fill: #4c72b0; fill-opacity: 0.2; stroke: #4c72b0; stroke-opacity: 0.2; stroke-width: 0.8"/>
    <path d="M 148.8956 18.901594 
L 148.8956 18.901594 
L 148.8956 18.901594 
L 148.8956 18.901594 
z
" clip-path="url(#pe2a0048e5c)" style="fill: #4c72b0; fill-opacity: 0.2; stroke: #4c72b0; stroke-opacity: 0.2; stroke-width: 0.8"/>
    <path d="M 150.0116 18.901594 
L 150.0116 18.901594 
L 150.0116 18.901594 
L 150.0116 18.901594 
z
" clip-path="url(#pe2a0048e5c)" style="fill: #4c72b0; fill-opacity: 0.2; stroke: #4c72b0; stroke-opacity: 0.2; stroke-width: 0.8"/>
    <path d="M 150.458 18.901594 
L 150.458 18.901594 
L 150.9044 18.901594 
L 150.9044 18.901594 
L 150.9044 18.901594 
L 150.458 18.901594 
z
" clip-path="url(#pe2a0048e5c)" style="fill: #4c72b0; fill-opacity: 0.2; stroke: #4c72b0; stroke-opacity: 0.2; stroke-width: 0.8"/>
    <path d="M 152.69 18.901594 
L 152.69 18.901594 
L 152.9132 18.901594 
L 152.9132 18.901594 
L 152.9132 18.901594 
L 152.69 18.901594 
z
" clip-path="url(#pe2a0048e5c)" style="fill: #4c72b0; fill-opacity: 0.2; stroke: #4c72b0; stroke-opacity: 0.2; stroke-width: 0.8"/>
    <path d="M 153.3596 18.901594 
L 153.3596 18.901594 
L 154.2524 18.901594 
L 154.4756 18.901594 
L 154.4756 18.901594 
L 154.4756 18.901594 
L 154.2524 18.901594 
L 153.3596 18.901594 
z
" clip-path="url(#pe2a0048e5c)" style="fill: #4c72b0; fill-opacity: 0.2; stroke: #4c72b0; stroke-opacity: 0.2; stroke-width: 0.8"/>
    <path d="M 155.8148 18.901594 
L 155.8148 18.901594 
L 155.8148 18.901594 
L 155.8148 18.901594 
z
" clip-path="url(#pe2a0048e5c)" style="fill: #4c72b0; fill-opacity: 0.2; stroke: #4c72b0; stroke-opacity: 0.2; stroke-width: 0.8"/>
    <path d="M 156.4844 18.901594 
L 156.4844 18.901594 
L 156.4844 18.901594 
L 156.4844 18.901594 
z
" clip-path="url(#pe2a0048e5c)" style="fill: #4c72b0; fill-opacity: 0.2; stroke: #4c72b0; stroke-opacity: 0.2; stroke-width: 0.8"/>
    <path d="M 158.0468 18.901594 
L 158.0468 18.901594 
L 158.27 18.901594 
L 158.27 18.901594 
L 158.27 18.901594 
L 158.0468 18.901594 
z
" clip-path="url(#pe2a0048e5c)" style="fill: #4c72b0; fill-opacity: 0.2; stroke: #4c72b0; stroke-opacity: 0.2; stroke-width: 0.8"/>
    <path d="M 159.386 18.901594 
L 159.386 18.901594 
L 159.386 18.901594 
L 159.386 18.901594 
z
" clip-path="url(#pe2a0048e5c)" style="fill: #4c72b0; fill-opacity: 0.2; stroke: #4c72b0; stroke-opacity: 0.2; stroke-width: 0.8"/>
    <path d="M 161.3948 18.901594 
L 161.3948 18.901594 
L 161.3948 18.901594 
L 161.3948 18.901594 
z
" clip-path="url(#pe2a0048e5c)" style="fill: #4c72b0; fill-opacity: 0.2; stroke: #4c72b0; stroke-opacity: 0.2; stroke-width: 0.8"/>
    <path d="M 162.0644 11.417194 
L 162.0644 18.901594 
L 162.5108 11.417194 
L 162.734 11.417194 
L 162.734 11.417194 
L 162.734 11.417194 
L 162.5108 11.417194 
L 162.0644 11.417194 
z
" clip-path="url(#pe2a0048e5c)" style="fill: #4c72b0; fill-opacity: 0.2; stroke: #4c72b0; stroke-opacity: 0.2; stroke-width: 0.8"/>
    <path d="M 164.966 11.417194 
L 164.966 11.417194 
L 164.966 11.417194 
L 164.966 11.417194 
z
" clip-path="url(#pe2a0048e5c)" style="fill: #4c72b0; fill-opacity: 0.2; stroke: #4c72b0; stroke-opacity: 0.2; stroke-width: 0.8"/>
    <path d="M 166.5284 11.417194 
L 166.5284 11.417194 
L 166.5284 11.417194 
L 166.5284 11.417194 
z
" clip-path="url(#pe2a0048e5c)" style="fill: #4c72b0; fill-opacity: 0.2; stroke: #4c72b0; stroke-opacity: 0.2; stroke-width: 0.8"/>
    <path d="M 170.9924 11.417194 
L 170.9924 11.417194 
L 171.4388 11.417194 
L 171.4388 11.417194 
L 171.4388 11.417194 
L 170.9924 11.417194 
z
" clip-path="url(#pe2a0048e5c)" style="fill: #4c72b0; fill-opacity: 0.2; stroke: #4c72b0; stroke-opacity: 0.2; stroke-width: 0.8"/>
    <path d="M 172.5548 11.417194 
L 172.5548 11.417194 
L 172.5548 11.417194 
L 172.5548 11.417194 
z
" clip-path="url(#pe2a0048e5c)" style="fill: #4c72b0; fill-opacity: 0.2; stroke: #4c72b0; stroke-opacity: 0.2; stroke-width: 0.8"/>
    <path d="M 173.2244 11.417194 
L 173.2244 11.417194 
L 173.2244 11.417194 
L 173.2244 11.417194 
z
" clip-path="url(#pe2a0048e5c)" style="fill: #4c72b0; fill-opacity: 0.2; stroke: #4c72b0; stroke-opacity: 0.2; stroke-width: 0.8"/>
    <path d="M 174.1172 11.417194 
L 174.1172 11.417194 
L 174.1172 11.417194 
L 174.1172 11.417194 
z
" clip-path="url(#pe2a0048e5c)" style="fill: #4c72b0; fill-opacity: 0.2; stroke: #4c72b0; stroke-opacity: 0.2; stroke-width: 0.8"/>
    <path d="M 176.3492 11.417194 
L 176.3492 11.417194 
L 176.3492 11.417194 
L 176.3492 11.417194 
z
" clip-path="url(#pe2a0048e5c)" style="fill: #4c72b0; fill-opacity: 0.2; stroke: #4c72b0; stroke-opacity: 0.2; stroke-width: 0.8"/>
    <path d="M 179.474 11.417194 
L 179.474 11.417194 
L 179.474 11.417194 
L 179.474 11.417194 
z
" clip-path="url(#pe2a0048e5c)" style="fill: #4c72b0; fill-opacity: 0.2; stroke: #4c72b0; stroke-opacity: 0.2; stroke-width: 0.8"/>
    <path d="M 181.706 -101.347766 
L 181.706 -2.553686 
L 181.706 -101.347766 
L 181.706 -101.347766 
z
" clip-path="url(#pe2a0048e5c)" style="fill: #4c72b0; fill-opacity: 0.2; stroke: #4c72b0; stroke-opacity: 0.2; stroke-width: 0.8"/>
    <path d="M 182.5988 -101.347766 
L 182.5988 -101.347766 
L 182.5988 -101.347766 
L 182.5988 -101.347766 
z
" clip-path="url(#pe2a0048e5c)" style="fill: #4c72b0; fill-opacity: 0.2; stroke: #4c72b0; stroke-opacity: 0.2; stroke-width: 0.8"/>
    <path d="M 189.9644 -101.347766 
L 189.9644 -101.347766 
L 190.4108 -101.347766 
L 190.4108 -101.347766 
L 190.4108 -101.347766 
L 189.9644 -101.347766 
z
" clip-path="url(#pe2a0048e5c)" style="fill: #4c72b0; fill-opacity: 0.2; stroke: #4c72b0; stroke-opacity: 0.2; stroke-width: 0.8"/>
    <path d="M 192.866 -101.347766 
L 192.866 -101.347766 
L 192.866 -101.347766 
L 192.866 -101.347766 
z
" clip-path="url(#pe2a0048e5c)" style="fill: #4c72b0; fill-opacity: 0.2; stroke: #4c72b0; stroke-opacity: 0.2; stroke-width: 0.8"/>
    <path d="M 196.214 -101.347766 
L 196.214 -101.347766 
L 196.214 -101.347766 
L 196.214 -101.347766 
z
" clip-path="url(#pe2a0048e5c)" style="fill: #4c72b0; fill-opacity: 0.2; stroke: #4c72b0; stroke-opacity: 0.2; stroke-width: 0.8"/>
    <path d="M 198.446 -101.347766 
L 198.446 -101.347766 
L 199.1156 -101.347766 
L 199.1156 -101.347766 
L 199.1156 -101.347766 
L 198.446 -101.347766 
z
" clip-path="url(#pe2a0048e5c)" style="fill: #4c72b0; fill-opacity: 0.2; stroke: #4c72b0; stroke-opacity: 0.2; stroke-width: 0.8"/>
    <path d="M 207.374 -229.580486 
L 207.374 -116.316566 
L 207.374 -229.580486 
L 207.374 -229.580486 
z
" clip-path="url(#pe2a0048e5c)" style="fill: #4c72b0; fill-opacity: 0.2; stroke: #4c72b0; stroke-opacity: 0.2; stroke-width: 0.8"/>
    <path d="M 208.9364 -229.580486 
L 208.9364 -229.580486 
L 208.9364 -229.580486 
L 208.9364 -229.580486 
z
" clip-path="url(#pe2a0048e5c)" style="fill: #4c72b0; fill-opacity: 0.2; stroke: #4c72b0; stroke-opacity: 0.2; stroke-width: 0.8"/>
    <path d="M 213.1772 -229.580486 
L 213.1772 -229.580486 
L 213.8468 -229.580486 
L 214.5164 -229.580486 
L 214.5164 -229.580486 
L 214.5164 -229.580486 
L 213.8468 -229.580486 
L 213.1772 -229.580486 
z
" clip-path="url(#pe2a0048e5c)" style="fill: #4c72b0; fill-opacity: 0.2; stroke: #4c72b0; stroke-opacity: 0.2; stroke-width: 0.8"/>
    <path d="M 218.7572 -229.580486 
L 218.7572 -229.580486 
L 218.7572 -229.580486 
L 218.7572 -229.580486 
z
" clip-path="url(#pe2a0048e5c)" style="fill: #4c72b0; fill-opacity: 0.2; stroke: #4c72b0; stroke-opacity: 0.2; stroke-width: 0.8"/>
    <path d="M 227.9084 -229.580486 
L 227.9084 -229.580486 
L 227.9084 -229.580486 
L 227.9084 -229.580486 
z
" clip-path="url(#pe2a0048e5c)" style="fill: #4c72b0; fill-opacity: 0.2; stroke: #4c72b0; stroke-opacity: 0.2; stroke-width: 0.8"/>
    <path d="M 228.578 -229.580486 
L 228.578 -229.580486 
L 228.578 -229.580486 
L 228.578 -229.580486 
z
" clip-path="url(#pe2a0048e5c)" style="fill: #4c72b0; fill-opacity: 0.2; stroke: #4c72b0; stroke-opacity: 0.2; stroke-width: 0.8"/>
    <path d="M 242.1932 -229.580486 
L 242.1932 -229.580486 
L 242.1932 -229.580486 
L 242.1932 -229.580486 
z
" clip-path="url(#pe2a0048e5c)" style="fill: #4c72b0; fill-opacity: 0.2; stroke: #4c72b0; stroke-opacity: 0.2; stroke-width: 0.8"/>
    <path d="M 262.058 -374.278886 
L 262.058 -374.278886 
L 262.058 -374.278886 
L 262.058 -374.278886 
z
" clip-path="url(#pe2a0048e5c)" style="fill: #4c72b0; fill-opacity: 0.2; stroke: #4c72b0; stroke-opacity: 0.2; stroke-width: 0.8"/>
    <path d="M 275.45 -374.278886 
L 275.45 -374.278886 
L 275.45 -374.278886 
L 275.45 -374.278886 
z
" clip-path="url(#pe2a0048e5c)" style="fill: #4c72b0; fill-opacity: 0.2; stroke: #4c72b0; stroke-opacity: 0.2; stroke-width: 0.8"/>
    <path d="M 279.2444 -374.278886 
L 279.2444 -374.278886 
L 279.2444 -374.278886 
L 279.2444 -374.278886 
z
" clip-path="url(#pe2a0048e5c)" style="fill: #4c72b0; fill-opacity: 0.2; stroke: #4c72b0; stroke-opacity: 0.2; stroke-width: 0.8"/>
    <path d="M 305.1356 -379.767446 
L 305.1356 -379.767446 
L 305.1356 -379.767446 
L 305.1356 -379.767446 
z
" clip-path="url(#pe2a0048e5c)" style="fill: #4c72b0; fill-opacity: 0.2; stroke: #4c72b0; stroke-opacity: 0.2; stroke-width: 0.8"/>
    <path d="M 308.0372 -379.767446 
L 308.0372 -379.767446 
L 308.0372 -379.767446 
L 308.0372 -379.767446 
z
" clip-path="url(#pe2a0048e5c)" style="fill: #4c72b0; fill-opacity: 0.2; stroke: #4c72b0; stroke-opacity: 0.2; stroke-width: 0.8"/>
    <path d="M 344.642 -536.440886 
L 344.642 -536.440886 
L 344.642 -536.440886 
L 344.642 -536.440886 
z
" clip-path="url(#pe2a0048e5c)" style="fill: #4c72b0; fill-opacity: 0.2; stroke: #4c72b0; stroke-opacity: 0.2; stroke-width: 0.8"/>
    <path d="M 379.6844 -536.440886 
L 379.6844 -536.440886 
L 379.6844 -536.440886 
L 379.6844 -536.440886 
z
" clip-path="url(#pe2a0048e5c)" style="fill: #4c72b0; fill-opacity: 0.2; stroke: #4c72b0; stroke-opacity: 0.2; stroke-width: 0.8"/>
    <path d="M 391.7372 -536.440886 
L 391.7372 -536.440886 
L 391.7372 -536.440886 
L 391.7372 -536.440886 
z
" clip-path="url(#pe2a0048e5c)" style="fill: #4c72b0; fill-opacity: 0.2; stroke: #4c72b0; stroke-opacity: 0.2; stroke-width: 0.8"/>
    <path d="M 396.2012 -536.440886 
L 396.2012 -536.440886 
L 396.2012 -536.440886 
L 396.2012 -536.440886 
z
" clip-path="url(#pe2a0048e5c)" style="fill: #4c72b0; fill-opacity: 0.2; stroke: #4c72b0; stroke-opacity: 0.2; stroke-width: 0.8"/>
    <path d="M 408.0308 -608.790086 
L 408.0308 -608.790086 
L 408.0308 -608.790086 
L 408.0308 -608.790086 
z
" clip-path="url(#pe2a0048e5c)" style="fill: #4c72b0; fill-opacity: 0.2; stroke: #4c72b0; stroke-opacity: 0.2; stroke-width: 0.8"/>
    <path d="M 429.9044 -717.064406 
L 429.9044 -717.064406 
L 429.9044 -717.064406 
L 429.9044 -717.064406 
z
" clip-path="url(#pe2a0048e5c)" style="fill: #4c72b0; fill-opacity: 0.2; stroke: #4c72b0; stroke-opacity: 0.2; stroke-width: 0.8"/>
    <path d="M 438.8324 -717.064406 
L 438.8324 -717.064406 
L 438.8324 -717.064406 
L 438.8324 -717.064406 
z
" clip-path="url(#pe2a0048e5c)" style="fill: #4c72b0; fill-opacity: 0.2; stroke: #4c72b0; stroke-opacity: 0.2; stroke-width: 0.8"/>
    <path d="M 447.0908 -717.064406 
L 447.0908 -717.064406 
L 447.0908 -717.064406 
L 447.0908 -717.064406 
z
" clip-path="url(#pe2a0048e5c)" style="fill: #4c72b0; fill-opacity: 0.2; stroke: #4c72b0; stroke-opacity: 0.2; stroke-width: 0.8"/>
    <path d="M 456.9116 -717.064406 
L 456.9116 -717.064406 
L 456.9116 -717.064406 
L 456.9116 -717.064406 
z
" clip-path="url(#pe2a0048e5c)" style="fill: #4c72b0; fill-opacity: 0.2; stroke: #4c72b0; stroke-opacity: 0.2; stroke-width: 0.8"/>
    <path d="M 540.3884 -776.440646 
L 540.3884 -776.440646 
L 540.3884 -776.440646 
L 540.3884 -776.440646 
z
" clip-path="url(#pe2a0048e5c)" style="fill: #4c72b0; fill-opacity: 0.2; stroke: #4c72b0; stroke-opacity: 0.2; stroke-width: 0.8"/>
    <path d="M 566.2796 -864.756566 
L 566.2796 -864.756566 
L 566.2796 -864.756566 
L 566.2796 -864.756566 
z
" clip-path="url(#pe2a0048e5c)" style="fill: #4c72b0; fill-opacity: 0.2; stroke: #4c72b0; stroke-opacity: 0.2; stroke-width: 0.8"/>
    <path d="M 579.6716 -864.756566 
L 579.6716 -864.756566 
L 579.6716 -864.756566 
L 579.6716 -864.756566 
z
" clip-path="url(#pe2a0048e5c)" style="fill: #4c72b0; fill-opacity: 0.2; stroke: #4c72b0; stroke-opacity: 0.2; stroke-width: 0.8"/>
    <path d="M 611.5892 -917.147366 
L 611.5892 -917.147366 
L 611.5892 -917.147366 
L 611.5892 -917.147366 
z
" clip-path="url(#pe2a0048e5c)" style="fill: #4c72b0; fill-opacity: 0.2; stroke: #4c72b0; stroke-opacity: 0.2; stroke-width: 0.8"/>
    <path d="M 650.8724 -956.066246 
L 650.8724 -956.066246 
L 650.8724 -956.066246 
L 650.8724 -956.066246 
z
" clip-path="url(#pe2a0048e5c)" style="fill: #4c72b0; fill-opacity: 0.2; stroke: #4c72b0; stroke-opacity: 0.2; stroke-width: 0.8"/>
    <path d="M 790.8188 -1147.666886 
L 790.8188 -1147.666886 
L 790.8188 -1147.666886 
L 790.8188 -1147.666886 
z
" clip-path="url(#pe2a0048e5c)" style="fill: #4c72b0; fill-opacity: 0.2; stroke: #4c72b0; stroke-opacity: 0.2; stroke-width: 0.8"/>
   </g>
   <g id="PolyCollection_2">
    <path d="M 131.486 483.038125 
L 131.486 496.276322 
L 131.7092 449.404282 
L 131.9324 395.339194 
L 132.1556 346.219354 
L 132.3788 327.258874 
L 132.602 307.300474 
L 132.8252 286.344154 
L 133.0484 264.389914 
L 133.4948 241.437754 
L 133.718 217.487674 
L 133.9412 217.487674 
L 134.1644 192.539674 
L 134.3876 192.539674 
L 134.3876 166.593754 
L 134.3876 166.593754 
L 134.1644 192.539674 
L 133.9412 192.539674 
L 133.718 217.487674 
L 133.4948 217.487674 
L 133.0484 254.553274 
L 132.8252 269.878474 
L 132.602 296.822314 
L 132.3788 312.290074 
L 132.1556 338.093434 
L 131.9324 373.052314 
L 131.7092 432.83881 
L 131.486 483.038125 
z
" clip-path="url(#pe2a0048e5c)" style="fill: #dd8452; fill-opacity: 0.2; stroke: #dd8452; stroke-opacity: 0.2; stroke-width: 0.8"/>
    <path d="M 134.834 166.593754 
L 134.834 166.593754 
L 135.0572 166.593754 
L 135.0572 150.42745 
L 135.0572 150.42745 
L 134.834 166.593754 
z
" clip-path="url(#pe2a0048e5c)" style="fill: #dd8452; fill-opacity: 0.2; stroke: #dd8452; stroke-opacity: 0.2; stroke-width: 0.8"/>
    <path d="M 135.5036 139.649914 
L 135.5036 139.649914 
L 135.5036 139.649914 
L 135.5036 139.649914 
z
" clip-path="url(#pe2a0048e5c)" style="fill: #dd8452; fill-opacity: 0.2; stroke: #dd8452; stroke-opacity: 0.2; stroke-width: 0.8"/>
    <path d="M 136.1732 111.708154 
L 136.1732 111.708154 
L 136.3964 111.708154 
L 136.3964 97.238314 
L 136.3964 97.238314 
L 136.1732 111.708154 
z
" clip-path="url(#pe2a0048e5c)" style="fill: #dd8452; fill-opacity: 0.2; stroke: #dd8452; stroke-opacity: 0.2; stroke-width: 0.8"/>
    <path d="M 137.066 82.768474 
L 137.066 82.768474 
L 137.2892 82.768474 
L 137.7356 52.830874 
L 137.9588 52.830874 
L 138.182 52.830874 
L 138.182 21.895354 
L 138.182 21.895354 
L 137.9588 52.830874 
L 137.7356 52.830874 
L 137.2892 52.830874 
L 137.066 82.768474 
z
" clip-path="url(#pe2a0048e5c)" style="fill: #dd8452; fill-opacity: 0.2; stroke: #dd8452; stroke-opacity: 0.2; stroke-width: 0.8"/>
    <path d="M 139.0748 21.895354 
L 139.0748 21.895354 
L 139.298 21.895354 
L 139.7444 21.895354 
L 139.9676 21.895354 
L 139.9676 21.895354 
L 139.9676 21.895354 
L 139.7444 21.895354 
L 139.298 21.895354 
L 139.0748 21.895354 
z
" clip-path="url(#pe2a0048e5c)" style="fill: #dd8452; fill-opacity: 0.2; stroke: #dd8452; stroke-opacity: 0.2; stroke-width: 0.8"/>
    <path d="M 140.6372 21.895354 
L 140.6372 21.895354 
L 140.6372 21.895354 
L 140.6372 21.895354 
z
" clip-path="url(#pe2a0048e5c)" style="fill: #dd8452; fill-opacity: 0.2; stroke: #dd8452; stroke-opacity: 0.2; stroke-width: 0.8"/>
    <path d="M 141.7532 21.895354 
L 141.7532 21.895354 
L 141.9764 21.895354 
L 141.9764 21.895354 
L 141.9764 21.895354 
L 141.7532 21.895354 
z
" clip-path="url(#pe2a0048e5c)" style="fill: #dd8452; fill-opacity: 0.2; stroke: #dd8452; stroke-opacity: 0.2; stroke-width: 0.8"/>
    <path d="M 142.646 21.895354 
L 142.646 21.895354 
L 142.646 21.895354 
L 142.646 21.895354 
z
" clip-path="url(#pe2a0048e5c)" style="fill: #dd8452; fill-opacity: 0.2; stroke: #dd8452; stroke-opacity: 0.2; stroke-width: 0.8"/>
    <path d="M 143.0924 21.895354 
L 143.0924 21.895354 
L 143.0924 21.895354 
L 143.0924 21.895354 
z
" clip-path="url(#pe2a0048e5c)" style="fill: #dd8452; fill-opacity: 0.2; stroke: #dd8452; stroke-opacity: 0.2; stroke-width: 0.8"/>
    <path d="M 144.4316 21.895354 
L 144.4316 21.895354 
L 144.6548 21.895354 
L 144.6548 21.895354 
L 144.6548 21.895354 
L 144.4316 21.895354 
z
" clip-path="url(#pe2a0048e5c)" style="fill: #dd8452; fill-opacity: 0.2; stroke: #dd8452; stroke-opacity: 0.2; stroke-width: 0.8"/>
    <path d="M 145.5476 21.895354 
L 145.5476 21.895354 
L 145.7708 21.895354 
L 145.7708 21.895354 
L 145.7708 21.895354 
L 145.5476 21.895354 
z
" clip-path="url(#pe2a0048e5c)" style="fill: #dd8452; fill-opacity: 0.2; stroke: #dd8452; stroke-opacity: 0.2; stroke-width: 0.8"/>
    <path d="M 147.3332 21.895354 
L 147.3332 21.895354 
L 147.3332 21.895354 
L 147.3332 21.895354 
z
" clip-path="url(#pe2a0048e5c)" style="fill: #dd8452; fill-opacity: 0.2; stroke: #dd8452; stroke-opacity: 0.2; stroke-width: 0.8"/>
    <path d="M 148.226 21.895354 
L 148.226 21.895354 
L 148.4492 21.895354 
L 149.1188 21.895354 
L 149.1188 21.895354 
L 149.1188 21.895354 
L 148.4492 21.895354 
L 148.226 21.895354 
z
" clip-path="url(#pe2a0048e5c)" style="fill: #dd8452; fill-opacity: 0.2; stroke: #dd8452; stroke-opacity: 0.2; stroke-width: 0.8"/>
    <path d="M 150.458 21.895354 
L 150.458 21.895354 
L 150.458 21.895354 
L 150.458 21.895354 
z
" clip-path="url(#pe2a0048e5c)" style="fill: #dd8452; fill-opacity: 0.2; stroke: #dd8452; stroke-opacity: 0.2; stroke-width: 0.8"/>
    <path d="M 152.2436 21.895354 
L 152.2436 21.895354 
L 152.2436 21.895354 
L 152.2436 21.895354 
z
" clip-path="url(#pe2a0048e5c)" style="fill: #dd8452; fill-opacity: 0.2; stroke: #dd8452; stroke-opacity: 0.2; stroke-width: 0.8"/>
    <path d="M 152.69 21.895354 
L 152.69 21.895354 
L 152.69 21.895354 
L 152.69 21.895354 
z
" clip-path="url(#pe2a0048e5c)" style="fill: #dd8452; fill-opacity: 0.2; stroke: #dd8452; stroke-opacity: 0.2; stroke-width: 0.8"/>
    <path d="M 154.0292 21.895354 
L 154.0292 21.895354 
L 154.0292 21.895354 
L 154.0292 21.895354 
z
" clip-path="url(#pe2a0048e5c)" style="fill: #dd8452; fill-opacity: 0.2; stroke: #dd8452; stroke-opacity: 0.2; stroke-width: 0.8"/>
    <path d="M 156.7076 21.895354 
L 156.7076 21.895354 
L 156.7076 21.895354 
L 156.7076 21.895354 
z
" clip-path="url(#pe2a0048e5c)" style="fill: #dd8452; fill-opacity: 0.2; stroke: #dd8452; stroke-opacity: 0.2; stroke-width: 0.8"/>
    <path d="M 157.154 21.895354 
L 157.154 21.895354 
L 157.3772 21.895354 
L 157.8236 21.895354 
L 157.8236 21.895354 
L 157.8236 21.895354 
L 157.3772 21.895354 
L 157.154 21.895354 
z
" clip-path="url(#pe2a0048e5c)" style="fill: #dd8452; fill-opacity: 0.2; stroke: #dd8452; stroke-opacity: 0.2; stroke-width: 0.8"/>
    <path d="M 158.27 18.901594 
L 158.27 18.901594 
L 158.27 18.901594 
L 158.27 18.901594 
z
" clip-path="url(#pe2a0048e5c)" style="fill: #dd8452; fill-opacity: 0.2; stroke: #dd8452; stroke-opacity: 0.2; stroke-width: 0.8"/>
    <path d="M 159.386 18.901594 
L 159.386 18.901594 
L 159.386 18.901594 
L 159.386 18.901594 
z
" clip-path="url(#pe2a0048e5c)" style="fill: #dd8452; fill-opacity: 0.2; stroke: #dd8452; stroke-opacity: 0.2; stroke-width: 0.8"/>
    <path d="M 161.618 18.901594 
L 161.618 18.901594 
L 161.618 18.901594 
L 161.618 18.901594 
z
" clip-path="url(#pe2a0048e5c)" style="fill: #dd8452; fill-opacity: 0.2; stroke: #dd8452; stroke-opacity: 0.2; stroke-width: 0.8"/>
    <path d="M 163.6268 18.901594 
L 163.6268 18.901594 
L 163.6268 18.901594 
L 163.6268 18.901594 
z
" clip-path="url(#pe2a0048e5c)" style="fill: #dd8452; fill-opacity: 0.2; stroke: #dd8452; stroke-opacity: 0.2; stroke-width: 0.8"/>
    <path d="M 164.7428 18.901594 
L 164.7428 18.901594 
L 164.7428 18.901594 
L 164.7428 18.901594 
z
" clip-path="url(#pe2a0048e5c)" style="fill: #dd8452; fill-opacity: 0.2; stroke: #dd8452; stroke-opacity: 0.2; stroke-width: 0.8"/>
    <path d="M 167.4212 18.901594 
L 167.4212 18.901594 
L 167.6444 18.901594 
L 167.6444 18.901594 
L 167.6444 18.901594 
L 167.4212 18.901594 
z
" clip-path="url(#pe2a0048e5c)" style="fill: #dd8452; fill-opacity: 0.2; stroke: #dd8452; stroke-opacity: 0.2; stroke-width: 0.8"/>
    <path d="M 168.5372 18.901594 
L 168.5372 18.901594 
L 168.5372 18.901594 
L 168.5372 18.901594 
z
" clip-path="url(#pe2a0048e5c)" style="fill: #dd8452; fill-opacity: 0.2; stroke: #dd8452; stroke-opacity: 0.2; stroke-width: 0.8"/>
    <path d="M 174.5636 18.901594 
L 174.5636 18.901594 
L 174.5636 18.901594 
L 174.5636 18.901594 
z
" clip-path="url(#pe2a0048e5c)" style="fill: #dd8452; fill-opacity: 0.2; stroke: #dd8452; stroke-opacity: 0.2; stroke-width: 0.8"/>
    <path d="M 175.4564 18.901594 
L 175.4564 18.901594 
L 175.4564 18.901594 
L 175.4564 18.901594 
z
" clip-path="url(#pe2a0048e5c)" style="fill: #dd8452; fill-opacity: 0.2; stroke: #dd8452; stroke-opacity: 0.2; stroke-width: 0.8"/>
    <path d="M 181.0364 11.417194 
L 181.0364 11.417194 
L 181.0364 11.417194 
L 181.0364 11.417194 
z
" clip-path="url(#pe2a0048e5c)" style="fill: #dd8452; fill-opacity: 0.2; stroke: #dd8452; stroke-opacity: 0.2; stroke-width: 0.8"/>
    <path d="M 183.7148 11.417194 
L 183.7148 11.417194 
L 183.7148 11.417194 
L 183.7148 11.417194 
z
" clip-path="url(#pe2a0048e5c)" style="fill: #dd8452; fill-opacity: 0.2; stroke: #dd8452; stroke-opacity: 0.2; stroke-width: 0.8"/>
    <path d="M 185.9468 11.417194 
L 185.9468 11.417194 
L 185.9468 11.417194 
L 185.9468 11.417194 
z
" clip-path="url(#pe2a0048e5c)" style="fill: #dd8452; fill-opacity: 0.2; stroke: #dd8452; stroke-opacity: 0.2; stroke-width: 0.8"/>
    <path d="M 191.75 11.417194 
L 191.75 11.417194 
L 192.6428 11.417194 
L 192.6428 11.417194 
L 192.6428 11.417194 
L 191.75 11.417194 
z
" clip-path="url(#pe2a0048e5c)" style="fill: #dd8452; fill-opacity: 0.2; stroke: #dd8452; stroke-opacity: 0.2; stroke-width: 0.8"/>
    <path d="M 197.5532 11.417194 
L 197.5532 11.417194 
L 197.5532 11.417194 
L 197.5532 11.417194 
z
" clip-path="url(#pe2a0048e5c)" style="fill: #dd8452; fill-opacity: 0.2; stroke: #dd8452; stroke-opacity: 0.2; stroke-width: 0.8"/>
    <path d="M 213.4004 -101.347766 
L 213.4004 11.417194 
L 213.4004 -101.347766 
L 213.4004 -101.347766 
z
" clip-path="url(#pe2a0048e5c)" style="fill: #dd8452; fill-opacity: 0.2; stroke: #dd8452; stroke-opacity: 0.2; stroke-width: 0.8"/>
    <path d="M 215.8556 -101.347766 
L 215.8556 -101.347766 
L 215.8556 -101.347766 
L 215.8556 -101.347766 
z
" clip-path="url(#pe2a0048e5c)" style="fill: #dd8452; fill-opacity: 0.2; stroke: #dd8452; stroke-opacity: 0.2; stroke-width: 0.8"/>
    <path d="M 218.0876 -101.347766 
L 218.0876 -101.347766 
L 218.0876 -101.347766 
L 218.0876 -101.347766 
z
" clip-path="url(#pe2a0048e5c)" style="fill: #dd8452; fill-opacity: 0.2; stroke: #dd8452; stroke-opacity: 0.2; stroke-width: 0.8"/>
    <path d="M 222.998 -101.347766 
L 222.998 -101.347766 
L 222.998 -101.347766 
L 222.998 -101.347766 
z
" clip-path="url(#pe2a0048e5c)" style="fill: #dd8452; fill-opacity: 0.2; stroke: #dd8452; stroke-opacity: 0.2; stroke-width: 0.8"/>
    <path d="M 236.1668 -101.347766 
L 236.1668 -101.347766 
L 236.1668 -101.347766 
L 236.1668 -101.347766 
z
" clip-path="url(#pe2a0048e5c)" style="fill: #dd8452; fill-opacity: 0.2; stroke: #dd8452; stroke-opacity: 0.2; stroke-width: 0.8"/>
    <path d="M 237.9524 -101.347766 
L 237.9524 -101.347766 
L 237.9524 -101.347766 
L 237.9524 -101.347766 
z
" clip-path="url(#pe2a0048e5c)" style="fill: #dd8452; fill-opacity: 0.2; stroke: #dd8452; stroke-opacity: 0.2; stroke-width: 0.8"/>
    <path d="M 238.3988 -101.347766 
L 238.3988 -101.347766 
L 238.3988 -101.347766 
L 238.3988 -101.347766 
z
" clip-path="url(#pe2a0048e5c)" style="fill: #dd8452; fill-opacity: 0.2; stroke: #dd8452; stroke-opacity: 0.2; stroke-width: 0.8"/>
    <path d="M 247.3268 -101.347766 
L 247.3268 -101.347766 
L 247.3268 -101.347766 
L 247.3268 -101.347766 
z
" clip-path="url(#pe2a0048e5c)" style="fill: #dd8452; fill-opacity: 0.2; stroke: #dd8452; stroke-opacity: 0.2; stroke-width: 0.8"/>
    <path d="M 251.3444 -101.347766 
L 251.3444 -101.347766 
L 251.3444 -101.347766 
L 251.3444 -101.347766 
z
" clip-path="url(#pe2a0048e5c)" style="fill: #dd8452; fill-opacity: 0.2; stroke: #dd8452; stroke-opacity: 0.2; stroke-width: 0.8"/>
    <path d="M 317.1884 -229.580486 
L 317.1884 -229.580486 
L 317.1884 -229.580486 
L 317.1884 -229.580486 
z
" clip-path="url(#pe2a0048e5c)" style="fill: #dd8452; fill-opacity: 0.2; stroke: #dd8452; stroke-opacity: 0.2; stroke-width: 0.8"/>
    <path d="M 344.642 -374.278886 
L 344.642 -374.278886 
L 344.642 -374.278886 
L 344.642 -374.278886 
z
" clip-path="url(#pe2a0048e5c)" style="fill: #dd8452; fill-opacity: 0.2; stroke: #dd8452; stroke-opacity: 0.2; stroke-width: 0.8"/>
    <path d="M 369.8636 -374.278886 
L 369.8636 -374.278886 
L 369.8636 -374.278886 
L 369.8636 -374.278886 
z
" clip-path="url(#pe2a0048e5c)" style="fill: #dd8452; fill-opacity: 0.2; stroke: #dd8452; stroke-opacity: 0.2; stroke-width: 0.8"/>
    <path d="M 377.2292 -374.278886 
L 377.2292 -374.278886 
L 377.2292 -374.278886 
L 377.2292 -374.278886 
z
" clip-path="url(#pe2a0048e5c)" style="fill: #dd8452; fill-opacity: 0.2; stroke: #dd8452; stroke-opacity: 0.2; stroke-width: 0.8"/>
    <path d="M 607.5716 -536.440886 
L 607.5716 -536.440886 
L 607.5716 -536.440886 
L 607.5716 -536.440886 
z
" clip-path="url(#pe2a0048e5c)" style="fill: #dd8452; fill-opacity: 0.2; stroke: #dd8452; stroke-opacity: 0.2; stroke-width: 0.8"/>
    <path d="M 779.2124 -717.064406 
L 779.2124 -717.064406 
L 779.2124 -717.064406 
L 779.2124 -717.064406 
z
" clip-path="url(#pe2a0048e5c)" style="fill: #dd8452; fill-opacity: 0.2; stroke: #dd8452; stroke-opacity: 0.2; stroke-width: 0.8"/>
   </g>
   <g id="line2d_11">
    <path d="M 131.486 477.237934 
L 132.3788 129.047014 
L 132.8252 21.895354 
L 146.4404 21.895354 
L 146.6636 20.897434 
L 146.8868 18.901594 
L 161.8412 18.901594 
L 162.5108 11.417194 
L 181.0364 11.417194 
L 181.234778 -1 
L 181.234778 -1 
" clip-path="url(#pe2a0048e5c)" style="fill: none; stroke: #4c72b0; stroke-width: 2.5; stroke-linecap: round"/>
   </g>
   <g id="line2d_12">
    <path d="M 131.486 490.0774 
L 132.3788 322.269274 
L 133.718 217.487674 
L 133.9412 209.171674 
L 134.6108 166.593754 
L 134.834 166.593754 
L 135.0572 161.204986 
L 135.2804 139.649914 
L 135.7268 139.649914 
L 135.95 111.708154 
L 136.1732 111.708154 
L 136.3964 106.884874 
L 136.6196 82.768474 
L 137.066 82.768474 
L 137.7356 52.830874 
L 137.9588 52.830874 
L 138.182 42.519034 
L 138.4052 21.895354 
L 157.8236 21.895354 
L 158.0468 18.901594 
L 180.3668 18.901594 
L 180.8132 11.417194 
L 213.1772 11.417194 
L 213.226356 -1 
L 213.226356 -1 
" clip-path="url(#pe2a0048e5c)" style="fill: none; stroke: #dd8452; stroke-width: 2.5; stroke-linecap: round"/>
   </g>
   <g id="patch_3">
    <path d="M 131.486 517.861594 
L 131.486 18.901594 
" style="fill: none; stroke: #cccccc; stroke-linejoin: miter; stroke-linecap: square"/>
   </g>
   <g id="patch_4">
    <path d="M 801.086 517.861594 
L 801.086 18.901594 
" style="fill: none; stroke: #cccccc; stroke-linejoin: miter; stroke-linecap: square"/>
   </g>
   <g id="patch_5">
    <path d="M 131.486 517.861594 
L 801.086 517.861594 
" style="fill: none; stroke: #cccccc; stroke-linejoin: miter; stroke-linecap: square"/>
   </g>
   <g id="patch_6">
    <path d="M 131.486 18.901594 
L 801.086 18.901594 
" style="fill: none; stroke: #cccccc; stroke-linejoin: miter; stroke-linecap: square"/>
   </g>
  </g>
 </g>
 <defs>
  <clipPath id="pe2a0048e5c">
   <rect x="131.486" y="18.901594" width="669.6" height="498.96"/>
  </clipPath>
 </defs>
</svg>
