<?xml version="1.0" encoding="utf-8" standalone="no"?>
<!DOCTYPE svg PUBLIC "-//W3C//DTD SVG 1.1//EN"
  "http://www.w3.org/Graphics/SVG/1.1/DTD/svg11.dtd">
<svg xmlns:xlink="http://www.w3.org/1999/xlink" width="813.393147pt" height="587.987125pt" viewBox="0 0 813.393147 587.987125" xmlns="http://www.w3.org/2000/svg" version="1.1">
 <metadata>
  <rdf:RDF xmlns:dc="http://purl.org/dc/elements/1.1/" xmlns:cc="http://creativecommons.org/ns#" xmlns:rdf="http://www.w3.org/1999/02/22-rdf-syntax-ns#">
   <cc:Work>
    <dc:type rdf:resource="http://purl.org/dc/dcmitype/StillImage"/>
    <dc:date>2022-03-16T10:38:49.557682</dc:date>
    <dc:format>image/svg+xml</dc:format>
    <dc:creator>
     <cc:Agent>
      <dc:title>Matplotlib v3.5.0, https://matplotlib.org/</dc:title>
     </cc:Agent>
    </dc:creator>
   </cc:Work>
  </rdf:RDF>
 </metadata>
 <defs>
  <style type="text/css">*{stroke-linejoin: round; stroke-linecap: butt}</style>
 </defs>
 <g id="figure_1">
  <g id="patch_1">
   <path d="M 0 587.987125 
L 813.393147 587.987125 
L 813.393147 0 
L 0 0 
z
" style="fill: #ffffff"/>
  </g>
  <g id="axes_1">
   <g id="patch_2">
    <path d="M 131.486 506.16 
L 801.086 506.16 
L 801.086 7.2 
L 131.486 7.2 
z
" style="fill: #ffffff"/>
   </g>
   <g id="matplotlib.axis_1">
    <g id="xtick_1">
     <g id="line2d_1">
      <path d="M 161.922364 506.16 
L 161.922364 7.2 
" clip-path="url(#p4f7c916dc9)" style="fill: none; stroke: #cccccc; stroke-width: 0.8; stroke-linecap: round"/>
     </g>
     <g id="text_1">
      <!-- 0 -->
      <g style="fill: #262626" transform="translate(152.124114 537.863187)scale(0.308 -0.308)">
       <defs>
        <path id="DejaVuSans-30" d="M 2034 4250 
Q 1547 4250 1301 3770 
Q 1056 3291 1056 2328 
Q 1056 1369 1301 889 
Q 1547 409 2034 409 
Q 2525 409 2770 889 
Q 3016 1369 3016 2328 
Q 3016 3291 2770 3770 
Q 2525 4250 2034 4250 
z
M 2034 4750 
Q 2819 4750 3233 4129 
Q 3647 3509 3647 2328 
Q 3647 1150 3233 529 
Q 2819 -91 2034 -91 
Q 1250 -91 836 529 
Q 422 1150 422 2328 
Q 422 3509 836 4129 
Q 1250 4750 2034 4750 
z
" transform="scale(0.015625)"/>
       </defs>
       <use xlink:href="#DejaVuSans-30"/>
      </g>
     </g>
    </g>
    <g id="xtick_2">
     <g id="line2d_2">
      <path d="M 264.401702 506.16 
L 264.401702 7.2 
" clip-path="url(#p4f7c916dc9)" style="fill: none; stroke: #cccccc; stroke-width: 0.8; stroke-linecap: round"/>
     </g>
    </g>
    <g id="xtick_3">
     <g id="line2d_3">
      <path d="M 366.881041 506.16 
L 366.881041 7.2 
" clip-path="url(#p4f7c916dc9)" style="fill: none; stroke: #cccccc; stroke-width: 0.8; stroke-linecap: round"/>
     </g>
     <g id="text_2">
      <!-- 100 -->
      <g style="fill: #262626" transform="translate(337.486291 537.863187)scale(0.308 -0.308)">
       <defs>
        <path id="DejaVuSans-31" d="M 794 531 
L 1825 531 
L 1825 4091 
L 703 3866 
L 703 4441 
L 1819 4666 
L 2450 4666 
L 2450 531 
L 3481 531 
L 3481 0 
L 794 0 
L 794 531 
z
" transform="scale(0.015625)"/>
       </defs>
       <use xlink:href="#DejaVuSans-31"/>
       <use xlink:href="#DejaVuSans-30" x="63.623047"/>
       <use xlink:href="#DejaVuSans-30" x="127.246094"/>
      </g>
     </g>
    </g>
    <g id="xtick_4">
     <g id="line2d_4">
      <path d="M 469.36038 506.16 
L 469.36038 7.2 
" clip-path="url(#p4f7c916dc9)" style="fill: none; stroke: #cccccc; stroke-width: 0.8; stroke-linecap: round"/>
     </g>
    </g>
    <g id="xtick_5">
     <g id="line2d_5">
      <path d="M 571.839719 506.16 
L 571.839719 7.2 
" clip-path="url(#p4f7c916dc9)" style="fill: none; stroke: #cccccc; stroke-width: 0.8; stroke-linecap: round"/>
     </g>
     <g id="text_3">
      <!-- 200 -->
      <g style="fill: #262626" transform="translate(542.444969 537.863187)scale(0.308 -0.308)">
       <defs>
        <path id="DejaVuSans-32" d="M 1228 531 
L 3431 531 
L 3431 0 
L 469 0 
L 469 531 
Q 828 903 1448 1529 
Q 2069 2156 2228 2338 
Q 2531 2678 2651 2914 
Q 2772 3150 2772 3378 
Q 2772 3750 2511 3984 
Q 2250 4219 1831 4219 
Q 1534 4219 1204 4116 
Q 875 4013 500 3803 
L 500 4441 
Q 881 4594 1212 4672 
Q 1544 4750 1819 4750 
Q 2544 4750 2975 4387 
Q 3406 4025 3406 3419 
Q 3406 3131 3298 2873 
Q 3191 2616 2906 2266 
Q 2828 2175 2409 1742 
Q 1991 1309 1228 531 
z
" transform="scale(0.015625)"/>
       </defs>
       <use xlink:href="#DejaVuSans-32"/>
       <use xlink:href="#DejaVuSans-30" x="63.623047"/>
       <use xlink:href="#DejaVuSans-30" x="127.246094"/>
      </g>
     </g>
    </g>
    <g id="xtick_6">
     <g id="line2d_6">
      <path d="M 674.319058 506.16 
L 674.319058 7.2 
" clip-path="url(#p4f7c916dc9)" style="fill: none; stroke: #cccccc; stroke-width: 0.8; stroke-linecap: round"/>
     </g>
    </g>
    <g id="xtick_7">
     <g id="line2d_7">
      <path d="M 776.798397 506.16 
L 776.798397 7.2 
" clip-path="url(#p4f7c916dc9)" style="fill: none; stroke: #cccccc; stroke-width: 0.8; stroke-linecap: round"/>
     </g>
     <g id="text_4">
      <!-- 300 -->
      <g style="fill: #262626" transform="translate(747.403647 537.863187)scale(0.308 -0.308)">
       <defs>
        <path id="DejaVuSans-33" d="M 2597 2516 
Q 3050 2419 3304 2112 
Q 3559 1806 3559 1356 
Q 3559 666 3084 287 
Q 2609 -91 1734 -91 
Q 1441 -91 1130 -33 
Q 819 25 488 141 
L 488 750 
Q 750 597 1062 519 
Q 1375 441 1716 441 
Q 2309 441 2620 675 
Q 2931 909 2931 1356 
Q 2931 1769 2642 2001 
Q 2353 2234 1838 2234 
L 1294 2234 
L 1294 2753 
L 1863 2753 
Q 2328 2753 2575 2939 
Q 2822 3125 2822 3475 
Q 2822 3834 2567 4026 
Q 2313 4219 1838 4219 
Q 1578 4219 1281 4162 
Q 984 4106 628 3988 
L 628 4550 
Q 988 4650 1302 4700 
Q 1616 4750 1894 4750 
Q 2613 4750 3031 4423 
Q 3450 4097 3450 3541 
Q 3450 3153 3228 2886 
Q 3006 2619 2597 2516 
z
" transform="scale(0.015625)"/>
       </defs>
       <use xlink:href="#DejaVuSans-33"/>
       <use xlink:href="#DejaVuSans-30" x="63.623047"/>
       <use xlink:href="#DejaVuSans-30" x="127.246094"/>
      </g>
     </g>
    </g>
    <g id="text_5">
     <!-- Time cutoff (s) -->
     <g style="fill: #262626" transform="translate(344.063375 573.799375)scale(0.336 -0.336)">
      <defs>
       <path id="DejaVuSans-54" d="M -19 4666 
L 3928 4666 
L 3928 4134 
L 2272 4134 
L 2272 0 
L 1638 0 
L 1638 4134 
L -19 4134 
L -19 4666 
z
" transform="scale(0.015625)"/>
       <path id="DejaVuSans-69" d="M 603 3500 
L 1178 3500 
L 1178 0 
L 603 0 
L 603 3500 
z
M 603 4863 
L 1178 4863 
L 1178 4134 
L 603 4134 
L 603 4863 
z
" transform="scale(0.015625)"/>
       <path id="DejaVuSans-6d" d="M 3328 2828 
Q 3544 3216 3844 3400 
Q 4144 3584 4550 3584 
Q 5097 3584 5394 3201 
Q 5691 2819 5691 2113 
L 5691 0 
L 5113 0 
L 5113 2094 
Q 5113 2597 4934 2840 
Q 4756 3084 4391 3084 
Q 3944 3084 3684 2787 
Q 3425 2491 3425 1978 
L 3425 0 
L 2847 0 
L 2847 2094 
Q 2847 2600 2669 2842 
Q 2491 3084 2119 3084 
Q 1678 3084 1418 2786 
Q 1159 2488 1159 1978 
L 1159 0 
L 581 0 
L 581 3500 
L 1159 3500 
L 1159 2956 
Q 1356 3278 1631 3431 
Q 1906 3584 2284 3584 
Q 2666 3584 2933 3390 
Q 3200 3197 3328 2828 
z
" transform="scale(0.015625)"/>
       <path id="DejaVuSans-65" d="M 3597 1894 
L 3597 1613 
L 953 1613 
Q 991 1019 1311 708 
Q 1631 397 2203 397 
Q 2534 397 2845 478 
Q 3156 559 3463 722 
L 3463 178 
Q 3153 47 2828 -22 
Q 2503 -91 2169 -91 
Q 1331 -91 842 396 
Q 353 884 353 1716 
Q 353 2575 817 3079 
Q 1281 3584 2069 3584 
Q 2775 3584 3186 3129 
Q 3597 2675 3597 1894 
z
M 3022 2063 
Q 3016 2534 2758 2815 
Q 2500 3097 2075 3097 
Q 1594 3097 1305 2825 
Q 1016 2553 972 2059 
L 3022 2063 
z
" transform="scale(0.015625)"/>
       <path id="DejaVuSans-20" transform="scale(0.015625)"/>
       <path id="DejaVuSans-63" d="M 3122 3366 
L 3122 2828 
Q 2878 2963 2633 3030 
Q 2388 3097 2138 3097 
Q 1578 3097 1268 2742 
Q 959 2388 959 1747 
Q 959 1106 1268 751 
Q 1578 397 2138 397 
Q 2388 397 2633 464 
Q 2878 531 3122 666 
L 3122 134 
Q 2881 22 2623 -34 
Q 2366 -91 2075 -91 
Q 1284 -91 818 406 
Q 353 903 353 1747 
Q 353 2603 823 3093 
Q 1294 3584 2113 3584 
Q 2378 3584 2631 3529 
Q 2884 3475 3122 3366 
z
" transform="scale(0.015625)"/>
       <path id="DejaVuSans-75" d="M 544 1381 
L 544 3500 
L 1119 3500 
L 1119 1403 
Q 1119 906 1312 657 
Q 1506 409 1894 409 
Q 2359 409 2629 706 
Q 2900 1003 2900 1516 
L 2900 3500 
L 3475 3500 
L 3475 0 
L 2900 0 
L 2900 538 
Q 2691 219 2414 64 
Q 2138 -91 1772 -91 
Q 1169 -91 856 284 
Q 544 659 544 1381 
z
M 1991 3584 
L 1991 3584 
z
" transform="scale(0.015625)"/>
       <path id="DejaVuSans-74" d="M 1172 4494 
L 1172 3500 
L 2356 3500 
L 2356 3053 
L 1172 3053 
L 1172 1153 
Q 1172 725 1289 603 
Q 1406 481 1766 481 
L 2356 481 
L 2356 0 
L 1766 0 
Q 1100 0 847 248 
Q 594 497 594 1153 
L 594 3053 
L 172 3053 
L 172 3500 
L 594 3500 
L 594 4494 
L 1172 4494 
z
" transform="scale(0.015625)"/>
       <path id="DejaVuSans-6f" d="M 1959 3097 
Q 1497 3097 1228 2736 
Q 959 2375 959 1747 
Q 959 1119 1226 758 
Q 1494 397 1959 397 
Q 2419 397 2687 759 
Q 2956 1122 2956 1747 
Q 2956 2369 2687 2733 
Q 2419 3097 1959 3097 
z
M 1959 3584 
Q 2709 3584 3137 3096 
Q 3566 2609 3566 1747 
Q 3566 888 3137 398 
Q 2709 -91 1959 -91 
Q 1206 -91 779 398 
Q 353 888 353 1747 
Q 353 2609 779 3096 
Q 1206 3584 1959 3584 
z
" transform="scale(0.015625)"/>
       <path id="DejaVuSans-66" d="M 2375 4863 
L 2375 4384 
L 1825 4384 
Q 1516 4384 1395 4259 
Q 1275 4134 1275 3809 
L 1275 3500 
L 2222 3500 
L 2222 3053 
L 1275 3053 
L 1275 0 
L 697 0 
L 697 3053 
L 147 3053 
L 147 3500 
L 697 3500 
L 697 3744 
Q 697 4328 969 4595 
Q 1241 4863 1831 4863 
L 2375 4863 
z
" transform="scale(0.015625)"/>
       <path id="DejaVuSans-28" d="M 1984 4856 
Q 1566 4138 1362 3434 
Q 1159 2731 1159 2009 
Q 1159 1288 1364 580 
Q 1569 -128 1984 -844 
L 1484 -844 
Q 1016 -109 783 600 
Q 550 1309 550 2009 
Q 550 2706 781 3412 
Q 1013 4119 1484 4856 
L 1984 4856 
z
" transform="scale(0.015625)"/>
       <path id="DejaVuSans-73" d="M 2834 3397 
L 2834 2853 
Q 2591 2978 2328 3040 
Q 2066 3103 1784 3103 
Q 1356 3103 1142 2972 
Q 928 2841 928 2578 
Q 928 2378 1081 2264 
Q 1234 2150 1697 2047 
L 1894 2003 
Q 2506 1872 2764 1633 
Q 3022 1394 3022 966 
Q 3022 478 2636 193 
Q 2250 -91 1575 -91 
Q 1294 -91 989 -36 
Q 684 19 347 128 
L 347 722 
Q 666 556 975 473 
Q 1284 391 1588 391 
Q 1994 391 2212 530 
Q 2431 669 2431 922 
Q 2431 1156 2273 1281 
Q 2116 1406 1581 1522 
L 1381 1569 
Q 847 1681 609 1914 
Q 372 2147 372 2553 
Q 372 3047 722 3315 
Q 1072 3584 1716 3584 
Q 2034 3584 2315 3537 
Q 2597 3491 2834 3397 
z
" transform="scale(0.015625)"/>
       <path id="DejaVuSans-29" d="M 513 4856 
L 1013 4856 
Q 1481 4119 1714 3412 
Q 1947 2706 1947 2009 
Q 1947 1309 1714 600 
Q 1481 -109 1013 -844 
L 513 -844 
Q 928 -128 1133 580 
Q 1338 1288 1338 2009 
Q 1338 2731 1133 3434 
Q 928 4138 513 4856 
z
" transform="scale(0.015625)"/>
      </defs>
      <use xlink:href="#DejaVuSans-54"/>
      <use xlink:href="#DejaVuSans-69" x="57.958984"/>
      <use xlink:href="#DejaVuSans-6d" x="85.742188"/>
      <use xlink:href="#DejaVuSans-65" x="183.154297"/>
      <use xlink:href="#DejaVuSans-20" x="244.677734"/>
      <use xlink:href="#DejaVuSans-63" x="276.464844"/>
      <use xlink:href="#DejaVuSans-75" x="331.445312"/>
      <use xlink:href="#DejaVuSans-74" x="394.824219"/>
      <use xlink:href="#DejaVuSans-6f" x="434.033203"/>
      <use xlink:href="#DejaVuSans-66" x="495.214844"/>
      <use xlink:href="#DejaVuSans-66" x="530.419922"/>
      <use xlink:href="#DejaVuSans-20" x="565.625"/>
      <use xlink:href="#DejaVuSans-28" x="597.412109"/>
      <use xlink:href="#DejaVuSans-73" x="636.425781"/>
      <use xlink:href="#DejaVuSans-29" x="688.525391"/>
     </g>
    </g>
   </g>
   <g id="matplotlib.axis_2">
    <g id="ytick_1">
     <g id="line2d_8">
      <path d="M 131.486 487.075244 
L 801.086 487.075244 
" clip-path="url(#p4f7c916dc9)" style="fill: none; stroke: #cccccc; stroke-width: 0.8; stroke-linecap: round"/>
     </g>
     <g id="text_6">
      <!-- 0 -->
      <g style="fill: #262626" transform="translate(103.5895 498.776838)scale(0.308 -0.308)">
       <use xlink:href="#DejaVuSans-30"/>
      </g>
     </g>
    </g>
    <g id="ytick_2">
     <g id="line2d_9">
      <path d="M 131.486 412.17432 
L 801.086 412.17432 
" clip-path="url(#p4f7c916dc9)" style="fill: none; stroke: #cccccc; stroke-width: 0.8; stroke-linecap: round"/>
     </g>
     <g id="text_7">
      <!-- 250 -->
      <g style="fill: #262626" transform="translate(64.3965 423.875913)scale(0.308 -0.308)">
       <defs>
        <path id="DejaVuSans-35" d="M 691 4666 
L 3169 4666 
L 3169 4134 
L 1269 4134 
L 1269 2991 
Q 1406 3038 1543 3061 
Q 1681 3084 1819 3084 
Q 2600 3084 3056 2656 
Q 3513 2228 3513 1497 
Q 3513 744 3044 326 
Q 2575 -91 1722 -91 
Q 1428 -91 1123 -41 
Q 819 9 494 109 
L 494 744 
Q 775 591 1075 516 
Q 1375 441 1709 441 
Q 2250 441 2565 725 
Q 2881 1009 2881 1497 
Q 2881 1984 2565 2268 
Q 2250 2553 1709 2553 
Q 1456 2553 1204 2497 
Q 953 2441 691 2322 
L 691 4666 
z
" transform="scale(0.015625)"/>
       </defs>
       <use xlink:href="#DejaVuSans-32"/>
       <use xlink:href="#DejaVuSans-35" x="63.623047"/>
       <use xlink:href="#DejaVuSans-30" x="127.246094"/>
      </g>
     </g>
    </g>
    <g id="ytick_3">
     <g id="line2d_10">
      <path d="M 131.486 337.273395 
L 801.086 337.273395 
" clip-path="url(#p4f7c916dc9)" style="fill: none; stroke: #cccccc; stroke-width: 0.8; stroke-linecap: round"/>
     </g>
     <g id="text_8">
      <!-- 500 -->
      <g style="fill: #262626" transform="translate(64.3965 348.974989)scale(0.308 -0.308)">
       <use xlink:href="#DejaVuSans-35"/>
       <use xlink:href="#DejaVuSans-30" x="63.623047"/>
       <use xlink:href="#DejaVuSans-30" x="127.246094"/>
      </g>
     </g>
    </g>
    <g id="ytick_4">
     <g id="line2d_11">
      <path d="M 131.486 262.37247 
L 801.086 262.37247 
" clip-path="url(#p4f7c916dc9)" style="fill: none; stroke: #cccccc; stroke-width: 0.8; stroke-linecap: round"/>
     </g>
     <g id="text_9">
      <!-- 750 -->
      <g style="fill: #262626" transform="translate(64.3965 274.074064)scale(0.308 -0.308)">
       <defs>
        <path id="DejaVuSans-37" d="M 525 4666 
L 3525 4666 
L 3525 4397 
L 1831 0 
L 1172 0 
L 2766 4134 
L 525 4134 
L 525 4666 
z
" transform="scale(0.015625)"/>
       </defs>
       <use xlink:href="#DejaVuSans-37"/>
       <use xlink:href="#DejaVuSans-35" x="63.623047"/>
       <use xlink:href="#DejaVuSans-30" x="127.246094"/>
      </g>
     </g>
    </g>
    <g id="ytick_5">
     <g id="line2d_12">
      <path d="M 131.486 187.471546 
L 801.086 187.471546 
" clip-path="url(#p4f7c916dc9)" style="fill: none; stroke: #cccccc; stroke-width: 0.8; stroke-linecap: round"/>
     </g>
     <g id="text_10">
      <!-- 1000 -->
      <g style="fill: #262626" transform="translate(44.8 199.173139)scale(0.308 -0.308)">
       <use xlink:href="#DejaVuSans-31"/>
       <use xlink:href="#DejaVuSans-30" x="63.623047"/>
       <use xlink:href="#DejaVuSans-30" x="127.246094"/>
       <use xlink:href="#DejaVuSans-30" x="190.869141"/>
      </g>
     </g>
    </g>
    <g id="ytick_6">
     <g id="line2d_13">
      <path d="M 131.486 112.570621 
L 801.086 112.570621 
" clip-path="url(#p4f7c916dc9)" style="fill: none; stroke: #cccccc; stroke-width: 0.8; stroke-linecap: round"/>
     </g>
     <g id="text_11">
      <!-- 1250 -->
      <g style="fill: #262626" transform="translate(44.8 124.272215)scale(0.308 -0.308)">
       <use xlink:href="#DejaVuSans-31"/>
       <use xlink:href="#DejaVuSans-32" x="63.623047"/>
       <use xlink:href="#DejaVuSans-35" x="127.246094"/>
       <use xlink:href="#DejaVuSans-30" x="190.869141"/>
      </g>
     </g>
    </g>
    <g id="ytick_7">
     <g id="line2d_14">
      <path d="M 131.486 37.669696 
L 801.086 37.669696 
" clip-path="url(#p4f7c916dc9)" style="fill: none; stroke: #cccccc; stroke-width: 0.8; stroke-linecap: round"/>
     </g>
     <g id="text_12">
      <!-- 1500 -->
      <g style="fill: #262626" transform="translate(44.8 49.37129)scale(0.308 -0.308)">
       <use xlink:href="#DejaVuSans-31"/>
       <use xlink:href="#DejaVuSans-35" x="63.623047"/>
       <use xlink:href="#DejaVuSans-30" x="127.246094"/>
       <use xlink:href="#DejaVuSans-30" x="190.869141"/>
      </g>
     </g>
    </g>
    <g id="text_13">
     <!-- |P| + |P'| -->
     <g style="fill: #262626" transform="translate(32.87775 328.9515)rotate(-90)scale(0.336 -0.336)">
      <defs>
       <path id="DejaVuSans-7c" d="M 1344 4891 
L 1344 -1509 
L 813 -1509 
L 813 4891 
L 1344 4891 
z
" transform="scale(0.015625)"/>
       <path id="DejaVuSans-50" d="M 1259 4147 
L 1259 2394 
L 2053 2394 
Q 2494 2394 2734 2622 
Q 2975 2850 2975 3272 
Q 2975 3691 2734 3919 
Q 2494 4147 2053 4147 
L 1259 4147 
z
M 628 4666 
L 2053 4666 
Q 2838 4666 3239 4311 
Q 3641 3956 3641 3272 
Q 3641 2581 3239 2228 
Q 2838 1875 2053 1875 
L 1259 1875 
L 1259 0 
L 628 0 
L 628 4666 
z
" transform="scale(0.015625)"/>
       <path id="DejaVuSans-2b" d="M 2944 4013 
L 2944 2272 
L 4684 2272 
L 4684 1741 
L 2944 1741 
L 2944 0 
L 2419 0 
L 2419 1741 
L 678 1741 
L 678 2272 
L 2419 2272 
L 2419 4013 
L 2944 4013 
z
" transform="scale(0.015625)"/>
       <path id="DejaVuSans-27" d="M 1147 4666 
L 1147 2931 
L 616 2931 
L 616 4666 
L 1147 4666 
z
" transform="scale(0.015625)"/>
      </defs>
      <use xlink:href="#DejaVuSans-7c"/>
      <use xlink:href="#DejaVuSans-50" x="33.691406"/>
      <use xlink:href="#DejaVuSans-7c" x="93.994141"/>
      <use xlink:href="#DejaVuSans-20" x="127.685547"/>
      <use xlink:href="#DejaVuSans-2b" x="159.472656"/>
      <use xlink:href="#DejaVuSans-20" x="243.261719"/>
      <use xlink:href="#DejaVuSans-7c" x="275.048828"/>
      <use xlink:href="#DejaVuSans-50" x="308.740234"/>
      <use xlink:href="#DejaVuSans-27" x="369.042969"/>
      <use xlink:href="#DejaVuSans-7c" x="396.533203"/>
     </g>
    </g>
   </g>
   <g id="PolyCollection_1">
    <path d="M 162.127322 470.297437 
L 162.127322 478.686341 
L 162.332281 467.501136 
L 162.332281 459.511704 
L 162.332281 459.511704 
L 162.127322 470.297437 
z
" clip-path="url(#p4f7c916dc9)" style="fill: #4c72b0; fill-opacity: 0.2; stroke: #4c72b0; stroke-opacity: 0.2; stroke-width: 0.8"/>
    <path d="M 162.742198 453.51963 
L 162.742198 454.718045 
L 162.947157 453.51963 
L 162.947157 440.337067 
L 162.947157 440.337067 
L 162.742198 453.51963 
z
" clip-path="url(#p4f7c916dc9)" style="fill: #4c72b0; fill-opacity: 0.2; stroke: #4c72b0; stroke-opacity: 0.2; stroke-width: 0.8"/>
    <path d="M 163.766992 439.138653 
L 163.766992 440.337067 
L 163.766992 439.138653 
L 163.766992 439.138653 
z
" clip-path="url(#p4f7c916dc9)" style="fill: #4c72b0; fill-opacity: 0.2; stroke: #4c72b0; stroke-opacity: 0.2; stroke-width: 0.8"/>
    <path d="M 164.176909 425.95609 
L 164.176909 439.138653 
L 164.176909 425.95609 
L 164.176909 425.95609 
z
" clip-path="url(#p4f7c916dc9)" style="fill: #4c72b0; fill-opacity: 0.2; stroke: #4c72b0; stroke-opacity: 0.2; stroke-width: 0.8"/>
    <path d="M 172.785174 361.241691 
L 172.785174 382.813157 
L 172.785174 361.241691 
L 172.785174 361.241691 
z
" clip-path="url(#p4f7c916dc9)" style="fill: #4c72b0; fill-opacity: 0.2; stroke: #4c72b0; stroke-opacity: 0.2; stroke-width: 0.8"/>
    <path d="M 214.596744 270.162166 
L 214.596744 276.15424 
L 214.596744 270.162166 
L 214.596744 270.162166 
z
" clip-path="url(#p4f7c916dc9)" style="fill: #4c72b0; fill-opacity: 0.2; stroke: #4c72b0; stroke-opacity: 0.2; stroke-width: 0.8"/>
   </g>
   <g id="PolyCollection_2">
    <path d="M 161.922364 477.487926 
L 161.922364 483.48 
L 162.127322 477.088454 
L 162.332281 465.144254 
L 162.332281 461.908534 
L 162.332281 461.908534 
L 162.127322 472.494531 
L 161.922364 477.487926 
z
" clip-path="url(#p4f7c916dc9)" style="fill: #dd8452; fill-opacity: 0.2; stroke: #dd8452; stroke-opacity: 0.2; stroke-width: 0.8"/>
    <path d="M 162.947157 453.51963 
L 162.947157 461.908534 
L 162.947157 453.51963 
L 162.947157 453.51963 
z
" clip-path="url(#p4f7c916dc9)" style="fill: #dd8452; fill-opacity: 0.2; stroke: #dd8452; stroke-opacity: 0.2; stroke-width: 0.8"/>
    <path d="M 163.97195 439.138653 
L 163.97195 443.932312 
L 163.97195 439.138653 
L 163.97195 439.138653 
z
" clip-path="url(#p4f7c916dc9)" style="fill: #dd8452; fill-opacity: 0.2; stroke: #dd8452; stroke-opacity: 0.2; stroke-width: 0.8"/>
    <path d="M 173.40005 409.178283 
L 173.40005 411.575112 
L 173.40005 409.178283 
L 173.40005 409.178283 
z
" clip-path="url(#p4f7c916dc9)" style="fill: #dd8452; fill-opacity: 0.2; stroke: #dd8452; stroke-opacity: 0.2; stroke-width: 0.8"/>
   </g>
   <g id="line2d_15">
    <path d="M 161.922364 479.884756 
L 162.127322 474.491889 
L 162.332281 463.905892 
L 162.53724 454.718045 
L 162.742198 454.318573 
L 162.947157 446.928349 
L 163.152116 440.337067 
L 163.357074 440.337067 
L 163.766992 439.73786 
L 163.97195 439.138653 
L 164.176909 432.547371 
L 165.201702 425.95609 
L 166.021537 425.95609 
L 166.226496 411.575112 
L 167.251289 411.575112 
L 167.866165 398.991757 
L 168.890959 397.194135 
L 169.505835 397.194135 
L 170.940545 397.194135 
L 172.785174 372.027424 
L 175.654595 361.241691 
L 176.679388 346.860713 
L 178.114099 346.860713 
L 183.033107 346.860713 
L 184.467818 346.860713 
L 186.927322 346.860713 
L 187.132281 321.694003 
L 191.846331 321.694003 
L 193.076083 321.694003 
L 193.486 321.694003 
L 202.70914 321.694003 
L 206.603355 321.694003 
L 207.013273 280.348692 
L 208.652942 280.348692 
L 210.702529 276.15424 
L 211.112446 276.15424 
L 212.547157 276.15424 
L 214.596744 273.158203 
L 216.031455 270.162166 
L 218.081041 268.963752 
L 230.583521 268.963752 
L 232.018231 268.963752 
L 236.322364 268.963752 
L 238.166992 255.181982 
L 238.986826 253.983567 
L 240.01162 252.785152 
L 247.80005 252.785152 
L 256.408314 252.785152 
L 261.327322 252.785152 
L 267.271124 252.785152 
L 273.829802 252.785152 
L 286.53724 192.864412 
L 291.251289 192.864412 
L 314.001702 185.673923 
L 318.510793 185.673923 
L 322.20005 185.673923 
L 335.112446 171.292946 
L 352.124017 171.292946 
L 384.712446 171.292946 
L 387.17195 171.292946 
L 411.152116 171.292946 
L 414.021537 123.356354 
L 422.83476 123.356354 
L 443.330628 110.173791 
L 444.970298 110.173791 
L 451.324017 110.173791 
L 468.335587 110.173791 
L 501.333934 79.614214 
L 501.538893 79.614214 
L 503.383521 79.614214 
L 516.705835 79.614214 
L 546.219884 65.832444 
L 552.368645 65.832444 
L 570.814926 55.645918 
L 606.272777 47.856222 
L 610.576909 43.66177 
L 666.735587 43.66177 
L 706.907488 43.66177 
L 737.446331 43.66177 
L 769.419884 29.88 
L 770.649636 29.88 
" clip-path="url(#p4f7c916dc9)" style="fill: none; stroke: #4c72b0; stroke-width: 3; stroke-linecap: round"/>
   </g>
   <g id="line2d_16">
    <path d="M 161.922364 480.284227 
L 162.127322 474.891361 
L 162.332281 463.50642 
L 162.742198 461.908534 
L 162.947157 456.715403 
L 163.152116 453.51963 
L 163.562033 449.325178 
L 163.97195 441.535482 
L 164.176909 439.138653 
L 164.381868 439.138653 
L 164.586826 439.138653 
L 165.406661 439.138653 
L 166.226496 433.146579 
L 166.636413 433.146579 
L 167.866165 431.348956 
L 168.071124 425.95609 
L 169.915752 421.162431 
L 173.40005 410.376697 
L 176.679388 407.979868 
L 177.704182 398.991757 
L 183.238066 397.194135 
L 188.566992 393.59889 
L 189.386826 393.59889 
L 199.224843 382.813157 
L 203.119058 372.027424 
L 209.472777 372.027424 
L 221.565339 368.43218 
L 242.676083 361.241691 
L 243.086 361.241691 
L 250.87443 361.241691 
L 254.358727 354.051202 
L 263.17195 334.876565 
L 273.829802 334.876565 
L 302.933934 334.876565 
L 307.238066 334.876565 
L 342.900876 324.090832 
L 350.484347 324.090832 
L 375.694264 324.090832 
L 432.057901 303.717781 
L 436.77195 303.717781 
L 436.976909 292.932048 
L 482.477736 292.932048 
L 483.29757 285.142351 
L 483.502529 285.142351 
L 527.158727 282.146314 
L 546.014926 270.162166 
L 597.664512 270.162166 
L 620.824843 270.162166 
L 628.613273 268.963752 
L 645.624843 268.963752 
L 646.649636 268.963752 
L 698.299223 268.963752 
L 710.391785 259.376433 
L 761.426496 259.376433 
" clip-path="url(#p4f7c916dc9)" style="fill: none; stroke: #dd8452; stroke-width: 3; stroke-linecap: round"/>
   </g>
   <g id="patch_3">
    <path d="M 131.486 506.16 
L 131.486 7.2 
" style="fill: none; stroke: #cccccc; stroke-linejoin: miter; stroke-linecap: square"/>
   </g>
   <g id="patch_4">
    <path d="M 801.086 506.16 
L 801.086 7.2 
" style="fill: none; stroke: #cccccc; stroke-linejoin: miter; stroke-linecap: square"/>
   </g>
   <g id="patch_5">
    <path d="M 131.486 506.16 
L 801.086 506.16 
" style="fill: none; stroke: #cccccc; stroke-linejoin: miter; stroke-linecap: square"/>
   </g>
   <g id="patch_6">
    <path d="M 131.486 7.2 
L 801.086 7.2 
" style="fill: none; stroke: #cccccc; stroke-linejoin: miter; stroke-linecap: square"/>
   </g>
  </g>
 </g>
 <defs>
  <clipPath id="p4f7c916dc9">
   <rect x="131.486" y="7.2" width="669.6" height="498.96"/>
  </clipPath>
 </defs>
</svg>
