<?xml version="1.0" encoding="utf-8" standalone="no"?>
<!DOCTYPE svg PUBLIC "-//W3C//DTD SVG 1.1//EN"
  "http://www.w3.org/Graphics/SVG/1.1/DTD/svg11.dtd">
<svg xmlns:xlink="http://www.w3.org/1999/xlink" width="798.145438pt" height="587.987125pt" viewBox="0 0 798.145438 587.987125" xmlns="http://www.w3.org/2000/svg" version="1.1">
 <metadata>
  <rdf:RDF xmlns:dc="http://purl.org/dc/elements/1.1/" xmlns:cc="http://creativecommons.org/ns#" xmlns:rdf="http://www.w3.org/1999/02/22-rdf-syntax-ns#">
   <cc:Work>
    <dc:type rdf:resource="http://purl.org/dc/dcmitype/StillImage"/>
    <dc:date>2022-03-16T10:38:48.890817</dc:date>
    <dc:format>image/svg+xml</dc:format>
    <dc:creator>
     <cc:Agent>
      <dc:title>Matplotlib v3.5.0, https://matplotlib.org/</dc:title>
     </cc:Agent>
    </dc:creator>
   </cc:Work>
  </rdf:RDF>
 </metadata>
 <defs>
  <style type="text/css">*{stroke-linejoin: round; stroke-linecap: butt}</style>
 </defs>
 <g id="figure_1">
  <g id="patch_1">
   <path d="M 0 587.987125 
L 798.145438 587.987125 
L 798.145438 0 
L 0 0 
z
" style="fill: #ffffff"/>
  </g>
  <g id="axes_1">
   <g id="patch_2">
    <path d="M 110.808 506.16 
L 780.408 506.16 
L 780.408 7.2 
L 110.808 7.2 
z
" style="fill: #ffffff"/>
   </g>
   <g id="matplotlib.axis_1">
    <g id="xtick_1">
     <g id="line2d_1">
      <path d="M 141.244364 506.16 
L 141.244364 7.2 
" clip-path="url(#p4d4f946c45)" style="fill: none; stroke: #cccccc; stroke-width: 0.8; stroke-linecap: round"/>
     </g>
     <g id="text_1">
      <!-- 0 -->
      <g style="fill: #262626" transform="translate(131.446114 537.863187)scale(0.308 -0.308)">
       <defs>
        <path id="DejaVuSans-30" d="M 2034 4250 
Q 1547 4250 1301 3770 
Q 1056 3291 1056 2328 
Q 1056 1369 1301 889 
Q 1547 409 2034 409 
Q 2525 409 2770 889 
Q 3016 1369 3016 2328 
Q 3016 3291 2770 3770 
Q 2525 4250 2034 4250 
z
M 2034 4750 
Q 2819 4750 3233 4129 
Q 3647 3509 3647 2328 
Q 3647 1150 3233 529 
Q 2819 -91 2034 -91 
Q 1250 -91 836 529 
Q 422 1150 422 2328 
Q 422 3509 836 4129 
Q 1250 4750 2034 4750 
z
" transform="scale(0.015625)"/>
       </defs>
       <use xlink:href="#DejaVuSans-30"/>
      </g>
     </g>
    </g>
    <g id="xtick_2">
     <g id="line2d_2">
      <path d="M 244.628751 506.16 
L 244.628751 7.2 
" clip-path="url(#p4d4f946c45)" style="fill: none; stroke: #cccccc; stroke-width: 0.8; stroke-linecap: round"/>
     </g>
    </g>
    <g id="xtick_3">
     <g id="line2d_3">
      <path d="M 348.013138 506.16 
L 348.013138 7.2 
" clip-path="url(#p4d4f946c45)" style="fill: none; stroke: #cccccc; stroke-width: 0.8; stroke-linecap: round"/>
     </g>
     <g id="text_2">
      <!-- 100 -->
      <g style="fill: #262626" transform="translate(318.618388 537.863187)scale(0.308 -0.308)">
       <defs>
        <path id="DejaVuSans-31" d="M 794 531 
L 1825 531 
L 1825 4091 
L 703 3866 
L 703 4441 
L 1819 4666 
L 2450 4666 
L 2450 531 
L 3481 531 
L 3481 0 
L 794 0 
L 794 531 
z
" transform="scale(0.015625)"/>
       </defs>
       <use xlink:href="#DejaVuSans-31"/>
       <use xlink:href="#DejaVuSans-30" x="63.623047"/>
       <use xlink:href="#DejaVuSans-30" x="127.246094"/>
      </g>
     </g>
    </g>
    <g id="xtick_4">
     <g id="line2d_4">
      <path d="M 451.397526 506.16 
L 451.397526 7.2 
" clip-path="url(#p4d4f946c45)" style="fill: none; stroke: #cccccc; stroke-width: 0.8; stroke-linecap: round"/>
     </g>
    </g>
    <g id="xtick_5">
     <g id="line2d_5">
      <path d="M 554.781913 506.16 
L 554.781913 7.2 
" clip-path="url(#p4d4f946c45)" style="fill: none; stroke: #cccccc; stroke-width: 0.8; stroke-linecap: round"/>
     </g>
     <g id="text_3">
      <!-- 200 -->
      <g style="fill: #262626" transform="translate(525.387163 537.863187)scale(0.308 -0.308)">
       <defs>
        <path id="DejaVuSans-32" d="M 1228 531 
L 3431 531 
L 3431 0 
L 469 0 
L 469 531 
Q 828 903 1448 1529 
Q 2069 2156 2228 2338 
Q 2531 2678 2651 2914 
Q 2772 3150 2772 3378 
Q 2772 3750 2511 3984 
Q 2250 4219 1831 4219 
Q 1534 4219 1204 4116 
Q 875 4013 500 3803 
L 500 4441 
Q 881 4594 1212 4672 
Q 1544 4750 1819 4750 
Q 2544 4750 2975 4387 
Q 3406 4025 3406 3419 
Q 3406 3131 3298 2873 
Q 3191 2616 2906 2266 
Q 2828 2175 2409 1742 
Q 1991 1309 1228 531 
z
" transform="scale(0.015625)"/>
       </defs>
       <use xlink:href="#DejaVuSans-32"/>
       <use xlink:href="#DejaVuSans-30" x="63.623047"/>
       <use xlink:href="#DejaVuSans-30" x="127.246094"/>
      </g>
     </g>
    </g>
    <g id="xtick_6">
     <g id="line2d_6">
      <path d="M 658.1663 506.16 
L 658.1663 7.2 
" clip-path="url(#p4d4f946c45)" style="fill: none; stroke: #cccccc; stroke-width: 0.8; stroke-linecap: round"/>
     </g>
    </g>
    <g id="xtick_7">
     <g id="line2d_7">
      <path d="M 761.550688 506.16 
L 761.550688 7.2 
" clip-path="url(#p4d4f946c45)" style="fill: none; stroke: #cccccc; stroke-width: 0.8; stroke-linecap: round"/>
     </g>
     <g id="text_4">
      <!-- 300 -->
      <g style="fill: #262626" transform="translate(732.155938 537.863187)scale(0.308 -0.308)">
       <defs>
        <path id="DejaVuSans-33" d="M 2597 2516 
Q 3050 2419 3304 2112 
Q 3559 1806 3559 1356 
Q 3559 666 3084 287 
Q 2609 -91 1734 -91 
Q 1441 -91 1130 -33 
Q 819 25 488 141 
L 488 750 
Q 750 597 1062 519 
Q 1375 441 1716 441 
Q 2309 441 2620 675 
Q 2931 909 2931 1356 
Q 2931 1769 2642 2001 
Q 2353 2234 1838 2234 
L 1294 2234 
L 1294 2753 
L 1863 2753 
Q 2328 2753 2575 2939 
Q 2822 3125 2822 3475 
Q 2822 3834 2567 4026 
Q 2313 4219 1838 4219 
Q 1578 4219 1281 4162 
Q 984 4106 628 3988 
L 628 4550 
Q 988 4650 1302 4700 
Q 1616 4750 1894 4750 
Q 2613 4750 3031 4423 
Q 3450 4097 3450 3541 
Q 3450 3153 3228 2886 
Q 3006 2619 2597 2516 
z
" transform="scale(0.015625)"/>
       </defs>
       <use xlink:href="#DejaVuSans-33"/>
       <use xlink:href="#DejaVuSans-30" x="63.623047"/>
       <use xlink:href="#DejaVuSans-30" x="127.246094"/>
      </g>
     </g>
    </g>
    <g id="text_5">
     <!-- Time cutoff (s) -->
     <g style="fill: #262626" transform="translate(323.385375 573.799375)scale(0.336 -0.336)">
      <defs>
       <path id="DejaVuSans-54" d="M -19 4666 
L 3928 4666 
L 3928 4134 
L 2272 4134 
L 2272 0 
L 1638 0 
L 1638 4134 
L -19 4134 
L -19 4666 
z
" transform="scale(0.015625)"/>
       <path id="DejaVuSans-69" d="M 603 3500 
L 1178 3500 
L 1178 0 
L 603 0 
L 603 3500 
z
M 603 4863 
L 1178 4863 
L 1178 4134 
L 603 4134 
L 603 4863 
z
" transform="scale(0.015625)"/>
       <path id="DejaVuSans-6d" d="M 3328 2828 
Q 3544 3216 3844 3400 
Q 4144 3584 4550 3584 
Q 5097 3584 5394 3201 
Q 5691 2819 5691 2113 
L 5691 0 
L 5113 0 
L 5113 2094 
Q 5113 2597 4934 2840 
Q 4756 3084 4391 3084 
Q 3944 3084 3684 2787 
Q 3425 2491 3425 1978 
L 3425 0 
L 2847 0 
L 2847 2094 
Q 2847 2600 2669 2842 
Q 2491 3084 2119 3084 
Q 1678 3084 1418 2786 
Q 1159 2488 1159 1978 
L 1159 0 
L 581 0 
L 581 3500 
L 1159 3500 
L 1159 2956 
Q 1356 3278 1631 3431 
Q 1906 3584 2284 3584 
Q 2666 3584 2933 3390 
Q 3200 3197 3328 2828 
z
" transform="scale(0.015625)"/>
       <path id="DejaVuSans-65" d="M 3597 1894 
L 3597 1613 
L 953 1613 
Q 991 1019 1311 708 
Q 1631 397 2203 397 
Q 2534 397 2845 478 
Q 3156 559 3463 722 
L 3463 178 
Q 3153 47 2828 -22 
Q 2503 -91 2169 -91 
Q 1331 -91 842 396 
Q 353 884 353 1716 
Q 353 2575 817 3079 
Q 1281 3584 2069 3584 
Q 2775 3584 3186 3129 
Q 3597 2675 3597 1894 
z
M 3022 2063 
Q 3016 2534 2758 2815 
Q 2500 3097 2075 3097 
Q 1594 3097 1305 2825 
Q 1016 2553 972 2059 
L 3022 2063 
z
" transform="scale(0.015625)"/>
       <path id="DejaVuSans-20" transform="scale(0.015625)"/>
       <path id="DejaVuSans-63" d="M 3122 3366 
L 3122 2828 
Q 2878 2963 2633 3030 
Q 2388 3097 2138 3097 
Q 1578 3097 1268 2742 
Q 959 2388 959 1747 
Q 959 1106 1268 751 
Q 1578 397 2138 397 
Q 2388 397 2633 464 
Q 2878 531 3122 666 
L 3122 134 
Q 2881 22 2623 -34 
Q 2366 -91 2075 -91 
Q 1284 -91 818 406 
Q 353 903 353 1747 
Q 353 2603 823 3093 
Q 1294 3584 2113 3584 
Q 2378 3584 2631 3529 
Q 2884 3475 3122 3366 
z
" transform="scale(0.015625)"/>
       <path id="DejaVuSans-75" d="M 544 1381 
L 544 3500 
L 1119 3500 
L 1119 1403 
Q 1119 906 1312 657 
Q 1506 409 1894 409 
Q 2359 409 2629 706 
Q 2900 1003 2900 1516 
L 2900 3500 
L 3475 3500 
L 3475 0 
L 2900 0 
L 2900 538 
Q 2691 219 2414 64 
Q 2138 -91 1772 -91 
Q 1169 -91 856 284 
Q 544 659 544 1381 
z
M 1991 3584 
L 1991 3584 
z
" transform="scale(0.015625)"/>
       <path id="DejaVuSans-74" d="M 1172 4494 
L 1172 3500 
L 2356 3500 
L 2356 3053 
L 1172 3053 
L 1172 1153 
Q 1172 725 1289 603 
Q 1406 481 1766 481 
L 2356 481 
L 2356 0 
L 1766 0 
Q 1100 0 847 248 
Q 594 497 594 1153 
L 594 3053 
L 172 3053 
L 172 3500 
L 594 3500 
L 594 4494 
L 1172 4494 
z
" transform="scale(0.015625)"/>
       <path id="DejaVuSans-6f" d="M 1959 3097 
Q 1497 3097 1228 2736 
Q 959 2375 959 1747 
Q 959 1119 1226 758 
Q 1494 397 1959 397 
Q 2419 397 2687 759 
Q 2956 1122 2956 1747 
Q 2956 2369 2687 2733 
Q 2419 3097 1959 3097 
z
M 1959 3584 
Q 2709 3584 3137 3096 
Q 3566 2609 3566 1747 
Q 3566 888 3137 398 
Q 2709 -91 1959 -91 
Q 1206 -91 779 398 
Q 353 888 353 1747 
Q 353 2609 779 3096 
Q 1206 3584 1959 3584 
z
" transform="scale(0.015625)"/>
       <path id="DejaVuSans-66" d="M 2375 4863 
L 2375 4384 
L 1825 4384 
Q 1516 4384 1395 4259 
Q 1275 4134 1275 3809 
L 1275 3500 
L 2222 3500 
L 2222 3053 
L 1275 3053 
L 1275 0 
L 697 0 
L 697 3053 
L 147 3053 
L 147 3500 
L 697 3500 
L 697 3744 
Q 697 4328 969 4595 
Q 1241 4863 1831 4863 
L 2375 4863 
z
" transform="scale(0.015625)"/>
       <path id="DejaVuSans-28" d="M 1984 4856 
Q 1566 4138 1362 3434 
Q 1159 2731 1159 2009 
Q 1159 1288 1364 580 
Q 1569 -128 1984 -844 
L 1484 -844 
Q 1016 -109 783 600 
Q 550 1309 550 2009 
Q 550 2706 781 3412 
Q 1013 4119 1484 4856 
L 1984 4856 
z
" transform="scale(0.015625)"/>
       <path id="DejaVuSans-73" d="M 2834 3397 
L 2834 2853 
Q 2591 2978 2328 3040 
Q 2066 3103 1784 3103 
Q 1356 3103 1142 2972 
Q 928 2841 928 2578 
Q 928 2378 1081 2264 
Q 1234 2150 1697 2047 
L 1894 2003 
Q 2506 1872 2764 1633 
Q 3022 1394 3022 966 
Q 3022 478 2636 193 
Q 2250 -91 1575 -91 
Q 1294 -91 989 -36 
Q 684 19 347 128 
L 347 722 
Q 666 556 975 473 
Q 1284 391 1588 391 
Q 1994 391 2212 530 
Q 2431 669 2431 922 
Q 2431 1156 2273 1281 
Q 2116 1406 1581 1522 
L 1381 1569 
Q 847 1681 609 1914 
Q 372 2147 372 2553 
Q 372 3047 722 3315 
Q 1072 3584 1716 3584 
Q 2034 3584 2315 3537 
Q 2597 3491 2834 3397 
z
" transform="scale(0.015625)"/>
       <path id="DejaVuSans-29" d="M 513 4856 
L 1013 4856 
Q 1481 4119 1714 3412 
Q 1947 2706 1947 2009 
Q 1947 1309 1714 600 
Q 1481 -109 1013 -844 
L 513 -844 
Q 928 -128 1133 580 
Q 1338 1288 1338 2009 
Q 1338 2731 1133 3434 
Q 928 4138 513 4856 
z
" transform="scale(0.015625)"/>
      </defs>
      <use xlink:href="#DejaVuSans-54"/>
      <use xlink:href="#DejaVuSans-69" x="57.958984"/>
      <use xlink:href="#DejaVuSans-6d" x="85.742188"/>
      <use xlink:href="#DejaVuSans-65" x="183.154297"/>
      <use xlink:href="#DejaVuSans-20" x="244.677734"/>
      <use xlink:href="#DejaVuSans-63" x="276.464844"/>
      <use xlink:href="#DejaVuSans-75" x="331.445312"/>
      <use xlink:href="#DejaVuSans-74" x="394.824219"/>
      <use xlink:href="#DejaVuSans-6f" x="434.033203"/>
      <use xlink:href="#DejaVuSans-66" x="495.214844"/>
      <use xlink:href="#DejaVuSans-66" x="530.419922"/>
      <use xlink:href="#DejaVuSans-20" x="565.625"/>
      <use xlink:href="#DejaVuSans-28" x="597.412109"/>
      <use xlink:href="#DejaVuSans-73" x="636.425781"/>
      <use xlink:href="#DejaVuSans-29" x="688.525391"/>
     </g>
    </g>
   </g>
   <g id="matplotlib.axis_2">
    <g id="ytick_1">
     <g id="line2d_8">
      <path d="M 110.808 490.105618 
L 780.408 490.105618 
" clip-path="url(#p4d4f946c45)" style="fill: none; stroke: #cccccc; stroke-width: 0.8; stroke-linecap: round"/>
     </g>
     <g id="text_6">
      <!-- 0 -->
      <g style="fill: #262626" transform="translate(82.9115 501.807212)scale(0.308 -0.308)">
       <use xlink:href="#DejaVuSans-30"/>
      </g>
     </g>
    </g>
    <g id="ytick_2">
     <g id="line2d_9">
      <path d="M 110.808 400.914607 
L 780.408 400.914607 
" clip-path="url(#p4d4f946c45)" style="fill: none; stroke: #cccccc; stroke-width: 0.8; stroke-linecap: round"/>
     </g>
     <g id="text_7">
      <!-- 100 -->
      <g style="fill: #262626" transform="translate(43.7185 412.6162)scale(0.308 -0.308)">
       <use xlink:href="#DejaVuSans-31"/>
       <use xlink:href="#DejaVuSans-30" x="63.623047"/>
       <use xlink:href="#DejaVuSans-30" x="127.246094"/>
      </g>
     </g>
    </g>
    <g id="ytick_3">
     <g id="line2d_10">
      <path d="M 110.808 311.723596 
L 780.408 311.723596 
" clip-path="url(#p4d4f946c45)" style="fill: none; stroke: #cccccc; stroke-width: 0.8; stroke-linecap: round"/>
     </g>
     <g id="text_8">
      <!-- 200 -->
      <g style="fill: #262626" transform="translate(43.7185 323.425189)scale(0.308 -0.308)">
       <use xlink:href="#DejaVuSans-32"/>
       <use xlink:href="#DejaVuSans-30" x="63.623047"/>
       <use xlink:href="#DejaVuSans-30" x="127.246094"/>
      </g>
     </g>
    </g>
    <g id="ytick_4">
     <g id="line2d_11">
      <path d="M 110.808 222.532584 
L 780.408 222.532584 
" clip-path="url(#p4d4f946c45)" style="fill: none; stroke: #cccccc; stroke-width: 0.8; stroke-linecap: round"/>
     </g>
     <g id="text_9">
      <!-- 300 -->
      <g style="fill: #262626" transform="translate(43.7185 234.234178)scale(0.308 -0.308)">
       <use xlink:href="#DejaVuSans-33"/>
       <use xlink:href="#DejaVuSans-30" x="63.623047"/>
       <use xlink:href="#DejaVuSans-30" x="127.246094"/>
      </g>
     </g>
    </g>
    <g id="ytick_5">
     <g id="line2d_12">
      <path d="M 110.808 133.341573 
L 780.408 133.341573 
" clip-path="url(#p4d4f946c45)" style="fill: none; stroke: #cccccc; stroke-width: 0.8; stroke-linecap: round"/>
     </g>
     <g id="text_10">
      <!-- 400 -->
      <g style="fill: #262626" transform="translate(43.7185 145.043167)scale(0.308 -0.308)">
       <defs>
        <path id="DejaVuSans-34" d="M 2419 4116 
L 825 1625 
L 2419 1625 
L 2419 4116 
z
M 2253 4666 
L 3047 4666 
L 3047 1625 
L 3713 1625 
L 3713 1100 
L 3047 1100 
L 3047 0 
L 2419 0 
L 2419 1100 
L 313 1100 
L 313 1709 
L 2253 4666 
z
" transform="scale(0.015625)"/>
       </defs>
       <use xlink:href="#DejaVuSans-34"/>
       <use xlink:href="#DejaVuSans-30" x="63.623047"/>
       <use xlink:href="#DejaVuSans-30" x="127.246094"/>
      </g>
     </g>
    </g>
    <g id="ytick_6">
     <g id="line2d_13">
      <path d="M 110.808 44.150562 
L 780.408 44.150562 
" clip-path="url(#p4d4f946c45)" style="fill: none; stroke: #cccccc; stroke-width: 0.8; stroke-linecap: round"/>
     </g>
     <g id="text_11">
      <!-- 500 -->
      <g style="fill: #262626" transform="translate(43.7185 55.852156)scale(0.308 -0.308)">
       <defs>
        <path id="DejaVuSans-35" d="M 691 4666 
L 3169 4666 
L 3169 4134 
L 1269 4134 
L 1269 2991 
Q 1406 3038 1543 3061 
Q 1681 3084 1819 3084 
Q 2600 3084 3056 2656 
Q 3513 2228 3513 1497 
Q 3513 744 3044 326 
Q 2575 -91 1722 -91 
Q 1428 -91 1123 -41 
Q 819 9 494 109 
L 494 744 
Q 775 591 1075 516 
Q 1375 441 1709 441 
Q 2250 441 2565 725 
Q 2881 1009 2881 1497 
Q 2881 1984 2565 2268 
Q 2250 2553 1709 2553 
Q 1456 2553 1204 2497 
Q 953 2441 691 2322 
L 691 4666 
z
" transform="scale(0.015625)"/>
       </defs>
       <use xlink:href="#DejaVuSans-35"/>
       <use xlink:href="#DejaVuSans-30" x="63.623047"/>
       <use xlink:href="#DejaVuSans-30" x="127.246094"/>
      </g>
     </g>
    </g>
    <g id="text_12">
     <!-- # of instances solved -->
     <g style="fill: #262626" transform="translate(32.73075 437.534625)rotate(-90)scale(0.336 -0.336)">
      <defs>
       <path id="DejaVuSans-23" d="M 3272 2816 
L 2363 2816 
L 2100 1772 
L 3016 1772 
L 3272 2816 
z
M 2803 4594 
L 2478 3297 
L 3391 3297 
L 3719 4594 
L 4219 4594 
L 3897 3297 
L 4872 3297 
L 4872 2816 
L 3775 2816 
L 3519 1772 
L 4513 1772 
L 4513 1294 
L 3397 1294 
L 3072 0 
L 2572 0 
L 2894 1294 
L 1978 1294 
L 1656 0 
L 1153 0 
L 1478 1294 
L 494 1294 
L 494 1772 
L 1594 1772 
L 1856 2816 
L 850 2816 
L 850 3297 
L 1978 3297 
L 2297 4594 
L 2803 4594 
z
" transform="scale(0.015625)"/>
       <path id="DejaVuSans-6e" d="M 3513 2113 
L 3513 0 
L 2938 0 
L 2938 2094 
Q 2938 2591 2744 2837 
Q 2550 3084 2163 3084 
Q 1697 3084 1428 2787 
Q 1159 2491 1159 1978 
L 1159 0 
L 581 0 
L 581 3500 
L 1159 3500 
L 1159 2956 
Q 1366 3272 1645 3428 
Q 1925 3584 2291 3584 
Q 2894 3584 3203 3211 
Q 3513 2838 3513 2113 
z
" transform="scale(0.015625)"/>
       <path id="DejaVuSans-61" d="M 2194 1759 
Q 1497 1759 1228 1600 
Q 959 1441 959 1056 
Q 959 750 1161 570 
Q 1363 391 1709 391 
Q 2188 391 2477 730 
Q 2766 1069 2766 1631 
L 2766 1759 
L 2194 1759 
z
M 3341 1997 
L 3341 0 
L 2766 0 
L 2766 531 
Q 2569 213 2275 61 
Q 1981 -91 1556 -91 
Q 1019 -91 701 211 
Q 384 513 384 1019 
Q 384 1609 779 1909 
Q 1175 2209 1959 2209 
L 2766 2209 
L 2766 2266 
Q 2766 2663 2505 2880 
Q 2244 3097 1772 3097 
Q 1472 3097 1187 3025 
Q 903 2953 641 2809 
L 641 3341 
Q 956 3463 1253 3523 
Q 1550 3584 1831 3584 
Q 2591 3584 2966 3190 
Q 3341 2797 3341 1997 
z
" transform="scale(0.015625)"/>
       <path id="DejaVuSans-6c" d="M 603 4863 
L 1178 4863 
L 1178 0 
L 603 0 
L 603 4863 
z
" transform="scale(0.015625)"/>
       <path id="DejaVuSans-76" d="M 191 3500 
L 800 3500 
L 1894 563 
L 2988 3500 
L 3597 3500 
L 2284 0 
L 1503 0 
L 191 3500 
z
" transform="scale(0.015625)"/>
       <path id="DejaVuSans-64" d="M 2906 2969 
L 2906 4863 
L 3481 4863 
L 3481 0 
L 2906 0 
L 2906 525 
Q 2725 213 2448 61 
Q 2172 -91 1784 -91 
Q 1150 -91 751 415 
Q 353 922 353 1747 
Q 353 2572 751 3078 
Q 1150 3584 1784 3584 
Q 2172 3584 2448 3432 
Q 2725 3281 2906 2969 
z
M 947 1747 
Q 947 1113 1208 752 
Q 1469 391 1925 391 
Q 2381 391 2643 752 
Q 2906 1113 2906 1747 
Q 2906 2381 2643 2742 
Q 2381 3103 1925 3103 
Q 1469 3103 1208 2742 
Q 947 2381 947 1747 
z
" transform="scale(0.015625)"/>
      </defs>
      <use xlink:href="#DejaVuSans-23"/>
      <use xlink:href="#DejaVuSans-20" x="83.789062"/>
      <use xlink:href="#DejaVuSans-6f" x="115.576172"/>
      <use xlink:href="#DejaVuSans-66" x="176.757812"/>
      <use xlink:href="#DejaVuSans-20" x="211.962891"/>
      <use xlink:href="#DejaVuSans-69" x="243.75"/>
      <use xlink:href="#DejaVuSans-6e" x="271.533203"/>
      <use xlink:href="#DejaVuSans-73" x="334.912109"/>
      <use xlink:href="#DejaVuSans-74" x="387.011719"/>
      <use xlink:href="#DejaVuSans-61" x="426.220703"/>
      <use xlink:href="#DejaVuSans-6e" x="487.5"/>
      <use xlink:href="#DejaVuSans-63" x="550.878906"/>
      <use xlink:href="#DejaVuSans-65" x="605.859375"/>
      <use xlink:href="#DejaVuSans-73" x="667.382812"/>
      <use xlink:href="#DejaVuSans-20" x="719.482422"/>
      <use xlink:href="#DejaVuSans-73" x="751.269531"/>
      <use xlink:href="#DejaVuSans-6f" x="803.369141"/>
      <use xlink:href="#DejaVuSans-6c" x="864.550781"/>
      <use xlink:href="#DejaVuSans-76" x="892.333984"/>
      <use xlink:href="#DejaVuSans-65" x="951.513672"/>
      <use xlink:href="#DejaVuSans-64" x="1013.037109"/>
     </g>
    </g>
   </g>
   <g id="PolyCollection_1">
    <path d="M 141.244364 476.418228 
L 141.244364 481.426646 
L 141.451132 458.305592 
L 141.657901 440.090043 
L 141.86467 430.729888 
L 142.071439 424.847528 
L 142.278208 418.455506 
L 142.484976 410.428315 
L 142.691745 398.194281 
L 142.898514 381.961517 
L 143.105283 361.930942 
L 143.312051 336.48302 
L 143.51882 317.124607 
L 143.725589 303.615322 
L 143.932358 291.473301 
L 144.139126 280.35809 
L 144.345895 275.333663 
L 144.552664 271.141685 
L 144.759433 266.979438 
L 144.966202 262.222584 
L 145.17297 258.060337 
L 145.379739 252.563941 
L 145.586508 246.996404 
L 145.793277 242.154607 
L 146.000045 239.478876 
L 146.206814 236.981528 
L 146.413583 233.235506 
L 146.620352 230.559775 
L 146.827121 227.884045 
L 146.827121 226.992135 
L 146.827121 226.992135 
L 146.620352 228.775955 
L 146.413583 231.451685 
L 146.206814 234.840944 
L 146.000045 238.586966 
L 145.793277 240.370787 
L 145.586508 244.44809 
L 145.379739 250.181798 
L 145.17297 255.68191 
L 144.966202 260.438764 
L 144.759433 264.601011 
L 144.552664 269.357865 
L 144.345895 273.193079 
L 144.139126 277.979663 
L 143.932358 287.274765 
L 143.725589 300.29093 
L 143.51882 312.764157 
L 143.312051 331.594461 
L 143.105283 356.318382 
L 142.898514 378.003666 
L 142.691745 393.73473 
L 142.484976 407.455281 
L 142.278208 415.479994 
L 142.071439 422.320449 
L 141.86467 428.181573 
L 141.657901 436.385186 
L 141.451132 453.400086 
L 141.244364 476.418228 
z
" clip-path="url(#p4d4f946c45)" style="fill: #4c72b0; fill-opacity: 0.2; stroke: #4c72b0; stroke-opacity: 0.2; stroke-width: 0.8"/>
    <path d="M 147.240658 224.316404 
L 147.240658 225.208315 
L 147.447427 222.022921 
L 147.654196 217.181124 
L 147.860964 214.059438 
L 148.067733 209.663596 
L 148.274502 204.248427 
L 148.274502 202.464607 
L 148.274502 202.464607 
L 148.067733 206.987865 
L 147.860964 212.275618 
L 147.654196 215.397303 
L 147.447427 219.474607 
L 147.240658 224.316404 
z
" clip-path="url(#p4d4f946c45)" style="fill: #4c72b0; fill-opacity: 0.2; stroke: #4c72b0; stroke-opacity: 0.2; stroke-width: 0.8"/>
    <path d="M 148.68804 198.451011 
L 148.68804 200.234831 
L 148.894808 197.559101 
L 149.101577 195.775281 
L 149.101577 194.883371 
L 149.101577 194.883371 
L 148.894808 196.667191 
L 148.68804 198.451011 
z
" clip-path="url(#p4d4f946c45)" style="fill: #4c72b0; fill-opacity: 0.2; stroke: #4c72b0; stroke-opacity: 0.2; stroke-width: 0.8"/>
    <path d="M 149.721883 190.42382 
L 149.721883 192.20764 
L 150.135421 189.308933 
L 150.135421 187.079157 
L 150.135421 187.079157 
L 149.721883 190.42382 
z
" clip-path="url(#p4d4f946c45)" style="fill: #4c72b0; fill-opacity: 0.2; stroke: #4c72b0; stroke-opacity: 0.2; stroke-width: 0.8"/>
    <path d="M 150.548958 184.180449 
L 150.548958 185.07236 
L 150.755727 183.288539 
L 150.962496 181.058764 
L 151.169265 177.937079 
L 151.376034 176.153258 
L 151.376034 174.369438 
L 151.376034 174.369438 
L 151.169265 177.045169 
L 150.962496 179.274944 
L 150.755727 182.396629 
L 150.548958 184.180449 
z
" clip-path="url(#p4d4f946c45)" style="fill: #4c72b0; fill-opacity: 0.2; stroke: #4c72b0; stroke-opacity: 0.2; stroke-width: 0.8"/>
    <path d="M 152.616646 169.909888 
L 152.616646 170.801798 
L 152.616646 169.909888 
L 152.616646 169.909888 
z
" clip-path="url(#p4d4f946c45)" style="fill: #4c72b0; fill-opacity: 0.2; stroke: #4c72b0; stroke-opacity: 0.2; stroke-width: 0.8"/>
    <path d="M 153.443721 166.342247 
L 153.443721 168.126067 
L 153.443721 166.342247 
L 153.443721 166.342247 
z
" clip-path="url(#p4d4f946c45)" style="fill: #4c72b0; fill-opacity: 0.2; stroke: #4c72b0; stroke-opacity: 0.2; stroke-width: 0.8"/>
    <path d="M 154.064028 163.666517 
L 154.064028 164.558427 
L 154.270796 162.774607 
L 154.270796 161.882697 
L 154.270796 161.882697 
L 154.064028 163.666517 
z
" clip-path="url(#p4d4f946c45)" style="fill: #4c72b0; fill-opacity: 0.2; stroke: #4c72b0; stroke-opacity: 0.2; stroke-width: 0.8"/>
    <path d="M 156.545253 154.301461 
L 156.545253 156.085281 
L 156.958791 152.963596 
L 159.026478 151.179775 
L 159.026478 150.287865 
L 159.026478 150.287865 
L 156.958791 152.071685 
L 156.545253 154.301461 
z
" clip-path="url(#p4d4f946c45)" style="fill: #4c72b0; fill-opacity: 0.2; stroke: #4c72b0; stroke-opacity: 0.2; stroke-width: 0.8"/>
    <path d="M 161.300935 144.044494 
L 161.300935 145.828315 
L 161.300935 144.044494 
L 161.300935 144.044494 
z
" clip-path="url(#p4d4f946c45)" style="fill: #4c72b0; fill-opacity: 0.2; stroke: #4c72b0; stroke-opacity: 0.2; stroke-width: 0.8"/>
    <path d="M 165.643079 137.801124 
L 165.643079 138.693034 
L 166.056617 136.909213 
L 166.056617 136.017303 
L 166.056617 136.017303 
L 165.643079 137.801124 
z
" clip-path="url(#p4d4f946c45)" style="fill: #4c72b0; fill-opacity: 0.2; stroke: #4c72b0; stroke-opacity: 0.2; stroke-width: 0.8"/>
    <path d="M 187.147032 115.503371 
L 187.147032 116.395281 
L 187.147032 115.503371 
L 187.147032 115.503371 
z
" clip-path="url(#p4d4f946c45)" style="fill: #4c72b0; fill-opacity: 0.2; stroke: #4c72b0; stroke-opacity: 0.2; stroke-width: 0.8"/>
    <path d="M 199.759927 104.800449 
L 199.759927 105.69236 
L 199.759927 104.800449 
L 199.759927 104.800449 
z
" clip-path="url(#p4d4f946c45)" style="fill: #4c72b0; fill-opacity: 0.2; stroke: #4c72b0; stroke-opacity: 0.2; stroke-width: 0.8"/>
    <path d="M 213.820204 94.989438 
L 213.820204 95.881348 
L 213.820204 94.989438 
L 213.820204 94.989438 
z
" clip-path="url(#p4d4f946c45)" style="fill: #4c72b0; fill-opacity: 0.2; stroke: #4c72b0; stroke-opacity: 0.2; stroke-width: 0.8"/>
   </g>
   <g id="PolyCollection_2">
    <path d="M 141.244364 478.934444 
L 141.244364 483.48 
L 141.451132 461.914888 
L 141.657901 441.665144 
L 141.86467 430.459129 
L 142.071439 423.594607 
L 142.278208 417.712247 
L 142.484976 413.401348 
L 142.691745 411.617528 
L 142.898514 408.22827 
L 143.105283 404.482247 
L 143.312051 402.252472 
L 143.51882 399.130787 
L 143.725589 397.346966 
L 143.932358 395.117191 
L 144.139126 391.995506 
L 144.345895 390.211685 
L 144.345895 388.427865 
L 144.345895 388.427865 
L 144.139126 391.103596 
L 143.932358 393.333371 
L 143.725589 396.455056 
L 143.51882 398.238876 
L 143.312051 400.468652 
L 143.105283 403.590337 
L 142.898514 406.087685 
L 142.691745 409.833708 
L 142.484976 412.509438 
L 142.278208 415.33382 
L 142.071439 421.046292 
L 141.86467 427.448933 
L 141.657901 437.482921 
L 141.451132 456.690046 
L 141.244364 478.934444 
z
" clip-path="url(#p4d4f946c45)" style="fill: #dd8452; fill-opacity: 0.2; stroke: #dd8452; stroke-opacity: 0.2; stroke-width: 0.8"/>
    <path d="M 144.759433 384.41427 
L 144.759433 386.19809 
L 144.966202 383.076404 
L 144.966202 382.184494 
L 144.966202 382.184494 
L 144.759433 384.41427 
z
" clip-path="url(#p4d4f946c45)" style="fill: #dd8452; fill-opacity: 0.2; stroke: #dd8452; stroke-opacity: 0.2; stroke-width: 0.8"/>
    <path d="M 145.793277 379.508764 
L 145.793277 380.400674 
L 146.000045 378.616854 
L 146.000045 377.724944 
L 146.000045 377.724944 
L 145.793277 379.508764 
z
" clip-path="url(#p4d4f946c45)" style="fill: #dd8452; fill-opacity: 0.2; stroke: #dd8452; stroke-opacity: 0.2; stroke-width: 0.8"/>
    <path d="M 147.033889 373.265393 
L 147.033889 374.157303 
L 147.240658 372.150506 
L 147.240658 370.143708 
L 147.240658 370.143708 
L 147.033889 373.265393 
z
" clip-path="url(#p4d4f946c45)" style="fill: #dd8452; fill-opacity: 0.2; stroke: #dd8452; stroke-opacity: 0.2; stroke-width: 0.8"/>
    <path d="M 148.274502 364.346292 
L 148.274502 365.238202 
L 148.274502 364.346292 
L 148.274502 364.346292 
z
" clip-path="url(#p4d4f946c45)" style="fill: #dd8452; fill-opacity: 0.2; stroke: #dd8452; stroke-opacity: 0.2; stroke-width: 0.8"/>
    <path d="M 149.308346 360.778652 
L 149.308346 361.670562 
L 149.308346 360.778652 
L 149.308346 360.778652 
z
" clip-path="url(#p4d4f946c45)" style="fill: #dd8452; fill-opacity: 0.2; stroke: #dd8452; stroke-opacity: 0.2; stroke-width: 0.8"/>
    <path d="M 150.962496 355.427191 
L 150.962496 356.319101 
L 150.962496 355.427191 
L 150.962496 355.427191 
z
" clip-path="url(#p4d4f946c45)" style="fill: #dd8452; fill-opacity: 0.2; stroke: #dd8452; stroke-opacity: 0.2; stroke-width: 0.8"/>
    <path d="M 151.789571 352.751461 
L 151.789571 353.643371 
L 151.789571 352.751461 
L 151.789571 352.751461 
z
" clip-path="url(#p4d4f946c45)" style="fill: #dd8452; fill-opacity: 0.2; stroke: #dd8452; stroke-opacity: 0.2; stroke-width: 0.8"/>
    <path d="M 152.409877 349.18382 
L 152.409877 350.07573 
L 153.030184 348.29191 
L 153.030184 347.4 
L 153.030184 347.4 
L 152.409877 349.18382 
z
" clip-path="url(#p4d4f946c45)" style="fill: #dd8452; fill-opacity: 0.2; stroke: #dd8452; stroke-opacity: 0.2; stroke-width: 0.8"/>
    <path d="M 154.270796 343.163427 
L 154.270796 345.170225 
L 154.270796 343.163427 
L 154.270796 343.163427 
z
" clip-path="url(#p4d4f946c45)" style="fill: #dd8452; fill-opacity: 0.2; stroke: #dd8452; stroke-opacity: 0.2; stroke-width: 0.8"/>
    <path d="M 161.507704 328.669888 
L 161.507704 329.561798 
L 161.507704 328.669888 
L 161.507704 328.669888 
z
" clip-path="url(#p4d4f946c45)" style="fill: #dd8452; fill-opacity: 0.2; stroke: #dd8452; stroke-opacity: 0.2; stroke-width: 0.8"/>
    <path d="M 163.78216 325.102247 
L 163.78216 326.886067 
L 163.78216 325.102247 
L 163.78216 325.102247 
z
" clip-path="url(#p4d4f946c45)" style="fill: #dd8452; fill-opacity: 0.2; stroke: #dd8452; stroke-opacity: 0.2; stroke-width: 0.8"/>
    <path d="M 165.43631 321.534607 
L 165.43631 323.318427 
L 165.43631 321.534607 
L 165.43631 321.534607 
z
" clip-path="url(#p4d4f946c45)" style="fill: #dd8452; fill-opacity: 0.2; stroke: #dd8452; stroke-opacity: 0.2; stroke-width: 0.8"/>
    <path d="M 180.7372 305.480225 
L 180.7372 306.372135 
L 180.7372 305.480225 
L 180.7372 305.480225 
z
" clip-path="url(#p4d4f946c45)" style="fill: #dd8452; fill-opacity: 0.2; stroke: #dd8452; stroke-opacity: 0.2; stroke-width: 0.8"/>
    <path d="M 196.244858 295.669213 
L 196.244858 296.561124 
L 196.244858 295.669213 
L 196.244858 295.669213 
z
" clip-path="url(#p4d4f946c45)" style="fill: #dd8452; fill-opacity: 0.2; stroke: #dd8452; stroke-opacity: 0.2; stroke-width: 0.8"/>
   </g>
   <g id="line2d_14">
    <path d="M 141.244364 478.956742 
L 141.657901 438.374831 
L 142.071439 423.658315 
L 142.484976 408.941798 
L 142.898514 379.954719 
L 143.725589 301.912584 
L 144.139126 279.168876 
L 145.793277 241.262697 
L 146.206814 235.911236 
L 146.620352 229.667865 
L 147.033889 226.100225 
L 147.240658 224.76236 
L 148.481271 201.126742 
L 149.721883 191.31573 
L 150.755727 182.842584 
L 151.582802 173.477528 
L 151.789571 172.585618 
L 152.203109 171.693708 
L 152.616646 170.355843 
L 153.236953 169.017978 
L 153.65049 165.450337 
L 154.064028 164.112472 
L 154.270796 162.328652 
L 154.891103 160.098876 
L 155.097872 159.206966 
L 155.511409 158.315056 
L 156.338484 157.423146 
L 156.545253 155.193371 
L 156.958791 152.51764 
L 159.026478 150.73382 
L 159.440016 149.395955 
L 160.47386 148.504045 
L 161.300935 144.936404 
L 162.334779 142.260674 
L 163.161854 141.368764 
L 164.195698 140.476854 
L 165.643079 138.247079 
L 166.676923 134.233483 
L 170.398761 133.341573 
L 171.225836 132.449663 
L 173.293524 131.557753 
L 174.534136 130.665843 
L 174.947674 129.773933 
L 176.188287 128.882022 
L 176.395055 127.990112 
L 177.22213 126.206292 
L 178.462743 125.314382 
L 178.876281 124.422472 
L 180.323662 123.530562 
L 181.564275 121.746742 
L 182.804887 120.854831 
L 184.459038 119.071011 
L 185.69965 118.179101 
L 186.113188 117.287191 
L 187.147032 115.949326 
L 187.767338 114.611461 
L 190.041794 113.719551 
L 190.248563 112.82764 
L 193.350095 111.93573 
L 193.970401 111.04382 
L 195.83132 110.15191 
L 196.244858 109.26 
L 196.451626 108.36809 
L 197.48547 107.47618 
L 199.139621 106.58427 
L 199.759927 105.246404 
L 201.414077 103.016629 
L 204.30884 102.124719 
L 205.549453 101.232809 
L 205.756221 100.340899 
L 206.996834 99.448989 
L 207.61714 98.557079 
L 211.545747 97.665169 
L 212.993128 96.773258 
L 213.820204 95.435393 
L 214.026972 94.097528 
L 216.714966 93.205618 
L 220.230036 92.313708 
L 227.88048 89.637978 
L 233.256468 88.746067 
L 235.530925 87.854157 
L 243.594907 86.962247 
L 245.455826 86.070337 
L 246.696439 85.178427 
L 252.485964 84.286517 
L 253.726577 83.394607 
L 254.553652 82.502697 
L 255.794265 81.610787 
L 258.895796 80.718876 
L 270.474848 79.826966 
L 270.681617 78.935056 
L 271.508692 78.043146 
L 271.71546 77.151236 
L 279.365905 76.259326 
L 280.399749 75.367416 
L 286.396043 74.475506 
L 289.497575 73.583596 
L 296.320945 72.691685 
L 296.941251 71.799775 
L 298.181864 70.907865 
L 300.663089 70.015955 
L 303.557852 69.124045 
L 321.339966 68.232135 
L 326.715955 67.340225 
L 331.058099 66.448315 
L 332.712249 65.556404 
L 340.776231 64.664494 
L 345.325144 63.772584 
L 367.656172 62.880674 
L 371.171241 61.988764 
L 392.881962 61.096854 
L 406.73547 60.204944 
L 413.55884 59.313034 
L 414.592684 58.421124 
L 414.799453 57.529213 
L 419.555134 56.637303 
L 428.859729 55.745393 
L 435.269561 53.961573 
L 440.232012 53.069663 
L 469.17964 51.285843 
L 478.691004 50.393933 
L 479.724848 49.502022 
L 489.236211 48.610112 
L 518.18384 47.718202 
L 542.789324 46.826292 
L 545.890856 45.934382 
L 550.026231 45.042472 
L 557.883445 44.150562 
L 569.255727 42.366742 
L 572.564028 41.474831 
L 577.940016 40.582921 
L 579.800935 39.691011 
L 588.485223 38.799101 
L 603.372575 37.907191 
L 625.496834 36.123371 
L 636.455579 34.339551 
L 647.621093 33.44764 
L 680.290559 32.55573 
L 717.922476 31.66382 
L 727.640609 30.77191 
L 744.182111 29.88 
L 744.182111 29.88 
" clip-path="url(#p4d4f946c45)" style="fill: none; stroke: #4c72b0; stroke-width: 3; stroke-linecap: round"/>
   </g>
   <g id="line2d_15">
    <path d="M 141.244364 481.186517 
L 141.657901 439.712697 
L 142.071439 422.320449 
L 142.484976 412.955393 
L 142.691745 410.725618 
L 143.312051 401.360562 
L 144.345895 389.319775 
L 144.759433 385.30618 
L 144.966202 382.630449 
L 145.793277 379.954719 
L 146.206814 376.833034 
L 146.413583 375.941124 
L 146.827121 375.049213 
L 147.033889 373.711348 
L 147.447427 368.805843 
L 148.274502 364.792247 
L 148.481271 363.454382 
L 149.101577 362.562472 
L 149.515115 359.886742 
L 149.928652 358.994831 
L 150.34219 357.211011 
L 151.582802 354.535281 
L 152.409877 349.629775 
L 153.030184 347.845955 
L 153.236953 346.50809 
L 154.270796 344.278315 
L 155.097872 342.048539 
L 156.131715 341.156629 
L 156.545253 340.264719 
L 157.165559 337.588989 
L 157.785866 336.697079 
L 157.992634 335.805169 
L 158.406172 334.913258 
L 159.440016 334.021348 
L 159.853553 333.129438 
L 160.060322 332.237528 
L 160.47386 331.345618 
L 161.300935 330.453708 
L 161.507704 329.115843 
L 163.575391 327.777978 
L 163.78216 325.994157 
L 165.022773 324.210337 
L 165.43631 322.426517 
L 166.263385 319.750787 
L 167.09046 318.858876 
L 167.297229 317.966966 
L 168.537842 317.075056 
L 168.744611 316.183146 
L 169.364917 315.291236 
L 171.019067 314.399326 
L 173.293524 313.507416 
L 173.707061 312.615506 
L 174.947674 311.723596 
L 176.601824 310.831685 
L 177.015362 309.939775 
L 178.669512 309.047865 
L 179.083049 308.155955 
L 180.530431 307.264045 
L 180.943968 304.588315 
L 184.872575 303.696404 
L 185.286113 301.912584 
L 188.387644 301.020674 
L 188.801182 300.128764 
L 189.835026 299.236854 
L 190.248563 298.344944 
L 195.624551 297.453034 
L 196.244858 296.115169 
L 197.692239 293.885393 
L 197.899008 292.993483 
L 199.139621 292.101573 
L 202.861458 291.209663 
L 204.102071 289.425843 
L 205.342684 288.533933 
L 206.790065 287.642022 
L 209.064522 286.750112 
L 215.474354 285.858202 
L 217.542042 284.966292 
L 217.955579 284.074382 
L 219.609729 283.182472 
L 220.436804 281.398652 
L 222.91803 280.506742 
L 225.812792 279.614831 
L 226.846636 278.722921 
L 227.466943 277.831011 
L 229.121093 276.939101 
L 231.395549 276.047191 
L 231.602318 275.155281 
L 232.222625 274.263371 
L 234.083543 273.371461 
L 234.497081 271.58764 
L 241.527219 270.69573 
L 243.801676 269.80382 
L 244.215213 268.91191 
L 252.279196 268.02 
L 256.828109 267.12809 
L 259.722872 266.23618 
L 259.92964 265.34427 
L 261.790559 264.45236 
L 271.508692 263.560449 
L 273.369611 262.668539 
L 273.576379 261.776629 
L 275.437298 260.884719 
L 275.850836 259.992809 
L 277.504986 259.100899 
L 287.636656 257.317079 
L 290.117881 256.425169 
L 290.32465 255.533258 
L 293.426182 254.641348 
L 297.354789 253.749438 
L 299.836014 252.857528 
L 305.418771 251.965618 
L 306.452615 251.073708 
L 309.140609 250.181798 
L 336.227318 249.289888 
L 341.189769 248.397978 
L 343.670994 247.506067 
L 347.80637 246.614157 
L 349.046982 245.722247 
L 352.355283 244.830337 
L 361.039571 243.046517 
L 362.90049 242.154607 
L 366.208791 241.262697 
L 384.197674 239.478876 
L 384.81798 238.586966 
L 429.066498 236.803146 
L 496.059581 235.911236 
L 502.055875 235.019326 
L 502.882951 234.127416 
L 503.089719 233.235506 
L 557.469907 232.343596 
L 557.676676 231.451685 
L 558.71052 230.559775 
L 597.376281 229.667865 
L 608.748563 228.775955 
L 634.181123 227.884045 
L 652.997081 226.992135 
L 682.565016 226.100225 
L 683.392091 225.208315 
L 705.102812 224.316404 
L 717.095401 223.424494 
L 749.971636 222.532584 
L 749.971636 222.532584 
" clip-path="url(#p4d4f946c45)" style="fill: none; stroke: #dd8452; stroke-width: 3; stroke-linecap: round"/>
   </g>
   <g id="patch_3">
    <path d="M 110.808 506.16 
L 110.808 7.2 
" style="fill: none; stroke: #cccccc; stroke-linejoin: miter; stroke-linecap: square"/>
   </g>
   <g id="patch_4">
    <path d="M 780.408 506.16 
L 780.408 7.2 
" style="fill: none; stroke: #cccccc; stroke-linejoin: miter; stroke-linecap: square"/>
   </g>
   <g id="patch_5">
    <path d="M 110.808 506.16 
L 780.408 506.16 
" style="fill: none; stroke: #cccccc; stroke-linejoin: miter; stroke-linecap: square"/>
   </g>
   <g id="patch_6">
    <path d="M 110.808 7.2 
L 780.408 7.2 
" style="fill: none; stroke: #cccccc; stroke-linejoin: miter; stroke-linecap: square"/>
   </g>
  </g>
 </g>
 <defs>
  <clipPath id="p4d4f946c45">
   <rect x="110.808" y="7.2" width="669.6" height="498.96"/>
  </clipPath>
 </defs>
</svg>
