<?xml version="1.0" encoding="utf-8" standalone="no"?>
<!DOCTYPE svg PUBLIC "-//W3C//DTD SVG 1.1//EN"
  "http://www.w3.org/Graphics/SVG/1.1/DTD/svg11.dtd">
<svg xmlns:xlink="http://www.w3.org/1999/xlink" width="818.823438pt" height="587.987125pt" viewBox="0 0 818.823438 587.987125" xmlns="http://www.w3.org/2000/svg" version="1.1">
 <metadata>
  <rdf:RDF xmlns:dc="http://purl.org/dc/elements/1.1/" xmlns:cc="http://creativecommons.org/ns#" xmlns:rdf="http://www.w3.org/1999/02/22-rdf-syntax-ns#">
   <cc:Work>
    <dc:type rdf:resource="http://purl.org/dc/dcmitype/StillImage"/>
    <dc:date>2022-03-16T10:38:51.301342</dc:date>
    <dc:format>image/svg+xml</dc:format>
    <dc:creator>
     <cc:Agent>
      <dc:title>Matplotlib v3.5.0, https://matplotlib.org/</dc:title>
     </cc:Agent>
    </dc:creator>
   </cc:Work>
  </rdf:RDF>
 </metadata>
 <defs>
  <style type="text/css">*{stroke-linejoin: round; stroke-linecap: butt}</style>
 </defs>
 <g id="figure_1">
  <g id="patch_1">
   <path d="M 0 587.987125 
L 818.823438 587.987125 
L 818.823438 0 
L 0 0 
z
" style="fill: #ffffff"/>
  </g>
  <g id="axes_1">
   <g id="patch_2">
    <path d="M 131.486 506.16 
L 801.086 506.16 
L 801.086 7.2 
L 131.486 7.2 
z
" style="fill: #ffffff"/>
   </g>
   <g id="matplotlib.axis_1">
    <g id="xtick_1">
     <g id="line2d_1">
      <path d="M 161.922364 506.16 
L 161.922364 7.2 
" clip-path="url(#pec4ba3d6cf)" style="fill: none; stroke: #cccccc; stroke-width: 0.8; stroke-linecap: round"/>
     </g>
     <g id="text_1">
      <!-- 0 -->
      <g style="fill: #262626" transform="translate(152.124114 537.863187)scale(0.308 -0.308)">
       <defs>
        <path id="DejaVuSans-30" d="M 2034 4250 
Q 1547 4250 1301 3770 
Q 1056 3291 1056 2328 
Q 1056 1369 1301 889 
Q 1547 409 2034 409 
Q 2525 409 2770 889 
Q 3016 1369 3016 2328 
Q 3016 3291 2770 3770 
Q 2525 4250 2034 4250 
z
M 2034 4750 
Q 2819 4750 3233 4129 
Q 3647 3509 3647 2328 
Q 3647 1150 3233 529 
Q 2819 -91 2034 -91 
Q 1250 -91 836 529 
Q 422 1150 422 2328 
Q 422 3509 836 4129 
Q 1250 4750 2034 4750 
z
" transform="scale(0.015625)"/>
       </defs>
       <use xlink:href="#DejaVuSans-30"/>
      </g>
     </g>
    </g>
    <g id="xtick_2">
     <g id="line2d_2">
      <path d="M 265.306751 506.16 
L 265.306751 7.2 
" clip-path="url(#pec4ba3d6cf)" style="fill: none; stroke: #cccccc; stroke-width: 0.8; stroke-linecap: round"/>
     </g>
    </g>
    <g id="xtick_3">
     <g id="line2d_3">
      <path d="M 368.691138 506.16 
L 368.691138 7.2 
" clip-path="url(#pec4ba3d6cf)" style="fill: none; stroke: #cccccc; stroke-width: 0.8; stroke-linecap: round"/>
     </g>
     <g id="text_2">
      <!-- 100 -->
      <g style="fill: #262626" transform="translate(339.296388 537.863187)scale(0.308 -0.308)">
       <defs>
        <path id="DejaVuSans-31" d="M 794 531 
L 1825 531 
L 1825 4091 
L 703 3866 
L 703 4441 
L 1819 4666 
L 2450 4666 
L 2450 531 
L 3481 531 
L 3481 0 
L 794 0 
L 794 531 
z
" transform="scale(0.015625)"/>
       </defs>
       <use xlink:href="#DejaVuSans-31"/>
       <use xlink:href="#DejaVuSans-30" x="63.623047"/>
       <use xlink:href="#DejaVuSans-30" x="127.246094"/>
      </g>
     </g>
    </g>
    <g id="xtick_4">
     <g id="line2d_4">
      <path d="M 472.075526 506.16 
L 472.075526 7.2 
" clip-path="url(#pec4ba3d6cf)" style="fill: none; stroke: #cccccc; stroke-width: 0.8; stroke-linecap: round"/>
     </g>
    </g>
    <g id="xtick_5">
     <g id="line2d_5">
      <path d="M 575.459913 506.16 
L 575.459913 7.2 
" clip-path="url(#pec4ba3d6cf)" style="fill: none; stroke: #cccccc; stroke-width: 0.8; stroke-linecap: round"/>
     </g>
     <g id="text_3">
      <!-- 200 -->
      <g style="fill: #262626" transform="translate(546.065163 537.863187)scale(0.308 -0.308)">
       <defs>
        <path id="DejaVuSans-32" d="M 1228 531 
L 3431 531 
L 3431 0 
L 469 0 
L 469 531 
Q 828 903 1448 1529 
Q 2069 2156 2228 2338 
Q 2531 2678 2651 2914 
Q 2772 3150 2772 3378 
Q 2772 3750 2511 3984 
Q 2250 4219 1831 4219 
Q 1534 4219 1204 4116 
Q 875 4013 500 3803 
L 500 4441 
Q 881 4594 1212 4672 
Q 1544 4750 1819 4750 
Q 2544 4750 2975 4387 
Q 3406 4025 3406 3419 
Q 3406 3131 3298 2873 
Q 3191 2616 2906 2266 
Q 2828 2175 2409 1742 
Q 1991 1309 1228 531 
z
" transform="scale(0.015625)"/>
       </defs>
       <use xlink:href="#DejaVuSans-32"/>
       <use xlink:href="#DejaVuSans-30" x="63.623047"/>
       <use xlink:href="#DejaVuSans-30" x="127.246094"/>
      </g>
     </g>
    </g>
    <g id="xtick_6">
     <g id="line2d_6">
      <path d="M 678.8443 506.16 
L 678.8443 7.2 
" clip-path="url(#pec4ba3d6cf)" style="fill: none; stroke: #cccccc; stroke-width: 0.8; stroke-linecap: round"/>
     </g>
    </g>
    <g id="xtick_7">
     <g id="line2d_7">
      <path d="M 782.228688 506.16 
L 782.228688 7.2 
" clip-path="url(#pec4ba3d6cf)" style="fill: none; stroke: #cccccc; stroke-width: 0.8; stroke-linecap: round"/>
     </g>
     <g id="text_4">
      <!-- 300 -->
      <g style="fill: #262626" transform="translate(752.833938 537.863187)scale(0.308 -0.308)">
       <defs>
        <path id="DejaVuSans-33" d="M 2597 2516 
Q 3050 2419 3304 2112 
Q 3559 1806 3559 1356 
Q 3559 666 3084 287 
Q 2609 -91 1734 -91 
Q 1441 -91 1130 -33 
Q 819 25 488 141 
L 488 750 
Q 750 597 1062 519 
Q 1375 441 1716 441 
Q 2309 441 2620 675 
Q 2931 909 2931 1356 
Q 2931 1769 2642 2001 
Q 2353 2234 1838 2234 
L 1294 2234 
L 1294 2753 
L 1863 2753 
Q 2328 2753 2575 2939 
Q 2822 3125 2822 3475 
Q 2822 3834 2567 4026 
Q 2313 4219 1838 4219 
Q 1578 4219 1281 4162 
Q 984 4106 628 3988 
L 628 4550 
Q 988 4650 1302 4700 
Q 1616 4750 1894 4750 
Q 2613 4750 3031 4423 
Q 3450 4097 3450 3541 
Q 3450 3153 3228 2886 
Q 3006 2619 2597 2516 
z
" transform="scale(0.015625)"/>
       </defs>
       <use xlink:href="#DejaVuSans-33"/>
       <use xlink:href="#DejaVuSans-30" x="63.623047"/>
       <use xlink:href="#DejaVuSans-30" x="127.246094"/>
      </g>
     </g>
    </g>
    <g id="text_5">
     <!-- Time cutoff (s) -->
     <g style="fill: #262626" transform="translate(344.063375 573.799375)scale(0.336 -0.336)">
      <defs>
       <path id="DejaVuSans-54" d="M -19 4666 
L 3928 4666 
L 3928 4134 
L 2272 4134 
L 2272 0 
L 1638 0 
L 1638 4134 
L -19 4134 
L -19 4666 
z
" transform="scale(0.015625)"/>
       <path id="DejaVuSans-69" d="M 603 3500 
L 1178 3500 
L 1178 0 
L 603 0 
L 603 3500 
z
M 603 4863 
L 1178 4863 
L 1178 4134 
L 603 4134 
L 603 4863 
z
" transform="scale(0.015625)"/>
       <path id="DejaVuSans-6d" d="M 3328 2828 
Q 3544 3216 3844 3400 
Q 4144 3584 4550 3584 
Q 5097 3584 5394 3201 
Q 5691 2819 5691 2113 
L 5691 0 
L 5113 0 
L 5113 2094 
Q 5113 2597 4934 2840 
Q 4756 3084 4391 3084 
Q 3944 3084 3684 2787 
Q 3425 2491 3425 1978 
L 3425 0 
L 2847 0 
L 2847 2094 
Q 2847 2600 2669 2842 
Q 2491 3084 2119 3084 
Q 1678 3084 1418 2786 
Q 1159 2488 1159 1978 
L 1159 0 
L 581 0 
L 581 3500 
L 1159 3500 
L 1159 2956 
Q 1356 3278 1631 3431 
Q 1906 3584 2284 3584 
Q 2666 3584 2933 3390 
Q 3200 3197 3328 2828 
z
" transform="scale(0.015625)"/>
       <path id="DejaVuSans-65" d="M 3597 1894 
L 3597 1613 
L 953 1613 
Q 991 1019 1311 708 
Q 1631 397 2203 397 
Q 2534 397 2845 478 
Q 3156 559 3463 722 
L 3463 178 
Q 3153 47 2828 -22 
Q 2503 -91 2169 -91 
Q 1331 -91 842 396 
Q 353 884 353 1716 
Q 353 2575 817 3079 
Q 1281 3584 2069 3584 
Q 2775 3584 3186 3129 
Q 3597 2675 3597 1894 
z
M 3022 2063 
Q 3016 2534 2758 2815 
Q 2500 3097 2075 3097 
Q 1594 3097 1305 2825 
Q 1016 2553 972 2059 
L 3022 2063 
z
" transform="scale(0.015625)"/>
       <path id="DejaVuSans-20" transform="scale(0.015625)"/>
       <path id="DejaVuSans-63" d="M 3122 3366 
L 3122 2828 
Q 2878 2963 2633 3030 
Q 2388 3097 2138 3097 
Q 1578 3097 1268 2742 
Q 959 2388 959 1747 
Q 959 1106 1268 751 
Q 1578 397 2138 397 
Q 2388 397 2633 464 
Q 2878 531 3122 666 
L 3122 134 
Q 2881 22 2623 -34 
Q 2366 -91 2075 -91 
Q 1284 -91 818 406 
Q 353 903 353 1747 
Q 353 2603 823 3093 
Q 1294 3584 2113 3584 
Q 2378 3584 2631 3529 
Q 2884 3475 3122 3366 
z
" transform="scale(0.015625)"/>
       <path id="DejaVuSans-75" d="M 544 1381 
L 544 3500 
L 1119 3500 
L 1119 1403 
Q 1119 906 1312 657 
Q 1506 409 1894 409 
Q 2359 409 2629 706 
Q 2900 1003 2900 1516 
L 2900 3500 
L 3475 3500 
L 3475 0 
L 2900 0 
L 2900 538 
Q 2691 219 2414 64 
Q 2138 -91 1772 -91 
Q 1169 -91 856 284 
Q 544 659 544 1381 
z
M 1991 3584 
L 1991 3584 
z
" transform="scale(0.015625)"/>
       <path id="DejaVuSans-74" d="M 1172 4494 
L 1172 3500 
L 2356 3500 
L 2356 3053 
L 1172 3053 
L 1172 1153 
Q 1172 725 1289 603 
Q 1406 481 1766 481 
L 2356 481 
L 2356 0 
L 1766 0 
Q 1100 0 847 248 
Q 594 497 594 1153 
L 594 3053 
L 172 3053 
L 172 3500 
L 594 3500 
L 594 4494 
L 1172 4494 
z
" transform="scale(0.015625)"/>
       <path id="DejaVuSans-6f" d="M 1959 3097 
Q 1497 3097 1228 2736 
Q 959 2375 959 1747 
Q 959 1119 1226 758 
Q 1494 397 1959 397 
Q 2419 397 2687 759 
Q 2956 1122 2956 1747 
Q 2956 2369 2687 2733 
Q 2419 3097 1959 3097 
z
M 1959 3584 
Q 2709 3584 3137 3096 
Q 3566 2609 3566 1747 
Q 3566 888 3137 398 
Q 2709 -91 1959 -91 
Q 1206 -91 779 398 
Q 353 888 353 1747 
Q 353 2609 779 3096 
Q 1206 3584 1959 3584 
z
" transform="scale(0.015625)"/>
       <path id="DejaVuSans-66" d="M 2375 4863 
L 2375 4384 
L 1825 4384 
Q 1516 4384 1395 4259 
Q 1275 4134 1275 3809 
L 1275 3500 
L 2222 3500 
L 2222 3053 
L 1275 3053 
L 1275 0 
L 697 0 
L 697 3053 
L 147 3053 
L 147 3500 
L 697 3500 
L 697 3744 
Q 697 4328 969 4595 
Q 1241 4863 1831 4863 
L 2375 4863 
z
" transform="scale(0.015625)"/>
       <path id="DejaVuSans-28" d="M 1984 4856 
Q 1566 4138 1362 3434 
Q 1159 2731 1159 2009 
Q 1159 1288 1364 580 
Q 1569 -128 1984 -844 
L 1484 -844 
Q 1016 -109 783 600 
Q 550 1309 550 2009 
Q 550 2706 781 3412 
Q 1013 4119 1484 4856 
L 1984 4856 
z
" transform="scale(0.015625)"/>
       <path id="DejaVuSans-73" d="M 2834 3397 
L 2834 2853 
Q 2591 2978 2328 3040 
Q 2066 3103 1784 3103 
Q 1356 3103 1142 2972 
Q 928 2841 928 2578 
Q 928 2378 1081 2264 
Q 1234 2150 1697 2047 
L 1894 2003 
Q 2506 1872 2764 1633 
Q 3022 1394 3022 966 
Q 3022 478 2636 193 
Q 2250 -91 1575 -91 
Q 1294 -91 989 -36 
Q 684 19 347 128 
L 347 722 
Q 666 556 975 473 
Q 1284 391 1588 391 
Q 1994 391 2212 530 
Q 2431 669 2431 922 
Q 2431 1156 2273 1281 
Q 2116 1406 1581 1522 
L 1381 1569 
Q 847 1681 609 1914 
Q 372 2147 372 2553 
Q 372 3047 722 3315 
Q 1072 3584 1716 3584 
Q 2034 3584 2315 3537 
Q 2597 3491 2834 3397 
z
" transform="scale(0.015625)"/>
       <path id="DejaVuSans-29" d="M 513 4856 
L 1013 4856 
Q 1481 4119 1714 3412 
Q 1947 2706 1947 2009 
Q 1947 1309 1714 600 
Q 1481 -109 1013 -844 
L 513 -844 
Q 928 -128 1133 580 
Q 1338 1288 1338 2009 
Q 1338 2731 1133 3434 
Q 928 4138 513 4856 
z
" transform="scale(0.015625)"/>
      </defs>
      <use xlink:href="#DejaVuSans-54"/>
      <use xlink:href="#DejaVuSans-69" x="57.958984"/>
      <use xlink:href="#DejaVuSans-6d" x="85.742188"/>
      <use xlink:href="#DejaVuSans-65" x="183.154297"/>
      <use xlink:href="#DejaVuSans-20" x="244.677734"/>
      <use xlink:href="#DejaVuSans-63" x="276.464844"/>
      <use xlink:href="#DejaVuSans-75" x="331.445312"/>
      <use xlink:href="#DejaVuSans-74" x="394.824219"/>
      <use xlink:href="#DejaVuSans-6f" x="434.033203"/>
      <use xlink:href="#DejaVuSans-66" x="495.214844"/>
      <use xlink:href="#DejaVuSans-66" x="530.419922"/>
      <use xlink:href="#DejaVuSans-20" x="565.625"/>
      <use xlink:href="#DejaVuSans-28" x="597.412109"/>
      <use xlink:href="#DejaVuSans-73" x="636.425781"/>
      <use xlink:href="#DejaVuSans-29" x="688.525391"/>
     </g>
    </g>
   </g>
   <g id="matplotlib.axis_2">
    <g id="ytick_1">
     <g id="line2d_8">
      <path d="M 131.486 486.885845 
L 801.086 486.885845 
" clip-path="url(#pec4ba3d6cf)" style="fill: none; stroke: #cccccc; stroke-width: 0.8; stroke-linecap: round"/>
     </g>
     <g id="text_6">
      <!-- 0 -->
      <g style="fill: #262626" transform="translate(103.5895 498.587438)scale(0.308 -0.308)">
       <use xlink:href="#DejaVuSans-30"/>
      </g>
     </g>
    </g>
    <g id="ytick_2">
     <g id="line2d_9">
      <path d="M 131.486 385.283834 
L 801.086 385.283834 
" clip-path="url(#pec4ba3d6cf)" style="fill: none; stroke: #cccccc; stroke-width: 0.8; stroke-linecap: round"/>
     </g>
     <g id="text_7">
      <!-- 1000 -->
      <g style="fill: #262626" transform="translate(44.8 396.985428)scale(0.308 -0.308)">
       <use xlink:href="#DejaVuSans-31"/>
       <use xlink:href="#DejaVuSans-30" x="63.623047"/>
       <use xlink:href="#DejaVuSans-30" x="127.246094"/>
       <use xlink:href="#DejaVuSans-30" x="190.869141"/>
      </g>
     </g>
    </g>
    <g id="ytick_3">
     <g id="line2d_10">
      <path d="M 131.486 283.681823 
L 801.086 283.681823 
" clip-path="url(#pec4ba3d6cf)" style="fill: none; stroke: #cccccc; stroke-width: 0.8; stroke-linecap: round"/>
     </g>
     <g id="text_8">
      <!-- 2000 -->
      <g style="fill: #262626" transform="translate(44.8 295.383417)scale(0.308 -0.308)">
       <use xlink:href="#DejaVuSans-32"/>
       <use xlink:href="#DejaVuSans-30" x="63.623047"/>
       <use xlink:href="#DejaVuSans-30" x="127.246094"/>
       <use xlink:href="#DejaVuSans-30" x="190.869141"/>
      </g>
     </g>
    </g>
    <g id="ytick_4">
     <g id="line2d_11">
      <path d="M 131.486 182.079812 
L 801.086 182.079812 
" clip-path="url(#pec4ba3d6cf)" style="fill: none; stroke: #cccccc; stroke-width: 0.8; stroke-linecap: round"/>
     </g>
     <g id="text_9">
      <!-- 3000 -->
      <g style="fill: #262626" transform="translate(44.8 193.781406)scale(0.308 -0.308)">
       <use xlink:href="#DejaVuSans-33"/>
       <use xlink:href="#DejaVuSans-30" x="63.623047"/>
       <use xlink:href="#DejaVuSans-30" x="127.246094"/>
       <use xlink:href="#DejaVuSans-30" x="190.869141"/>
      </g>
     </g>
    </g>
    <g id="ytick_5">
     <g id="line2d_12">
      <path d="M 131.486 80.477801 
L 801.086 80.477801 
" clip-path="url(#pec4ba3d6cf)" style="fill: none; stroke: #cccccc; stroke-width: 0.8; stroke-linecap: round"/>
     </g>
     <g id="text_10">
      <!-- 4000 -->
      <g style="fill: #262626" transform="translate(44.8 92.179395)scale(0.308 -0.308)">
       <defs>
        <path id="DejaVuSans-34" d="M 2419 4116 
L 825 1625 
L 2419 1625 
L 2419 4116 
z
M 2253 4666 
L 3047 4666 
L 3047 1625 
L 3713 1625 
L 3713 1100 
L 3047 1100 
L 3047 0 
L 2419 0 
L 2419 1100 
L 313 1100 
L 313 1709 
L 2253 4666 
z
" transform="scale(0.015625)"/>
       </defs>
       <use xlink:href="#DejaVuSans-34"/>
       <use xlink:href="#DejaVuSans-30" x="63.623047"/>
       <use xlink:href="#DejaVuSans-30" x="127.246094"/>
       <use xlink:href="#DejaVuSans-30" x="190.869141"/>
      </g>
     </g>
    </g>
    <g id="text_11">
     <!-- |P| + |P'| -->
     <g style="fill: #262626" transform="translate(32.87775 328.9515)rotate(-90)scale(0.336 -0.336)">
      <defs>
       <path id="DejaVuSans-7c" d="M 1344 4891 
L 1344 -1509 
L 813 -1509 
L 813 4891 
L 1344 4891 
z
" transform="scale(0.015625)"/>
       <path id="DejaVuSans-50" d="M 1259 4147 
L 1259 2394 
L 2053 2394 
Q 2494 2394 2734 2622 
Q 2975 2850 2975 3272 
Q 2975 3691 2734 3919 
Q 2494 4147 2053 4147 
L 1259 4147 
z
M 628 4666 
L 2053 4666 
Q 2838 4666 3239 4311 
Q 3641 3956 3641 3272 
Q 3641 2581 3239 2228 
Q 2838 1875 2053 1875 
L 1259 1875 
L 1259 0 
L 628 0 
L 628 4666 
z
" transform="scale(0.015625)"/>
       <path id="DejaVuSans-2b" d="M 2944 4013 
L 2944 2272 
L 4684 2272 
L 4684 1741 
L 2944 1741 
L 2944 0 
L 2419 0 
L 2419 1741 
L 678 1741 
L 678 2272 
L 2419 2272 
L 2419 4013 
L 2944 4013 
z
" transform="scale(0.015625)"/>
       <path id="DejaVuSans-27" d="M 1147 4666 
L 1147 2931 
L 616 2931 
L 616 4666 
L 1147 4666 
z
" transform="scale(0.015625)"/>
      </defs>
      <use xlink:href="#DejaVuSans-7c"/>
      <use xlink:href="#DejaVuSans-50" x="33.691406"/>
      <use xlink:href="#DejaVuSans-7c" x="93.994141"/>
      <use xlink:href="#DejaVuSans-20" x="127.685547"/>
      <use xlink:href="#DejaVuSans-2b" x="159.472656"/>
      <use xlink:href="#DejaVuSans-20" x="243.261719"/>
      <use xlink:href="#DejaVuSans-7c" x="275.048828"/>
      <use xlink:href="#DejaVuSans-50" x="308.740234"/>
      <use xlink:href="#DejaVuSans-27" x="369.042969"/>
      <use xlink:href="#DejaVuSans-7c" x="396.533203"/>
     </g>
    </g>
   </g>
   <g id="PolyCollection_1">
    <path d="M 161.922364 475.209233 
L 161.922364 481.150216 
L 162.129132 458.523643 
L 162.335901 443.908194 
L 162.54267 429.683912 
L 162.749439 429.683912 
L 162.956208 429.683912 
L 163.162976 384.74873 
L 163.369745 369.723613 
L 163.576514 361.178757 
L 163.783283 349.641193 
L 163.990051 340.741715 
L 164.19682 327.935284 
L 164.403589 317.108885 
L 164.610358 317.049119 
L 164.817126 299.328533 
L 165.023895 299.328533 
L 165.230664 290.387556 
L 165.437433 290.387556 
L 165.644202 287.644301 
L 165.85097 277.077692 
L 166.057739 270.253424 
L 166.264508 267.323899 
L 166.471277 263.564625 
L 166.678045 263.564625 
L 166.884814 263.564625 
L 167.091583 212.255609 
L 167.298352 211.036385 
L 167.505121 203.517836 
L 167.505121 203.517836 
L 167.505121 203.517836 
L 167.298352 203.517836 
L 167.091583 211.036385 
L 166.884814 232.779216 
L 166.678045 263.564625 
L 166.471277 263.564625 
L 166.264508 265.712782 
L 166.057739 268.21842 
L 165.85097 273.352285 
L 165.644202 279.719345 
L 165.437433 289.015929 
L 165.230664 290.387556 
L 165.023895 293.963946 
L 164.817126 299.328533 
L 164.610358 313.552814 
L 164.403589 317.108885 
L 164.19682 324.999974 
L 163.990051 338.099555 
L 163.783283 348.067345 
L 163.576514 358.041636 
L 163.369745 366.848149 
L 163.162976 377.595948 
L 162.956208 415.08709 
L 162.749439 429.683912 
L 162.54267 429.683912 
L 162.335901 440.150873 
L 162.129132 455.60747 
L 161.922364 475.209233 
z
" clip-path="url(#pec4ba3d6cf)" style="fill: #4c72b0; fill-opacity: 0.2; stroke: #4c72b0; stroke-opacity: 0.2; stroke-width: 0.8"/>
    <path d="M 167.918658 200.469776 
L 167.918658 203.517836 
L 168.125427 200.469776 
L 168.332196 192.951227 
L 168.538964 190.715983 
L 168.745733 190.178944 
L 168.952502 185.534281 
L 168.952502 183.781646 
L 168.952502 183.781646 
L 168.745733 187.217971 
L 168.538964 190.715983 
L 168.332196 190.715983 
L 168.125427 196.92822 
L 167.918658 200.469776 
z
" clip-path="url(#pec4ba3d6cf)" style="fill: #4c72b0; fill-opacity: 0.2; stroke: #4c72b0; stroke-opacity: 0.2; stroke-width: 0.8"/>
    <path d="M 169.36604 180.149374 
L 169.36604 183.197434 
L 169.572808 180.149374 
L 169.779577 179.43816 
L 169.779577 179.43816 
L 169.779577 179.43816 
L 169.572808 179.43816 
L 169.36604 180.149374 
z
" clip-path="url(#pec4ba3d6cf)" style="fill: #4c72b0; fill-opacity: 0.2; stroke: #4c72b0; stroke-opacity: 0.2; stroke-width: 0.8"/>
    <path d="M 170.399883 179.43816 
L 170.399883 179.43816 
L 170.813421 179.43816 
L 170.813421 176.466301 
L 170.813421 176.466301 
L 170.399883 179.43816 
z
" clip-path="url(#pec4ba3d6cf)" style="fill: #4c72b0; fill-opacity: 0.2; stroke: #4c72b0; stroke-opacity: 0.2; stroke-width: 0.8"/>
    <path d="M 171.226958 167.550725 
L 171.226958 167.550725 
L 171.433727 167.550725 
L 171.640496 167.550725 
L 171.847265 167.550725 
L 172.054034 167.550725 
L 172.054034 160.23538 
L 172.054034 160.23538 
L 171.847265 167.550725 
L 171.640496 167.550725 
L 171.433727 167.550725 
L 171.226958 167.550725 
z
" clip-path="url(#pec4ba3d6cf)" style="fill: #4c72b0; fill-opacity: 0.2; stroke: #4c72b0; stroke-opacity: 0.2; stroke-width: 0.8"/>
    <path d="M 173.294646 160.23538 
L 173.294646 160.23538 
L 173.294646 160.23538 
L 173.294646 160.23538 
z
" clip-path="url(#pec4ba3d6cf)" style="fill: #4c72b0; fill-opacity: 0.2; stroke: #4c72b0; stroke-opacity: 0.2; stroke-width: 0.8"/>
    <path d="M 174.121721 160.23538 
L 174.121721 160.23538 
L 174.121721 160.23538 
L 174.121721 160.23538 
z
" clip-path="url(#pec4ba3d6cf)" style="fill: #4c72b0; fill-opacity: 0.2; stroke: #4c72b0; stroke-opacity: 0.2; stroke-width: 0.8"/>
    <path d="M 174.742028 152.716831 
L 174.742028 152.716831 
L 174.948796 152.716831 
L 174.948796 152.716831 
L 174.948796 152.716831 
L 174.742028 152.716831 
z
" clip-path="url(#pec4ba3d6cf)" style="fill: #4c72b0; fill-opacity: 0.2; stroke: #4c72b0; stroke-opacity: 0.2; stroke-width: 0.8"/>
    <path d="M 177.223253 114.006465 
L 177.223253 114.006465 
L 177.636791 114.006465 
L 179.704478 106.487916 
L 179.704478 106.487916 
L 179.704478 106.487916 
L 177.636791 106.487916 
L 177.223253 114.006465 
z
" clip-path="url(#pec4ba3d6cf)" style="fill: #4c72b0; fill-opacity: 0.2; stroke: #4c72b0; stroke-opacity: 0.2; stroke-width: 0.8"/>
    <path d="M 181.978935 106.487916 
L 181.978935 106.487916 
L 181.978935 106.487916 
L 181.978935 106.487916 
z
" clip-path="url(#pec4ba3d6cf)" style="fill: #4c72b0; fill-opacity: 0.2; stroke: #4c72b0; stroke-opacity: 0.2; stroke-width: 0.8"/>
    <path d="M 186.321079 29.88 
L 186.321079 106.487916 
L 186.734617 29.88 
L 186.734617 29.88 
L 186.734617 29.88 
L 186.321079 29.88 
z
" clip-path="url(#pec4ba3d6cf)" style="fill: #4c72b0; fill-opacity: 0.2; stroke: #4c72b0; stroke-opacity: 0.2; stroke-width: 0.8"/>
    <path d="M 207.825032 29.88 
L 207.825032 29.88 
L 207.825032 29.88 
L 207.825032 29.88 
z
" clip-path="url(#pec4ba3d6cf)" style="fill: #4c72b0; fill-opacity: 0.2; stroke: #4c72b0; stroke-opacity: 0.2; stroke-width: 0.8"/>
    <path d="M 220.437927 29.88 
L 220.437927 29.88 
L 220.437927 29.88 
L 220.437927 29.88 
z
" clip-path="url(#pec4ba3d6cf)" style="fill: #4c72b0; fill-opacity: 0.2; stroke: #4c72b0; stroke-opacity: 0.2; stroke-width: 0.8"/>
    <path d="M 234.498204 29.88 
L 234.498204 29.88 
L 234.498204 29.88 
L 234.498204 29.88 
z
" clip-path="url(#pec4ba3d6cf)" style="fill: #4c72b0; fill-opacity: 0.2; stroke: #4c72b0; stroke-opacity: 0.2; stroke-width: 0.8"/>
   </g>
   <g id="PolyCollection_2">
    <path d="M 161.922364 481.331601 
L 161.922364 483.48 
L 162.129132 475.779293 
L 162.335901 459.479655 
L 162.54267 450.461524 
L 162.749439 440.860134 
L 162.956208 440.860134 
L 163.162976 429.683912 
L 163.369745 429.683912 
L 163.576514 429.683912 
L 163.783283 429.683912 
L 163.990051 429.683912 
L 164.19682 429.683912 
L 164.403589 429.683912 
L 164.610358 429.683912 
L 164.817126 429.683912 
L 165.023895 429.683912 
L 165.023895 429.683912 
L 165.023895 429.683912 
L 164.817126 429.683912 
L 164.610358 429.683912 
L 164.403589 429.683912 
L 164.19682 429.683912 
L 163.990051 429.683912 
L 163.783283 429.683912 
L 163.576514 429.683912 
L 163.369745 429.683912 
L 163.162976 429.683912 
L 162.956208 435.272023 
L 162.749439 440.860134 
L 162.54267 445.731315 
L 162.335901 456.620828 
L 162.129132 472.353038 
L 161.922364 481.331601 
z
" clip-path="url(#pec4ba3d6cf)" style="fill: #dd8452; fill-opacity: 0.2; stroke: #dd8452; stroke-opacity: 0.2; stroke-width: 0.8"/>
    <path d="M 165.437433 428.921897 
L 165.437433 429.683912 
L 165.644202 428.667892 
L 165.644202 428.667892 
L 165.644202 428.667892 
L 165.437433 428.921897 
z
" clip-path="url(#pec4ba3d6cf)" style="fill: #dd8452; fill-opacity: 0.2; stroke: #dd8452; stroke-opacity: 0.2; stroke-width: 0.8"/>
    <path d="M 166.471277 428.667892 
L 166.471277 428.667892 
L 166.678045 428.667892 
L 166.678045 428.667892 
L 166.678045 428.667892 
L 166.471277 428.667892 
z
" clip-path="url(#pec4ba3d6cf)" style="fill: #dd8452; fill-opacity: 0.2; stroke: #dd8452; stroke-opacity: 0.2; stroke-width: 0.8"/>
    <path d="M 167.711889 428.667892 
L 167.711889 428.667892 
L 167.918658 428.667892 
L 167.918658 428.667892 
L 167.918658 428.667892 
L 167.711889 428.667892 
z
" clip-path="url(#pec4ba3d6cf)" style="fill: #dd8452; fill-opacity: 0.2; stroke: #dd8452; stroke-opacity: 0.2; stroke-width: 0.8"/>
    <path d="M 168.952502 428.667892 
L 168.952502 428.667892 
L 168.952502 428.667892 
L 168.952502 428.667892 
z
" clip-path="url(#pec4ba3d6cf)" style="fill: #dd8452; fill-opacity: 0.2; stroke: #dd8452; stroke-opacity: 0.2; stroke-width: 0.8"/>
    <path d="M 169.986346 428.363086 
L 169.986346 428.667892 
L 169.986346 428.363086 
L 169.986346 428.363086 
z
" clip-path="url(#pec4ba3d6cf)" style="fill: #dd8452; fill-opacity: 0.2; stroke: #dd8452; stroke-opacity: 0.2; stroke-width: 0.8"/>
    <path d="M 171.640496 428.363086 
L 171.640496 428.363086 
L 171.640496 428.363086 
L 171.640496 428.363086 
z
" clip-path="url(#pec4ba3d6cf)" style="fill: #dd8452; fill-opacity: 0.2; stroke: #dd8452; stroke-opacity: 0.2; stroke-width: 0.8"/>
    <path d="M 172.467571 428.363086 
L 172.467571 428.363086 
L 172.467571 428.363086 
L 172.467571 428.363086 
z
" clip-path="url(#pec4ba3d6cf)" style="fill: #dd8452; fill-opacity: 0.2; stroke: #dd8452; stroke-opacity: 0.2; stroke-width: 0.8"/>
    <path d="M 173.087877 428.363086 
L 173.087877 428.363086 
L 173.708184 428.363086 
L 173.708184 428.363086 
L 173.708184 428.363086 
L 173.087877 428.363086 
z
" clip-path="url(#pec4ba3d6cf)" style="fill: #dd8452; fill-opacity: 0.2; stroke: #dd8452; stroke-opacity: 0.2; stroke-width: 0.8"/>
    <path d="M 174.948796 428.363086 
L 174.948796 428.363086 
L 174.948796 428.363086 
L 174.948796 428.363086 
z
" clip-path="url(#pec4ba3d6cf)" style="fill: #dd8452; fill-opacity: 0.2; stroke: #dd8452; stroke-opacity: 0.2; stroke-width: 0.8"/>
    <path d="M 182.185704 428.363086 
L 182.185704 428.363086 
L 182.185704 428.363086 
L 182.185704 428.363086 
z
" clip-path="url(#pec4ba3d6cf)" style="fill: #dd8452; fill-opacity: 0.2; stroke: #dd8452; stroke-opacity: 0.2; stroke-width: 0.8"/>
    <path d="M 184.46016 428.363086 
L 184.46016 428.363086 
L 184.46016 428.363086 
L 184.46016 428.363086 
z
" clip-path="url(#pec4ba3d6cf)" style="fill: #dd8452; fill-opacity: 0.2; stroke: #dd8452; stroke-opacity: 0.2; stroke-width: 0.8"/>
    <path d="M 186.11431 428.363086 
L 186.11431 428.363086 
L 186.11431 428.363086 
L 186.11431 428.363086 
z
" clip-path="url(#pec4ba3d6cf)" style="fill: #dd8452; fill-opacity: 0.2; stroke: #dd8452; stroke-opacity: 0.2; stroke-width: 0.8"/>
    <path d="M 201.4152 425.721434 
L 201.4152 425.721434 
L 201.4152 425.721434 
L 201.4152 425.721434 
z
" clip-path="url(#pec4ba3d6cf)" style="fill: #dd8452; fill-opacity: 0.2; stroke: #dd8452; stroke-opacity: 0.2; stroke-width: 0.8"/>
    <path d="M 216.922858 425.721434 
L 216.922858 425.721434 
L 216.922858 425.721434 
L 216.922858 425.721434 
z
" clip-path="url(#pec4ba3d6cf)" style="fill: #dd8452; fill-opacity: 0.2; stroke: #dd8452; stroke-opacity: 0.2; stroke-width: 0.8"/>
   </g>
   <g id="line2d_13">
    <path d="M 161.922364 478.37863 
L 162.335901 442.579552 
L 162.54267 429.683912 
L 162.749439 429.683912 
L 162.956208 424.818305 
L 163.162976 381.863233 
L 163.576514 359.775379 
L 164.403589 317.108885 
L 164.610358 315.752199 
L 164.817126 299.328533 
L 165.023895 297.540337 
L 165.230664 290.387556 
L 165.437433 289.930347 
L 165.644202 285.002649 
L 166.057739 269.237404 
L 166.471277 263.564625 
L 166.678045 263.564625 
L 166.884814 253.302822 
L 167.091583 211.849201 
L 167.711889 203.517836 
L 167.918658 201.993806 
L 168.125427 199.076377 
L 168.332196 191.461064 
L 168.538964 190.715983 
L 168.745733 188.800059 
L 168.952502 184.950069 
L 169.572808 179.793767 
L 169.779577 179.43816 
L 170.399883 179.43816 
L 170.813421 178.44754 
L 171.02019 167.550725 
L 171.847265 167.550725 
L 172.054034 165.112276 
L 172.260802 160.23538 
L 174.121721 160.23538 
L 174.32849 152.716831 
L 175.775872 152.716831 
L 176.189409 114.006465 
L 177.223253 114.006465 
L 177.636791 110.247191 
L 179.704478 106.487916 
L 185.494004 106.487916 
L 186.321079 68.183958 
L 186.734617 29.88 
L 764.860111 29.88 
L 764.860111 29.88 
" clip-path="url(#pec4ba3d6cf)" style="fill: none; stroke: #4c72b0; stroke-width: 3; stroke-linecap: round"/>
   </g>
   <g id="line2d_14">
    <path d="M 161.922364 482.429871 
L 162.129132 474.105763 
L 162.54267 448.353282 
L 162.749439 440.860134 
L 162.956208 438.99743 
L 163.162976 429.683912 
L 165.230664 429.683912 
L 165.437433 429.429907 
L 165.644202 428.667892 
L 169.779577 428.667892 
L 170.193115 428.363086 
L 186.734617 428.363086 
L 186.941385 425.721434 
L 218.370239 425.721434 
L 218.577008 421.860558 
L 246.490792 421.860558 
L 247.524636 420.438129 
L 249.799093 420.438129 
L 252.073549 417.390069 
L 277.506109 417.390069 
L 280.60764 416.780457 
L 361.867769 416.780457 
L 364.348994 413.224387 
L 383.57849 413.224387 
L 386.886791 410.176326 
L 396.398154 410.176326 
L 404.875674 385.690242 
L 704.070091 385.690242 
L 725.780812 378.476499 
L 770.649636 378.476499 
L 770.649636 378.476499 
" clip-path="url(#pec4ba3d6cf)" style="fill: none; stroke: #dd8452; stroke-width: 3; stroke-linecap: round"/>
   </g>
   <g id="patch_3">
    <path d="M 131.486 506.16 
L 131.486 7.2 
" style="fill: none; stroke: #cccccc; stroke-linejoin: miter; stroke-linecap: square"/>
   </g>
   <g id="patch_4">
    <path d="M 801.086 506.16 
L 801.086 7.2 
" style="fill: none; stroke: #cccccc; stroke-linejoin: miter; stroke-linecap: square"/>
   </g>
   <g id="patch_5">
    <path d="M 131.486 506.16 
L 801.086 506.16 
" style="fill: none; stroke: #cccccc; stroke-linejoin: miter; stroke-linecap: square"/>
   </g>
   <g id="patch_6">
    <path d="M 131.486 7.2 
L 801.086 7.2 
" style="fill: none; stroke: #cccccc; stroke-linejoin: miter; stroke-linecap: square"/>
   </g>
  </g>
 </g>
 <defs>
  <clipPath id="pec4ba3d6cf">
   <rect x="131.486" y="7.2" width="669.6" height="498.96"/>
  </clipPath>
 </defs>
</svg>
